<?xml version="1.0" encoding="UTF-8"?><svg version="1.1" viewBox="0 0 406 400" xmlns="http://www.w3.org/2000/svg"><g opacity=".5"><path style="mix-blend-mode:color-dodge;" fill="#7AC0EE" d="M203.491 2.3649c110.762 0 200.563 88.4413 200.563 197.55 0 109.109-89.801 197.569-200.563 197.569 -110.762 0-200.562-88.46-200.562-197.569 -.0001-109.109 89.7811-197.55 200.562-197.55Zm0-1.9173C91.8146.4476.9823 89.9241.9823 199.915c0 109.991 90.8322 199.487 202.509 199.487C315.168 399.402 406 309.925 406 199.915 406 89.905 315.148.4475 203.491.4475Z"/><g style="mix-blend-mode:color-dodge;"><g fill="#7AC0EE"><path d="M115.909 24.3174s.02 0 .039 0c.175.0383.273.2492-.623.8819 -1.167.8052-1.771.9203-2.043.9203 -.117 0-.156-.0192-.156-.0192 -.019-.0192.039-.0959.097-.1342 0 0 1.149-.9395 1.246-1.0162 .097-.0766.759-.4026 1.187-.5559 .117-.0384.195-.0576.253-.0576m0-.9586c-.194 0-.369.0384-.545.0959 -.525.1917-1.245.5368-1.459.6902 -.02 0-.857.6135-1.324 1.0736 -.117.0959-.447.3643-.447.8436v.441l.33.3067c.156.1534.448.2684.798.2684 .662 0 1.538-.3642 2.589-1.0928 .428-.2876 1.323-.9011 1.148-1.783 -.097-.4218-.447-.7477-.895-.8244h-.078 -.117v-.0192Z"/><path d="M113.243 23.2817s.019 0 .039 0c-.039.0767-.642.4602-.759.5177 -.214.115-.448.1917-.545.1917 0 0-.02 0-.039 0 -.039-.0192.078-.1534.195-.2301 .097-.0575.72-.3451 1.012-.4601 .039 0 .058-.0383.097-.0383m0-.9586h-.234l-.272.1342c-.234.0767-.915.4026-1.09.4984 -.156.0959-.662.4218-.681 1.0162v.5368l.447.3067 .253.1534h.331c.351 0 .74-.1534.993-.3067 .467-.2493 1.051-.6135 1.207-1.0353l.253-.7094 -.643-.4218 -.233-.1534h-.331v-.0191Z"/><path d="M121.086 19.7923s.02 0 .059 0c-.117.0959-.915.4985-.915.5177 -.681.3643-1.129.5368-1.168.556 -.324.1278-.642.2301-.953.3067 -.448.0959-.837.3643-1.265.5177l-1.48.5752c2.667-1.3996 5.586-2.4349 5.606-2.4349 .077-.0192.097-.0384.136-.0384m0-.9586c-.175 0-.292.0384-.409.0767 -.039 0-3.017 1.0545-5.78 2.5116l.817 1.7447 1.479-.5752c.175-.0767.351-.1534.526-.2301 .233-.115.428-.2109.603-.2492 .526-.115.584-.1342 1.11-.3643 .038 0 .506-.2109 1.245-.5943l.156-.0767c.584-.3068.798-.441.915-.5177l1.459-1.1311 -1.771-.5368 -.136-.0384h-.195l-.019-.0192Z"/><path d="M117.427 21.7673s-.116.0766-.155.0958c-.273.1342-.779.3451-1.149.4985 -1.089.4601-1.128.4793-1.187.5368 0 0 .039 0 .059 0 0 .0575-.039.1151-.039.1726 -.195.1342-3.484 1.7255-3.834 1.7255 .428-.3643 2.899-1.9939 6.091-3.0101 .059-.0191.156-.0383.234-.0383m3.114-1.3996l-3.25.4602c-.117 0-.273.0383-.39.0766 -3.289 1.0545-5.916 2.7417-6.442 3.2018l-1.459 1.2654 1.907.3834h.097l.117.0192c.74 0 4.282-1.8214 4.418-1.9364l.467-.3451v-.0384c.117-.0575.292-.115.487-.2109 .447-.1917.953-.4026 1.226-.5368 .136-.0767.272-.1534.35-.23l2.472-2.1282v.0192Z"/><path d="M119.393 21.518h.02s0 .0384-.117.1343c-.195.1725-.389.3259-.584.4984 -.097.0959-.195.2109-.311.3068 -.059.0575-.117.0958-.195.1342 0 0-.837.4985-.934.4985 .194-.2684.253-.4154.175-.441 .078-.0959 1.187-.9011 1.829-1.112 .039 0 .059 0 .078 0m0-.9586h-.117l-.194.0384c-.818.2684-2.141 1.1695-2.394 1.4762l-.195.2493v.23l-1.265 1.7447 2.161-.2301c.33-.0383 1.012-.4409 1.323-.6518 .097-.0575.234-.1342.35-.2493 .039-.0383.117-.115.195-.1917l.078-.0767s.175-.1534.272-.23c.098-.0767.214-.1726.312-.2685 .175-.1533.35-.3451.408-.6518l.117-.5368 -.409-.3643 -.272-.2492h-.409l.039-.0384Z"/><path d="M110.226 28.3815s.02 0 .039 0c.156.0191-.039.2109-.272.3642 -.604.4218-2.024.9778-2.161.997 0 0 0 0 0-.0192 .059-.0767.935-.7285 1.694-1.0928 0 0 .253-.115.545-.2109 .058 0 .116-.0383.175-.0383m0-.9586c-.175 0-.312.0383-.39.0575 -.408.115-.739.2684-.739.2684 -.584.2876-1.83 1.0544-2.083 1.4379l-.155.2492v.556l.097.1726 .234.5751 .7-.0383c.467-.0192 2.122-.7669 2.686-1.1695 .234-.1726.876-.6327.701-1.3421l-.156-.6326 -.701-.1151h-.058 -.097l-.039-.0191Z"/><path d="M111.413 31.5451c.176 0 .215.0384.273.0767 0 .0959-1.382 1.2271-1.382 1.2462 -1.09.7286-2.296 1.2079-3.386 1.9364 .545-.1342 1.07-.4026 1.634-.4218 .507 0-.291 1.5722-.564 1.8406 -1.148 1.1311-5.099 3.451-6.17 3.451 -.097 0-.194-.0192-.233-.0767 -.039-.0384-.059-.0959-.059-.1534 -.038-.3068.137-.5752.137-.8628 0-.1725-.098-.3067-.137-.4601 -.077-.4026-.291-.7477-.389-1.1503 0-.0575 0-.1342.039-.1726 .195-.4601 1.888-1.3612 2.238-1.3995 0 .4601-.661.6326-.525 1.1503 .019 0 .039 0 .058 0 .078 0 .117 0 .273-.0959 .486-.2492 2.316-1.5913 2.452-1.783 .078-.115.175-.2492-.156-.4793 -.097-.0767-.214-.0767-.311-.0767 -.058 0-.117 0-.175 0 -.059 0-.137 0-.195-.0192 0 0 0-.0383 0-.0575 .37-.5176 3.134-1.8022 3.99-1.9939 .701-.1342 1.382-.2684 2.082-.4026 .078 0 .156-.0383.234-.0383 .136 0 .234-.0192.311-.0192m0-.9586c-.116 0-.253 0-.447.0383 -.078 0-.195.0384-.273.0384l-.798.1534 -1.284.2492c-.798.1725-3.951 1.5146-4.574 2.3773l-.233.326 .077.4026v.0575l.039.0767v.0383l-.623.0959c-.467.0767-2.588 1.0545-2.997 1.9747 -.136.3068-.155.5944-.058.8628 .039.1342.117.3451.194.5368 .078.1725.137.3259.156.4601 .02.1151.059.2301.097.326 0 .0191 0 .0575-.019.0766 -.058.2109-.156.5177-.097.882 .058.3259.175.5368.35.6902 .136.1342.428.3451.915.3451 1.498 0 5.702-2.5883 6.87-3.7386 .136-.1342 1.168-1.5338.993-2.5499 .389-.2109.778-.441 1.148-.6902h.039l.039-.0575c1.654-1.3612 1.674-1.4955 1.732-1.8406l.078-.5943 -.506-.3259c-.175-.1151-.409-.2301-.818-.2301v.0192Z"/><path d="M109.253 25.2952h.039c-.195.2492-.409.3642-.545.4409l-6.753 3.7961c.064-.0767.759-.524 2.082-1.342 -1.966.9586-3.678 2.3581-5.6831 3.2401 .039-.0192.0779-.0767.0973-.0959 -.8563.4218-1.4986 1.227-2.5106 1.3612 2.0435-1.6488 11.5994-6.7102 13.0404-7.3429 .058-.0192.136-.0575.214-.0575m0-.9586c-.176 0-.37.0383-.565.115 -1.537.671-11.1324 5.7325-13.2928 7.4963l-2.608 2.109 .9342-.1151 -1.7711 1.3996 3.7369-1.6488 .4476-.0575c.4282-.0576.798-.1918 1.1094-.3451l-.0389.0383 5.2937-2.9717 6.754-3.7961c.155-.0958.506-.2876.817-.6902l.915-1.1311 -1.421-.3835 -.117-.0383h-.175l-.019.0192Z"/><path d="M98.4319 45.4641s.7785.3259 1.1093.9011c0 0 .7588 1.3996.4668 1.7638 0 0-1.1479 1.112-3.8922 1.6297 -.3308.0575-.6812.0958-.8563.0958 -.0584 0-.0779 0-.0973 0 -.2725-.0958-.2336-.4217-.4477-.5751 -.0584-.0384-.0973-.0575-.1751-.0575 -.0974 0-.2725.0383-.6034.0958 -.3114.0575-.4476.0959-.5449.0959 -.0195 0-.0584 0-.0779 0 0 0-.0195-.0192-.0389-.0384 .0778-.23.5449-.5176 2.1409-1.4762 .9536-.5752 1.6154-1.4763 2.4912-2.1473 .2141-.1726.3503-.2301.4476-.2684 .0195 0 .0584 0 .0973 0m0-.9586h-.1362l-.2141.0383c-.3308.1151-.5255.2301-.7979.441 -.4088.3067-.7591.671-1.1094.9969 -.4282.4218-.8175.8053-1.2846 1.0928 -2.0241 1.2079-2.3744 1.438-2.5496 2.0131l-.2141.6902 .545.3451 .1168.1151 .2725.0766h.0583l.0584.0192c.0584 0 .1363 0 .2141 0 .2141 0 .3893-.0383.7396-.115 0 0 .0389 0 .0584 0 .1362.1917.3309.4026.6617.4985 .1557.0575.3114.0575.4282.0575 .3503 0 .8758-.0959 1.0315-.1151 2.5496-.4601 4.0481-1.4954 4.4371-1.9555 .487-.556.39-1.3996-.292-2.7225l-.058-.1342c-.4476-.7669-1.4207-1.3804-1.9462-1.3804l-.0195.0384Z"/><path d="M102.227 34.0758s.02 0 .039 0c.292.0192.117.2876-.584.9011 -.156.1534-1.615 1.3996-2.1213 1.5529 -.0195 0-.0389 0-.0584 0 -.1946 0 0-.4026.0779-.5751 .1362-.2876.1362-.3068.0973-.4026 -.039 0-.0779-.0192-.1168-.0192 -.0973 0-.1946.0383-.3114.0383 0 0 0 0-.0195-.0191 .0584-.1342 1.1092-1.0353 2.5692-1.4188 .233-.0575.37-.0767.428-.0767m0-.9586c-.175 0-.389.0384-.681.0959 -1.538.4026-2.9974 1.3996-3.2309 1.9747l-.2141.5368 .3698.441c-.0584.2684-.0389.556.1362.8436l.292.4601 .6033.0384c.1168 0 .2336 0 .3503-.0576 .6034-.1725 1.6934-1.0544 2.4914-1.7638 .584-.5176 1.245-1.0928.992-1.8597 -.097-.3259-.408-.671-.973-.7285h-.039 -.077l-.02.0191Z"/><path d="M197.633 2.3649c1.693 0 3.445.0191 4.515.0575 1.363.0383 2.589.8627 3.951.8627 .195 0 .37 0 .565-.0576 .389-.0767 2.277-.3835 3.989-.3835 .234 0 .448 0 .662 0 .02 0 2.803.1725 3.776.3067 -.078.0191-.195.0575-.292.0766 -.058.1725-.117.4217-.156.5943 .214.0958.506.2492.74.3451 1.051 3.9303 5.391 2.2814 7.532 4.352 -.117.0383-.273.0958-.37.1342 -.039.0958-.078.2108-.136.3067 .623.9586.681 1.0544 8.019 5.3298 2.238 1.3037 2.997 1.7446 1.907 2.8375 -.798.786-1.071 1.1503-.428 2.5499 .564 1.1886.525 2.569 1.343 3.6618 1.265 1.7255 3.269 2.6841 4.573 4.3521 .896 1.1504.175 1.668.137 1.6872 -1.46 1.0161-3.173 1.5338-4.749 2.339 -3.854 1.9555-8.291 2.224-12.145 4.1412 -1.596.8052-1.732 1.7447-1.966 3.4318 -.155 1.0992-3.179 2.5307-9.069 4.2946 -2.803.8435-2.861.8627-3.309 1.6104 -.856 1.4379-.058 3.0101-.35 4.5055 0 .0959-2.044 10.1996-3.231 11.5033 -.312.3451-.526.5752-1.557.5752 -1.382 0-4.204-.441-10.607-1.6488 -2.472-35.9671-4.126-48.0839-6.17-54.2574 2.277 7.017 3.932 21.7796 6.17 54.2573 -4.496-1.4955-13.858-17.1208-14.072-17.8302 -.486-1.5337.136-4.1603.798-5.0998 1.187-1.7255 3.581-1.6679 4.905-3.2017 .019-.0192 1.498-2.5691-1.713-3.9878 -.37-.1726-.72-.2301-1.051-.2301 -1.343 0-2.413 1.0928-3.678 1.3996 -.526-.9011-.137-1.9556-.526-2.8759 -.253-.5943-1.129-.6518-1.245-1.3612 -.039-.1917-.039-.2301.7-1.5913 1.81-3.3168-3.756-9.4135-3.814-9.471 -.429-.3643-.682-.5944-2.492-.5944 -1.673 0-4.71.1917-10.49.5944 -.097 0-4.885-.8244-2.978-3.3552 .292-.4026 7.26-2.3965 7.338-2.3965 1.381-.3643 3.931-1.0545 4.924-2.2432 -.117 0-.234 0-.331 0 -.954 0-.993 0-1.265-.1726 .058-.0192 6.481-2.8759 15.434-3.8537 .875-.0767 1.323-.0959 1.907-.0959 .214 0 .448 0 .72 0 1.46.0191 2.063.0383 2.355.0383 .195 0 .253 0 .331 0 -.441-.1151-1.408-.2237-2.9-.326 0 0-.078 0-.117 0 0-.0192.02-.0192.039-.0192 0 0 .039 0 .058 0 1.22-.2301 3.102-.4154 5.645-.556 .272-.179 1.576-.3324 3.912-.46014 .953-.0384 2.627-.0576 4.34-.0576m0-.9587c-1.888 0-3.484.0191-4.379.0766 -3.27.1725-3.718.2108-4.185.4793 -3.503.1917-3.659.2108-5.43.5368h-.039c-.292.0383-.545.1533-.72.3642 -.467 0-.915.0383-1.576.0958 -8.934.9777-15.454 3.8152-15.726 3.9303l-1.81.786 1.323.7093c-.953.3834-2.024.671-2.705.8435 -.039 0-7.24 1.9364-7.863 2.7608 -.876 1.1503-.701 2.0898-.409 2.6841 .915 1.8022 4.126 2.2048 4.146 2.2048 5.333-.3835 8.739-.5943 10.49-.5943 1.44 0 1.577.115 1.849.3451 1.343 1.3995 4.788 6.1159 3.601 8.2823 -.74 1.3804-.896 1.668-.798 2.224 .136.7669.72 1.1503 1.07 1.3804 .098.0575.214.1534.253.1917 .098.2301.098.5752.117.9586 0 .5752.039 1.3037.448 1.9939l.369.6136 .701-.1726c.662-.1534 1.226-.4601 1.771-.7477 .623-.3259 1.149-.6135 1.674-.6135 .214 0 .428.0575.662.1534 .778.3451 1.245.7668 1.421 1.2653 .194.556-.039 1.112-.117 1.2846 -.526.5368-1.207.8244-1.927 1.1311 -1.032.441-2.199.9395-2.978 2.0898 -.759 1.112-1.518 4.0453-.915 5.9242 .195.6327 8.875 15.5295 14.072 18.1944v.1534l.681.1342 1.324.4409v-.1917c5.605 1.0545 8.154 1.4379 9.536 1.4379 1.382 0 1.83-.3834 2.277-.9011 1.46-1.6104 3.445-11.8867 3.465-11.9826 .136-.6902.078-1.3804 0-2.0322 -.078-.8244-.136-1.5338.214-2.1281 .169-.2812 1.09-.6711 2.764-1.1695 9.264-2.7608 9.439-2.8184 9.75-5.0807 .234-1.6488.292-2.1473 1.441-2.7224 1.829-.9011 3.775-1.4379 5.838-1.9748 2.102-.556 4.282-1.1311 6.306-2.1664 .545-.2876 1.11-.5177 1.713-.7669 1.07-.4601 2.16-.9203 3.172-1.6296 .273-.1918.604-.5752.701-1.1312 .097-.6135-.117-1.2654-.623-1.9172 -.7-.9011-1.557-1.5721-2.374-2.2432 -.818-.671-1.596-1.3037-2.18-2.0897 -.37-.4985-.526-1.1312-.681-1.8022 -.136-.556-.292-1.1312-.565-1.7063 -.259-.5624-.181-1.0481.234-1.4571 .37-.3835.856-.9586.759-1.7447 -.136-1.0161-1.109-1.5721-2.881-2.6074 -4.729-2.7416-6.344-3.7195-7.064-4.2946l.778-.3068 -1.051-1.0162c-1.07-1.0353-2.511-1.3038-3.776-1.553 -1.946-.3835-3.055-.6711-3.503-2.35818v-.0959l3.834-.9778 -4.924-.6519c-1.012-.1342-3.815-.3068-3.834-.3068 -.234 0-.487-.0192-.72-.0192 -1.83 0-3.795.3451-4.165.4026 -.136.0191-.273.0383-.389.0383 -.545 0-1.129-.1918-1.733-.3835 -.681-.2109-1.381-.441-2.179-.4793 -1.071-.0384-2.764-.0576-4.555-.0576l.02-.0384Z"/><path d="M133.367 43.5277c.662 0 .779.5368.37 1.6296 0 .0384-1.148 2.8567-2.141 2.8567 -.097 0-.194-.0192-.272-.0767 -.428-.2684-1.479-1.9364-1.226-2.5883 .467-1.1119 3.016-1.783 3.055-1.783 .078 0 .156 0 .234 0m0-.9586c-.117 0-.253 0-.39.0384 -.058 0-3.094.7093-3.795 2.3773 -.525 1.3037.993 3.3935 1.596 3.7578 .234.1533.506.23.798.23 1.713 0 2.92-3.125 3.056-3.4893 .253-.6327.506-1.5913 0-2.3007 -.156-.23-.545-.6135-1.304-.6135h.039Z"/><path d="M173.694 4.7806c-2.141.5368-4.34.8627-6.462 1.4187 .837-.0576.973-.0767 3.192-.3835 -.447.1342-9.03 2.7608-9.089 2.7799 .467-.0767.603-.0959.74-.0959 .058 0 .136 0 .214 0 -1.187.7668-2.92 1.227-6.734 2.2047 .058.0192.155.0575.214.0767 -.039.3451-1.479 1.8597-5.605 2.8375 -.682.1534-3.737 2.0706-4.088 2.5499 .156.0383.37.0767.526.1342 .389 1.0545-3.659 3.0675-5.352 3.0675 -.098 0-.195 0-.292-.0191 .298-.2301.499-.4665.603-.7094 -.311-.0575-.603-.0959-.915-.0959 -1.771 0-3.289 1.0545-4.982 1.3804 -2.16.4218-2.764.4985-3.134.4985 -.077 0-.155 0-.233 0 -.039-.0575-.097-.115-.117-.1725 1.285-1.2462 3.192-1.3613 4.632-2.3007 .059-.4601.214-1.4187 2.783-1.4763 .117.1151.234.2685.584.2685 .506 0 1.46-.2876 3.445-1.3613 -1.966.7094-2.18.7477-2.783.8244 0-.0575.039-.1342.058-.1917 -.389-.2301-.856-.1534-1.265-.3451 .156-.1342 3.971-2.3198 5.995-2.3198 .194 0 .389.0192.545.0767 .564-.5177.895-1.6297.895-1.8597 .311-.2301.545-.4026 1.323-.5752 3.348-.6902 6.482-1.7255 10.452-3.0292 -.954.2684-6.89 1.8597-8.719 2.3007 .584-.2109 1.167-.4027 1.732-.6328 -2.044.5368-2.783.6902-3.134.6902 -.194 0-.272-.0384-.408-.0959 .72-.8436 7.551-2.51154 8.407-2.51154h.039c.273.0383.487.0575.682.0575 .389 0 .603-.0576.836-.1343 -.116-.0576-.253-.1726-.33-.2685 1.79-.67103 10.081-2.0706 10.159-2.0898 .02 0 3.464-.4218 5.547-.441m7.824-.9778h-7.824c-1.868.0191-4.963.3642-5.664.4601 0 0-8.466 1.3995-10.393 2.1281l-.759.2875h-.117c-.797 0-8.115 1.5912-9.166 2.85665l-.798.9585h.039c-.098.0959-.215.1726-.312.2493l-.389.2876v.4793c-.039.115-.175.5176-.35.8244 -.039 0-.078 0-.137 0 -2.316 0-6.344 2.3006-6.617 2.5499l-.876.7477c-1.168.2492-1.868.8052-2.16 1.668 -.448.23-.954.4218-1.479.6135 -.973.3451-2.083.7477-2.998 1.6104l-.545.5177 .39.6518s.117.1726.175.2685l.272.3642h.467s.176.0384.292.0384c.468 0 1.11-.0767 3.329-.4985 .778-.1534 1.479-.4218 2.179-.6902 .253-.0959.487-.1917.72-.2684l1.986.3834c.136.0192.311.0384.486.0384 1.635 0 5.022-1.4955 5.995-2.8759 .35-.4984.389-.9586.331-1.2461 .914-.6327 2.432-1.5146 2.822-1.6297 3.347-.8052 5.449-2.0706 6.111-3.1059 3.425-.8819 5.08-1.342 6.325-2.1473l.467-.3068c2.531-.7669 7.065-2.1665 7.377-2.2624l-.059-.3068s.117-.0192.176-.0384c1.031-.2109 2.082-.4218 3.133-.6711l7.571-1.8981V3.859Z"/><path d="M121.865 22.6492s.078 0 .136.0191c-.078.1151-.097.1534-.564.5177 -1.415 1.1503-2.388 1.9811-2.92 2.4924l.02-.0384c.058-.1725 0-.2492 0-.2684 -1.168 1.0098-1.843 1.5594-2.024 1.6488 -.39.2109-3.484 1.3421-3.523 1.3421 0 0 0-.0192-.02-.0384 .176-.556 2.492-1.8213 3.367-2.3006 -2.218.7285-2.646.8627-2.822.8627 -.039 0-.058 0-.097 0 0 0 .039-.0958.117-.2876 0 0-.078-.0383-.097-.0383 -.078 0-.176.0383-.253.0383 -.02 0-.059 0-.078-.0191 .953-.5369 2.102-.6519 2.958-1.3613 0-.0191 0-.0575 0-.0766 -.078 0-.175 0-.253 0 .662-.6711 1.285-.8053 1.479-.8053 .02 0 .039 0 .059 0 0 .1151-.078.2301-.098.3451 -.097.2109-.214.4985-.292.7094 .896-.671.915-.7094 1.187-.997 .176-.2109.292-.4793.448-.7093 0-.0192.039-.0384.078-.0575 .272-.1534 3.017-.9587 3.036-.9587 .097 0 .136-.0191.175-.0191m0-.9586c-.136 0-.253.0191-.369.0575 -.02 0-2.881.8244-3.329 1.0736 -.155.0767-.292.2109-.408.3643 -.039.0575-.098.1342-.137.2109h-.038l-.292-.0192c-.506 0-1.382.2876-2.18 1.0928l-.409.4218c-.214.0959-.448.1726-.701.2684 -.447.1534-.914.326-1.381.5752l-1.538.8627 1.44.7478c-.253.2492-.37.4601-.447.6902l-.156.4793 .253.3067 .195.4985h.661c.409 0 3.951-1.4379 3.99-1.4571 .35-.1917.37-.1917 2.024-1.6296l.156.1342c.519-.4857 1.479-1.2973 2.88-2.4349 .506-.4026.623-.4985.779-.7861l.642-1.1119 -1.265-.3068s-.214-.0575-.37-.0575v.0192Z"/><path d="M130.506 27.3847c.39 0 .72.0383.934.115 .117 2.895.273 3.2209.39 3.5469 .039 0 .078 0 .117 0 .233 0 .486-.0959 2.238-.7286 1.888-.7094 4.457-1.6488 5.78-1.6488 .059 0 .117 0 .175 0 1.382.115 1.246 1.7063 2.258 2.2048 .487.2492 1.012.2684 1.538.2684 .214 0 .408 0 .622 0 .273 0 .545 0 .798.0575 2.2.3451 6.734 4.5822 6.832 5.4833 .039.3451-.643.6518-2.005 1.2462 -3.095 1.3612-3.445 1.6104-3.815 1.898l12.904 2.8758c0 .2109-.039.4985-.117.7094 -.019.0767-2.666 6.7103-4.437 7.0362 -.039 0-.078 0-.117 0 -.603 0-1.265-.8436-1.888-1.6488 -.039-.0384-2.764-3.4318-4.068-3.4318 -.019 0-.038 0-.058 0 -.039 0-4.145 1.2845-3.309 3.6619 1.032 2.895 4.399 2.6457 6.209 4.5054 .837.8628-.895 4.7164-1.927 5.0231 -.019 0-.039 0-.058 0 -.175 0-.409-.1533-.72-.3642 -1.849-1.2271-2.861-1.6297-6.092-1.9748 2.764 2.5435 4.23 3.8536 4.398 3.9303 .169.0767.357.2493.565.5177 -.389.2109-1.071.3067-1.946.3067 -3.406 0-9.537-1.3804-10.491-2.2239 1.466-.5369 2.349-.9587 2.647-1.2654 -3.289-1.4188-4.593-1.9939-5.78-1.9939 -.779 0-1.518.2492-2.744.6518 -2.414.8053-3.874 1.0737-4.73 1.0737 -.564 0-.895-.1151-1.051-.2684 -.272-.2301-.253-1.8214.72-2.339 2.161-1.1312 4.652-1.0162 6.929-1.6872 7.629-2.2623 8.194-7.6497 8.194-7.7072 -.02-2.3965-2.589-2.2623-3.698-3.566 -.876-1.0353-1.285-2.3966-2.219-3.3935 0 0-1.771-1.5146-2.452-1.8597 -.273.4409-.681 1.0928-3.426 1.3804 -3.23.3451-3.153.7477-2.997 1.3612 -.681.3259-4.418 1.1312-7.396 1.1312 -1.343 0-2.53-.1726-3.192-.6135 -2.179-1.4571 9.401-11.024 13.293-11.9251 .565-.0959 2.102-.3643 3.192-.3643m0-.9586c-1.167 0-2.744.2684-3.367.3834 -3.795.8819-13.721 8.7425-14.324 11.9443 -.136.7094.097 1.342.661 1.7063 .779.5368 2.005.7861 3.757.7861 3.016 0 6.928-.8053 7.804-1.227l.701-.3451 -.136-.5944c.292-.0958.895-.2109 2.121-.3451 1.946-.2109 2.92-.6135 3.503-1.0736 .584.4409 1.343 1.0545 1.596 1.2845 .409.4601.72.997 1.032 1.553 .331.5943.662 1.1886 1.129 1.7638 .545.6327 1.265.9778 1.926 1.2845 1.149.556 1.538.8244 1.558 1.668 0 0-.623 4.7356-7.494 6.7678 -.817.2492-1.673.3643-2.588.5177 -1.499.23-3.056.4601-4.515 1.2461 -.74.3835-1.227 1.1695-1.363 2.1665 -.058.4601-.078 1.2654.448 1.7255 .37.3451.934.4985 1.693.4985 1.129 0 2.783-.3643 5.041-1.112 1.168-.3835 1.79-.5943 2.433-.5943 .759 0 1.712.3451 3.561 1.1119 -.214.0767-.467.1726-.759.2876l-1.518.556 1.207 1.0545c1.304 1.1311 7.863 2.454 11.133 2.454 1.128 0 1.887-.1342 2.413-.4218l.662-.3642 -.195-.7286c-.175-.671-.487-.8627-1.07-1.1311 -.117-.0767-.584-.4985-1.752-1.553 .895.2684 1.576.6519 2.472 1.2654 .428.2876.798.5368 1.265.5368h.136l.214-.0575c1.343-.4026 2.375-2.8567 2.666-3.9878 .312-1.2079.215-2.0898-.311-2.6266 -.856-.8819-1.946-1.3421-2.997-1.7639 -1.557-.6518-2.55-1.1119-2.997-2.3773 -.098-.2684-.078-.4793.039-.7286 .408-.786 1.81-1.4379 2.452-1.6488 .564.1726 2.082 1.5722 3.27 3.0484 .759.9778 1.576 2.0131 2.646 2.0131 .098 0 .195 0 .292-.0192 2.492-.4601 5.139-7.573 5.158-7.6497 .078-.2492.195-.6902.175-1.112l-.058-.7093 -.701-.1534 -10.374-2.3199c.409-.1725.876-.4026 1.46-.6518 1.732-.7669 2.706-1.1695 2.569-2.2432 -.175-1.5146-5.235-5.9433-7.649-6.3268 -.35-.0575-.7-.0575-.953-.0575h-.312 -.292c-.467 0-.817-.0383-1.109-.1725 -.156-.0767-.292-.3451-.448-.6327 -.311-.5944-.836-1.5721-2.16-1.668 -.078 0-.175 0-.253 0 -1.499 0-4.068.9394-6.111 1.7063 -.467.1726-.934.3451-1.285.4602 -.058-.4602-.117-1.1887-.155-2.4157v-.6327l-.623-.2301c-.312-.115-.72-.1725-1.285-.1725l-.039.0575Z"/><path d="M108.222 26.3684c-.039.0575-.234.1726-.351.2492 -.525.326-1.168.6327-1.362.6327 -.02 0-.039 0-.059 0 0-.115 1.402-.7669 1.674-.8627 .039 0 .059-.0192.098-.0192Zm0-.9586h-.117l-.156.0192 -.233.0767c-2.141.786-2.219 1.3228-2.258 1.6104l-.078.5368 .448.326 .272.1917h.389c.545 0 1.421-.4793 1.888-.7669 .351-.2109.506-.3451.643-.5176l.447-.6519 -.545-.556 -.292-.2876h-.428l.02.0192Z"/><path d="M178.871 31.6985c.428 0 .584.115.584.115 .019 0 .039.0575.039.0767 0 .0959 0 .2492.136.4026 .214.2492.564.3451.74.6327 .077.1342.175.2876.097.5176 -.136.3643-.642.5944-.642.5944l-1.966.3834c-.117.0192-.234.0384-.35.0384 -.409 0-.779-.1342-1.012-.2684 -1.382-.8244 1.148-2.2815 2.024-2.4541 .136 0 .253-.0192.369-.0192m0-.9586c-.136 0-.291 0-.467.0384 -.895.1917-3.036 1.1887-3.269 2.569 -.059.3068-.078 1.0929.837 1.6489 .428.2684.973.4026 1.518.4026 .175 0 .35 0 .545-.0575l1.985-.3835h.097l.097-.0575c.214-.0959.915-.441 1.168-1.1503 .234-.6902-.078-1.1887-.195-1.3421 -.194-.3259-.486-.5176-.681-.6518 -.019 0-.039-.0192-.058-.0384 -.039-.2684-.175-.4985-.37-.6518l-.039-.0384h-.039c-.155-.1342-.506-.2876-1.129-.2876Z"/><path d="M135.255 26.7904c1.83 0 3.815.6135 3.99.8819 0 0-.019.0192-.039.0384 -.039 0-2.744 1.2845-4.554 1.2845 -.487 0-.895-.0959-1.187-.3259 -.409-.3451-.974-1.5146.798-1.8022 .311-.0384.642-.0767.992-.0767Zm0-.9586c-.409 0-.778.0192-1.129.0767 -1.381.23-1.849.9202-2.004 1.4571 -.214.8244.214 1.6296.72 2.0322 .447.3643 1.051.5368 1.81.5368 2.063 0 4.982-1.3804 5.021-1.3995l.117-.0576 .117-.0958 .72-.5368 -.565-.6902c-.564-.8628-3.425-1.3037-4.807-1.3037v-.0192Z"/><path d="M129.3 16.5714s.019 0 .039 0c-.253.3068-.721.2876-.915.6519 .175 0 .331-.1342.525-.1342 .039 0 .078 0 .117 0 0 .3067-1.732 1.783-2.258 2.0514 -.097.0575-1.284.5176-1.615.5176 -.039 0-.078 0-.078-.0191 .078-.3068.506-.3068.584-.6135 0 0-.097 0-.272 0 -.331 0-.896.0383-1.48.2109 -.077.0191-.155.0575-.253.0575 .195-.1342 1.129-.5177 1.674-.7286 .818-.3067 1.012-.4026.954-.5368 0 0-.039 0-.059 0 -.253 0-.506.1534-.759.1534 -.058 0-.116 0-.175-.0192 .253-.1725 2.316-1.0928 3.873-1.5913 .078-.0192.098-.0383.117-.0383m0-.9586c-.156 0-.272.0383-.389.0767 -1.577.5176-3.776 1.4762-4.146 1.7254l-1.732 1.1504h.058v.0192l-2.783 2.0514 3.465-.326c.175 0 .331-.0575.428-.0958 .019 0 .039 0 .058-.0192l.059.0767 .292.3834h.564c.642.0192 2.063-.5943 2.063-.6135 .039 0 2.53-1.6296 2.764-2.7416 .039-.0383.058-.0767.097-.115l.895-1.112 -1.382-.4026 -.136-.0384h-.175v-.0191Z"/><path d="M122.021 24.7008c.583.0575-.682 1.3229-1.285 1.8405 -.798.6711-1.674.9778-2.277.9778 -.214 0-.389-.0383-.526-.115 -.583-.3451-.447-.441-.077-.6902 .175-.1151 2.938-1.6872 3.931-1.9748 .058 0 .156-.0383.214-.0383m0-.9586c-.136 0-.272 0-.448.0575 -1.226.3259-4.126 2.0323-4.242 2.1089 -.292.2109-.759.5177-.74 1.1504 .02.6518.584.9969.856 1.1503 .273.1726.623.2684 1.032.2684 .915 0 2.005-.4601 2.919-1.2078 2.063-1.7447 1.81-2.4924 1.733-2.7608 -.137-.4218-.507-.7094-.974-.7477h-.039 -.058l-.039-.0192Z"/><path d="M134.788 17.5492s0 .0192.02.0383c-.078.0767-.156.1342-.234.1918 -.973.671-1.304.8052-2.024.9969 -1.343.3643-3.795.7861-4.282.7861 -.039 0-.058 0-.078 0 .136-.0767.545-.2301 1.187-.4218 .915-.2876 1.869-.4601 2.784-.7286 .798-.23 1.557-.5368 2.355-.786 .038 0 .077-.0192.116-.0384 .039 0 .098-.0191.137-.0191m.661-1.0162l-.739.0576c-.098 0-.234.0383-.312.0575 -.116.0383-.155.0383-.214.0575 -.37.115-.778.2492-1.206.4026 -.37.1342-.74.2493-1.11.3643 -.428.1342-.876.23-1.304.3451 -.506.115-.992.2492-1.479.4026 -.954.2876-1.226.4026-1.421.5176l-1.985 1.2079 2.277.5368h.117l.195.0384c.622 0 3.191-.441 4.554-.8053 .856-.2492 1.304-.4218 2.316-1.1311 .117-.0767.253-.1726.409-.326l.486-.5176 -.35-.5943 -.214-.5752 -.02-.0384Z"/><path d="M131.927 16.4568s.078 0 .136.0192c.078.0191.117.0766.117.0766s0 .0192 0 .0384c.058.0767 0 .1534 0 .2301 0 .1533.273.0766.273.2492 0 .1534-.078.2109-.429.3643 -.798.3642-3.542 1.4954-3.834 1.5337 0 0 0-.0191-.019-.0191 .175-.4218.467-.5369 1.362-.8628 .72-.2684 1.129-.9394 1.732-1.3612 .175-.115.312-.1917.429-.2301 .097-.0383.175-.0575.233-.0575m0-.9586c-.214 0-.37.0575-.506.0959h-.039l-.058.0383c-.137.0575-.37.1534-.604.3451 -.292.1917-.545.441-.759.6519 -.272.2684-.486.4793-.739.5751 -.954.3451-1.596.5752-1.927 1.3996l-.311.7861 .661.3642 .312.2493 .408-.0576c.584-.0766 3.932-1.5337 4.126-1.6104 .331-.1534.935-.4218.993-1.1887 0-.1534-.019-.4985-.272-.7669V16.15l-.292-.2684c-.137-.1534-.331-.2684-.526-.3259 -.136-.0384-.272-.0575-.409-.0575l-.058-.0192Z"/><path d="M136.501 13.8684s0 0 .019 0c-.019.0575-.039.0767-1.985 1.0353 -.506.2492-.915.441-1.109.441 -.02 0-.059 0-.059 0s-.214-.2109.428-.5369c.565-.2684 2.511-.8819 2.531-.8819 .058 0 .116-.0383.175-.0383m0-.9586c-.175 0-.331.0383-.409.0575h-.039l-.078.0383c-.934.3068-2.141.6902-2.608.9203 -.233.115-.895.441-.992 1.112 -.059.3643.058.7094.311.9586l.097.0959 .137.0575 .214.0958h.292c.408 0 .817-.1917 1.537-.5368 1.479-.7285 2.284-1.2078 2.414-1.4379l.661-1.2462 -1.42-.1534h-.059 -.078l.02.0384Z"/><path d="M147.127 10.1871s.117 0 .156 0c-.233.3068-.623.4027-.856.6902 .097.4027-.351.4793-.526.7286 .117.0958.253.0575.37.0767 -.019.115-.019.1533-1.168.6902 -.136.0575-.292.1342-.428.2109 0 0 0 .0383.02.0575 .402.0894.616.147.642.1725 0 0-.117.0959-.175.1151 -.818.4026-1.733.5176-2.569.8819 -1.343.5943-2.531 1.4762-3.912 1.9747 -.565.2109-1.188.0767-1.752.2301 -1.148.3259-1.382.3834-1.46.3834 0 0-.019 0-.039 0 -.214-.0958-.175-.6902.331-.9969 .136-.0959.72-.3451 2.959-1.0545 .817-.2684 1.089-.3451 1.342-.4985 0-.0383.02-.0575.02-.0958 -.078-.0384-.175-.0576-.273-.0576 -.214 0-.525.0767-1.089.2493 -.176.0575-1.596.4601-1.966.4601 -.039 0-.059 0-.078 0 0 0 .778-.8627 2.316-1.2078 .448-.0959 1.479-.326 1.849-.6327 -.214.0383-.428.115-.642.115 -.039 0-.078 0-.117 0 .486-.3067 5.547-2.1856 6.929-2.5307 .019 0 .058 0 .077 0m0-.9587h-.253c-1.342.345-6.617 2.2431-7.298 2.6841l-.545.3451s-.156.0383-.234.0575c-1.926.4218-2.861 1.5338-2.861 1.553l-.583.7093s-.078.0384-.117.0575c-.584.3643-.954 1.0162-.895 1.6297 .038.4601.291.8627.681 1.0353l.194.0767h.253c.143 0 .72-.1406 1.733-.4218 .155-.0384.35-.0575.583-.0575 .351 0 .779-.0384 1.227-.1918 .856-.3067 1.634-.7477 2.393-1.1695 .545-.3067 1.051-.5943 1.577-.8244 .311-.1342.681-.23 1.051-.3451 .506-.1342 1.031-.2876 1.557-.556 .058-.0383.272-.1342.448-.3067l.661-.671 -.116-.1151c.369-.23.564-.4601.622-.8436l.059-.3451s.039-.0958.058-.1533c.214-.1342.487-.3068.72-.6135l1.129-1.51464h-2.082l.038-.0192Z"/><path d="M139.109 20.5784s.019 0 .039 0c.019 0 2.51.1533 1.498 1.1311 -3.717 3.6427-17.769 5.0615-17.905 5.0615 -.039 0-.059 0-.098 0 -.369 0-.7-.0959.429-1.3804 .622-.7094 1.596-.9395 2.277-1.5721 .058-.0576 1.187-1.4763.837-1.6872 -.02 0-.078-.0192-.137-.0192 -.311 0-1.012.2301-1.537.4218 -.565.1918-.584.1918-.857.1918 0-.2685 1.09-1.4188 1.441-1.553 .428-.115 1.09-.1917 1.284-.2109 .078 0 .175 0 .253 0 .487 0 .954.115 1.44.115 .098 0 .195 0 .292 0 .545-.0575 1.032-.3834 1.596-.3834 .02 0 .059 0 .078 0 .253 0 1.363.7285-.895 1.3612 -.428.1151-.623.1917-.74.3068 -.194.23.39.9969 1.246.9969 .175 0 .37-.0383.584-.115 1.304-.5176 7.532-2.6266 8.894-2.6266m0-.9586c-1.304 0-5.488 1.3612-7.785 2.1665 .136-.2301.195-.4793.156-.7861 -.097-.7861-.895-1.2654-1.421-1.2845h-.019 -.098c-.486 0-.875.1342-1.206.2492 -.195.0575-.37.115-.506.1342 -.059 0-.117 0-.176 0 -.194 0-.389-.0192-.583-.0575 -.273-.0384-.565-.0767-.837-.0767 -.117 0-.234 0-.351 0 -.233.0192-.953.115-1.42.2492h-.059l-.058.0384c-.448.1725-2.083 1.5338-2.044 2.4732l.039.9586h.973s.137-.0383.195-.0383c0 0-.02 0-.039 0 -.487.2684-1.032.5751-1.479 1.0736 -.681.7669-1.265 1.5338-.915 2.2815 .117.2492.428.671 1.207.671h.117c.116 0 14.519-1.3804 18.567-5.349 .701-.6902.545-1.3421.428-1.5913 -.486-1.1695-2.53-1.1695-2.627-1.1695l-.039.9586v-.9586l-.02.0575Z"/><path d="M305.748 32.3691c1.713.5944 2.569 2.3774 4.282 2.9717 -.545-.6263-.896-1.1247-1.051-1.4954 .37.115 5.313 2.339 5.761 3.3935 -.253-.0767-.565-.1726-.798-.2684 2.705 1.8021 3.386 2.0706 3.756 2.2048 .097-.0767.214-.1534.292-.2301 1.129.671 1.382.8627 1.81 1.2078 -.214-.0958-.526-.2109-.759-.2875 .428.3834.856.786 4.905 3.2017 5.624 3.3551 14.188 10.6406 14.908 11.9251 -3.056-1.3804-5.274-3.9495-8.097-5.675 5.625 4.4096 10.374 9.797 15.94 14.2642 .078-.0576.214-.1343.312-.2109 -1.304-1.3038-2.998-2.2432-3.932-3.9303 .565.4026 1.071.8435 1.674 1.1886 -3.328-3.3934-3.445-3.566-3.795-4.0261 .311.2684.603.5368.915.8052h.019l7.98 7.9948c7.473 7.9373 7.707 8.244 19.774 24.4637 2.822 4.1412 6.208 9.912 8.855 14.1685 -1.888-2.627-4.301-4.7933-7.318-6.6913 3.231 2.0322 5.43 4.2183 7.318 6.6913l6.871 13.248c3.075 6.537 4.106 8.781 6.383 15.357 -.019-.039-.058-.058-.077-.096 .064.677 2.244 8.014 6.539 22.009 0 0-.078-.134-.097-.191 2.627 15.433 2.744 16.124 4.087 20.495 .214 1.419.447 2.933.681 4.582 .564 5.483.837 12.845 1.148 18.367 .039 5.387-.35 12.423-.603 18.06 0-.287 0-.594.019-.901 -.447 6.519-.759 8.934-.992 10.851l-.584 4.199 -.097.671c-.098.595-.253 1.4-.37 1.994 .058-.326.117-.748.175-1.074 -.169.972-2.037 5.241-5.605 12.807 -.292-.057-.487-.095-.681-.095 -.429 0-.857.191-2.239.843 -.584-18.175 4.71-36.369-.292-54.526 -.155.652-.583 1.515-1.109 1.937 -.337-2.314-.668-3.72-.993-4.218l2.044 24.061c.681 7.631-.817 15.223-.662 22.834 .059 2.934.74 5.848.39 8.8 -.623 5.317-.785 8.174-.487 8.57 1.032-.211 1.518-.326 1.907-.326 .37 0 .662.096 1.207.269 -1.479 4.984-7.435 17.715-11.872 22.565 -2.822 2.953-12.34 13.21-15.123 19.901 -.7 1.668-7.376 15.127-14.558 21.914 -3.016 2.837-7.084 4.179-10.14 6.959 -2.666 2.435-4.145 5.771-6.637 8.321l-11.035 8.666 -8.719 6.058c-1.83 1.227-6.832 4.582-11.717 4.582 -.914 0-1.829-.115-2.724-.383 1.245-2.78 1.907-3.451 3.094-4.678 1.771-1.783 2.083-2.109 13.079-21.396 2.822-4.947 3.172-10.852 6.228-15.721 3.289-5.234 8.058-9.471 10.549-15.223 5.41-12.52 4.087-18.233 3.133-22.393 -.415-1.764.714-5.726 3.387-11.887 .662.115 1.323.249 1.966.364 13.896 2.589 23.141 5.1 29.641 8.225 -6.598-3.163-15.628-5.598-29.641-8.225 -.643-.115-1.304-.249-1.966-.364 .96-2.211 1.051-4.467.272-6.768 -1.751-.537-3.775.115-5.332-1.208 -1.596-1.361-.429-3.776-2.044-5.119 -.214-.191-.564-.421-.856-.46 -1.129-.115-2.258-.172-3.367-.172 -7.766 0-15.24 2.588-22.927 3.297 0 0-.039 0-.059 0 -1.888 0-11.074-8.665-12.32-11.196 -2.958-6.097-6.422-11.964-8.933-18.29 -1.674-4.218 3.601-5.944 3.542-9.587 -.078-4.332-3.055-8.071-2.666-12.519 0 0 9.731-16.622 11.035-18.731 .448-.71 4.107-3.509 6.248-4.525 1.583-.754 2.53-4.026 2.841-9.816 .039-.805-.175-1.994.292-2.646 1.538-2.243 4.652-2.205 6.306-4.256 1.323-1.649.292-3.988 1.654-5.617 .234-.288.623-.576.915-.806 0 0 .02 0 .428.269 1.538 1.821 2.336 2.3 3.367 2.3 .467 0 .973-.095 1.616-.23 .136 0 .272 0 1.07.077 1.012.345 1.985.479 2.958.479 4.886 0 9.304-3.7 14.189-3.7 1.07 0 2.16.173 3.289.614 .331-.556.915-1.208 1.382-1.668 2.978.671 4.379.997 5.235.997 .759 0 1.11-.25 1.732-.729 1.012.537 1.343.709 3.017 1.802 .428 5.432.363 8.583-.195 9.452 -.35.556-.817 1.572-.467 2.128 1.09 1.802 16.446 15.549 17.906 16.603 .292-.115.662-.268.954-.383 .895-2.339-.137-5.004 1.167-7.285 6.988.115 6.384 9.701 13.079 10.18 .39-.403 1.168-.69 1.713-.709 .642 1.936.973 2.377 2.997 2.53 1.538-3.719 1.421-5.847.662-19.632 -.545-.211-1.226-.671-1.654-1.093 -.059.595-.234 1.4-.448 1.975 -1.713-1.035-2.219-3.068-3.698-4.295 0 .288.02.691.039.978 -.214.211-.486.499-.701.709 -4.554-3.776-5.469-10.563-5.955-14.206 -.273-.077-.642-.192-.934-.269 -.02-.651.019-1.552.136-2.204 1.207-.595 2.725-.019 3.834-.959 -.409-.383-.817-1.074-.934-1.61 .584.134 1.382.345 1.946.536 .389-.421.701-1.188.74-1.744 .428-.115.798-.154 1.148-.154 3.717 0 3.815 5.637 6.578 7.458 .253-.134.623-.345.876-.479 .234-7.266-5.449-12.021-7.96-18.118 .175-.249.409-.575.584-.824 -.532-2.045-.98-3.355-1.343-3.93 .156-.269.35-.652.506-.921 -.35-.939-.603-1.457-1.479-1.457 -.214 0-.487.039-.798.096 -1.032 2.895 4.165 6.404.681 8.398 -.817-1.132-1.265-2.493-2.199-3.528 .22-1.291.233-2.358.039-3.202 -1.071-.633-1.441-.901-2.355-1.955 .116-.269.292-.614.408-.882 -.292-.135-.7-.211-1.09-.211 -.272 0-.545.038-.759.115 -.895 7.113 4.263 13.267 3.29 20.399 -.312 0-.721.038-1.051.058 -.195.575-.545 1.322-.857 1.859 -.623-2.281-3.6-4.026-5.021-4.333 -.519.384-.247 3.183.817 8.398 .487 2.415 1.46 4.735 1.479 7.228 0 .613-.058 1.438-.136 2.051l-4.671-10.525c-2.919-8.283-4.398-12.45-4.437-12.501l-14.733-17.044c-.545.211-1.188.729-1.48 1.227 6.501 13.076 8.428 13.919 10.861 14.993 -.078.287-.156.69-.234.978 3.464 4.09 5.3 6.652 5.508 7.688 -.409-.518-.915-1.227-1.324-1.745 -.292.077-.681.173-.973.249 -.013.793.299 2.295.935 4.506 -.76 1.208-1.071 2.626-1.888 3.815 -.292-.038-.662-.096-.954-.134 -.331 1.725.759 3.374.214 5.119 -.019 0-3.951-3.355-5.216-5.483 6.462-.882 6.987-.959 5.858-4.621 -1.518-4.851-16.835-22.201-16.971-22.316 -.856-.729-1.577-1.036-2.238-1.036 -1.499 0-2.589 1.649-3.834 3.816 -1.499 0-2.803-1.592-4.263-1.592 -.447 0-.934.154-1.421.556 -.324.269-.506 2.314-.545 6.135 -4.515 1.745-4.612 1.783-6.364 8.896 1.635 2.55.876 6.327-2.16 6.711l-10.977 3.585s-.039-.058-.817-3.183c-.974-.211-1.694-.307-2.725-.307 -1.09 0-2.53.115-4.963.288 .078-.332.324-2.32.739-5.963 -2.316-.671-3.055-18.367-3.055-18.539 -.448-.479-.973-1.208-1.304-1.764 6.714.671 13.215 2.665 19.949 3.125 .078-.134 2.355-14.456-12.125-18.424 .253-.173.584-.403.837-.575 -.604-.537-1.421-1.228-2.025-1.745 .117-.288.292-.652.429-.92 1.609.038 2.913.377 3.912 1.016 .661-.154 1.498-.46 2.121-.729 .097-.307.234-.69.311-.997 -.408-.537-.895-1.2843-1.226-1.8595 1.343.9775 1.849 1.3425 4.924 1.4765 .273-.5946.448-1.4765.467-2.1283 .721-.2301 1.635-.6711 2.258-1.0929 -.765-1.8533-1.155-2.8311-1.168-2.9333 1.129-.4218 1.421-.5177 2.628-.5177 .409 0 .895 0 1.576.0192 .156-.2684.37-.6327.526-.9011 -1.071-2.9333-1.382-4.5438-1.538-5.4065 .662-.6327.818-.7861 2.238-.7861 .468 0 1.051 0 1.849.0384 .176-.2493.409-.5752.604-.8244 .603-.0959 1.421-.2301 2.024-.326 .856-.1534.895-.1917 1.031-.3451 -.039-.0767-.077-.2684-1.245-1.5721 -2.861-3.2593-6.89-10.1996-7.124-10.8323 -.506-1.4187 2.258-1.4954 2.686-1.4954 .02 0 .039 0 .059 0 1.09.115 2.569 4.1795 2.53 5.1573 -.097 2.339 1.849 5.0615 3.503 6.9212 2.005 2.2623 2.375 2.5115 2.997 2.5115 .078 0 .156 0 .253 0 .137 0 .253 0 .37 0 2.122 0 3.328.8819 3.795 1.227l-2.919-.4984c1.674.3451 3.27.786 4.515 1.4954 .253-.1534.584-.3451.837-.4985 .02-.3067.039-.4601.993-.4601 .817 0 2.316.0958 5.118.2876h.039s-.155-.1918-.214-.2876c.175-.4026.234-.8436.409-1.2462 .117-.0192.175-.0383.311-.0383 .195 0 .506.0191 1.265.0958 .117-.9778-1.634-3.2017-1.985-3.6427 -.272-.3259-2.861-5.0039-2.88-5.0423 .078-.115.156-.2492.233-.3643 .059 0 .137 0 .195 0 2.141 0 2.336 2.9142 4.418 2.9909 -1.693-3.336-4.807-5.5408-6.987-8.4933 2.005.2493 3.834 1.0737 5.741 1.6105 -.233-.3643-.506-.7094-.7-1.0928 .097-.0575.233-.1342.311-.1918 .526.1918.993.4985 1.577.5944 -3.309-2.9909-8.291-2.5307-11.581-5.5408 -2.504-2.3006-5.086-6.3651-7.746-12.1935 .117 0 .292-.0192.428-.0383 -.369-1.0353-5.508-4.3905-7.026-4.8889 -.058.0958-.136.2109-.214.3067 .078.1534.156.3643.234.5177 .078.1661 1.492 1.6552 4.243 4.4671 1.576 1.6105-.195 3.7577.876 5.4641 1.868 2.978 3.49 4.9144 4.865 5.8091 2.978 1.9364 3.095 2.3199 3.056 3.336 -1.148 1.0545-1.674 1.5338.603 5.7133 .993 1.8214.837 5.8092.526 6.3843 -1.577 0-2.453-1.4379-3.348-2.9525 -1.927-3.1826-12.203-13.2671-12.69-13.5931 .448 1.4571 1.363 4.448-.486 5.2916 -.487.2109-.973.3259-1.44.3259 -5.294 0-10.53-12.0593-10.588-12.1935 -.467-1.0928-.467-1.3996.37-1.9939 1.557-1.0992 2.523-3.0356 2.9-5.8092 .019-.1725.136-1.7255-2.822-6.231 -.039-.0575-4.01-6.9595-4.185-8.1865 -.065-.5496.11-1.2653.526-2.1473 -.331-.7668-1.188-1.1119-1.499-1.898m96.613 181.963c.077-.639.181-1.681.311-3.125 -.195 4.55-.162 7.1.097 7.65 .292-1.016.39-1.438.681-4.007 .137-6.289-.233-17.236-1.109-18.54 -.311 1.879-.525 3.221 0 18.022m1.071 1.553s0 .058 0 .077c0-.019 0-.058 0-.077Zm-99.357-185.242l.837 1.9939c.233.5752.642.9586.973 1.2845 .117.1151.233.2109.311.326 -.447.9778-.506 1.2462-.389 2.2048 .195 1.4954 4.262 8.4933 4.321 8.5508 2.744 4.1603 2.685 5.5982 2.685 5.6174 -.35 2.4924-1.187 4.2051-2.51 5.1382 -1.44 1.0353-1.207 1.9555-.701 3.1442 .059.1342 5.43 12.7878 11.483 12.7878 .642 0 1.265-.1342 1.849-.4026 1.382-.6327 1.732-1.9747 1.654-3.3168 .701.6902 1.518 1.5146 2.394 2.3966 -.973 0-2.686.1533-3.406 1.1503 -.331.4601-.408 1.0353-.194 1.6296 .292.8436 4.418 7.8606 7.298 11.1582 .136.1534.273.3068.37.4218 -.526.0959-1.129.1918-1.615.2684l-.39.0576 -.233.3259 -.292.4026c-.545 0-.993-.0192-1.363-.0192 -1.673 0-2.082.2684-2.919 1.0737l-.37.3642 .098.4985c.155.8436.447 2.3965 1.44 5.1382 -.409 0-.72 0-1.012 0 -1.382 0-1.771.1533-2.959.5751l-.7.2493 .078.7285c.019.2492.019.2876.914 2.4349 -.447.23-.934.4409-1.343.5751l-.661.2109v.6902c-.02.3643-.098.7669-.195 1.1504 -2.141-.1534-2.55-.441-3.659-1.2462l-3.6-2.5883 2.16 3.8153c.253.4601.642 1.0357 1.012 1.5717v.058l-.039.057c-.35.135-.778.288-1.168.403 -1.343-.824-1.654-.863-4.048-.939h-.642l-.273.556 -.155.326c-.098.21-.195.441-.292.613l-.292.652 .525.46 1.09.959 -1.499 1.054 1.966.537c11.736 3.221 11.775 13.516 11.542 16.469 -3.251-.288-6.501-.92-9.654-1.534 -3.036-.594-6.189-1.208-9.361-1.515l-1.888-.191 .934 1.61c.311.556.759 1.17 1.187 1.668 .078 2.531.603 15.587 2.997 18.54 -.564 4.889-.564 4.946-.661 5.387l-.292 1.265 1.323-.095c2.375-.192 3.815-.288 4.885-.288 .701 0 1.246.038 1.908.173 .661 2.703.681 2.703.798 2.895l.408.613 .701-.23 10.899-3.566c1.46-.211 2.589-1.055 3.231-2.397 .778-1.629.662-3.7-.273-5.387 1.538-6.25 1.616-6.288 5.683-7.861l.604-.23v-.651c.039-3.26.058-4.966.175-5.369l.039-.038c.37-.307.642-.345.798-.345 .467 0 1.031.326 1.615.671 .759.441 1.616.939 2.628.939h.564l.273-.479c.953-1.687 1.985-3.317 2.977-3.317 .429 0 .973.269 1.596.805 .857.921 15.298 17.428 16.68 21.857 .175.556.584 1.879.37 2.205 -.312.479-2.569.786-5.431 1.188l-1.44.192 .74 1.246c1.304 2.186 5.294 5.675 5.605 5.848l1.032.536 .35-1.092c.37-1.151.156-2.243-.039-3.221 -.078-.384-.136-.748-.175-1.093l.506.057 .331-.498c.486-.709.798-1.476 1.109-2.205 .253-.594.487-1.15.798-1.668l.214-.364 -.117-.403c-.408-1.38-.622-2.147-.759-2.684 .137.192.273.364.409.518l2.589 3.355 -.857-4.122c-.37-1.764-.37-1.783-5.41-7.746 .039-.191.097-.364.116-.517l.176-.767 -.74-.326c-2.219-.978-3.99-1.745-10.101-13.977 .039-.038.078-.076.136-.115l14.091 16.316c.175.479 1.012 2.837 4.36 12.308l4.69 10.603 1.382 3.144 .467-3.394c.097-.651.156-1.495.156-2.166 0-1.802-.467-3.47-.915-5.1 -.214-.805-.428-1.553-.584-2.32 -.798-3.911-1.265-6.192-1.304-7.055 1.324.537 3.212 1.898 3.62 3.413l.156.594v.096c-.136.748-.175 1.687-.156 2.377l.039.69 .662.192 .331.096c.525 3.873 1.615 10.372 6.208 14.187l.682.576 .622-.633 .351-.345 .058-.058c.117.173.234.345.35.537 .604.92 1.265 1.956 2.414 2.627l1.012.594 .409-1.093c.077-.192.136-.402.194-.613 0 0 .039 0 .039.019 .662 12.251.798 14.877-.35 18.003 -.837-.135-.973-.422-1.421-1.803l-.234-.671h-.72c-.661.039-1.42.307-1.985.691 -2.53-.346-3.776-2.32-5.196-4.602 -1.616-2.569-3.465-5.483-7.552-5.56h-.584l-.292.499c-.837 1.476-.856 2.971-.856 4.429 0 .92 0 1.802-.234 2.607 -2.997-2.435-16.368-14.571-17.224-15.99 0-.096.136-.613.467-1.112 1.012-1.591.993-1.744.35-10.046l-.039-.46 -.389-.249c-1.693-1.093-2.063-1.304-3.075-1.822l-.545-.287 -.506.364c-.603.46-.72.537-1.148.537 -.759 0-2.18-.326-5.022-.959l-.506-.115 -.369.365c-.312.287-.72.728-1.09 1.207 -.954-.287-1.908-.421-2.92-.421 -2.627 0-5.079.977-7.454 1.917 -2.296.92-4.476 1.783-6.734 1.783 -.915 0-1.771-.134-2.627-.441l-.117-.038h-.117c-.856-.077-.993-.096-1.148-.096h-.098l-.097.019c-.584.115-1.051.211-1.421.211 -.545 0-1.09-.154-2.627-1.975l-.078-.096 -.097-.077c-.487-.345-.643-.441-.993-.441h-.37l-.272.25s-.156.134-.234.191c-.253.211-.545.461-.778.729 -.876 1.054-.973 2.281-1.051 3.355 -.078.901-.136 1.687-.603 2.282 -.643.805-1.635 1.246-2.706 1.725 -1.265.575-2.705 1.208-3.659 2.588 -.506.729-.486 1.707-.447 2.493 0 .23 0 .441 0 .632 -.286 5.407-1.045 8.404-2.278 8.992 -2.102.997-6.013 3.892-6.656 4.889 -4.437 7.036-11.191 18.942-11.191 19.23 -.233 2.511.584 4.831 1.363 7.074 .642 1.86 1.265 3.605 1.304 5.464 .019 1.247-.818 2.301-1.733 3.413 -1.284 1.61-2.9 3.604-1.751 6.499 1.654 4.199 3.776 8.244 5.8 12.175 1.051 2.013 2.141 4.103 3.153 6.192 1.148 2.378 10.568 11.734 13.195 11.734h.137c3.289-.307 6.558-.959 9.711-1.572 4.282-.844 8.72-1.726 13.118-1.726 1.11 0 2.219.058 3.27.173 0 0 .117.057.35.23 .487.402.584.997.701 1.936 .117.997.272 2.243 1.343 3.164 1.226 1.054 2.627 1.112 3.873 1.169 .467.019.915.038 1.343.115 .817 2.492.798 2.742-.253 5.196l-.175.383 -.467 1.093c-3.562 8.263-3.621 8.551-2.959 11.369 .934 4.045 2.219 9.567-3.075 21.799 -1.46 3.374-3.698 6.173-6.072 9.145 -1.518 1.898-3.075 3.854-4.399 5.963 -1.654 2.645-2.549 5.579-3.425 8.416 -.798 2.608-1.538 5.062-2.842 7.343 -10.938 19.172-11.23 19.479-12.923 21.204 -1.226 1.247-1.985 1.994-3.289 4.947l-.428.978 1.031.326c.934.287 1.946.441 3.017.441 5.196 0 10.335-3.451 12.261-4.736l8.739-6.058 11.074-8.705 .059-.038 .039-.038c1.206-1.227 2.179-2.646 3.114-3.988 1.09-1.572 2.121-3.068 3.483-4.295 1.421-1.303 3.076-2.262 4.808-3.278 1.829-1.074 3.717-2.167 5.333-3.681 7.356-6.921 14.09-20.553 14.791-22.24 2.725-6.557 12.125-16.66 14.928-19.613 4.593-5.023 10.588-17.888 12.106-22.949l.272-.901 -.895-.288c-.584-.191-.973-.307-1.499-.307 -.331 0-.7.058-1.226.154 0-.748.195-2.397.526-5.33l.311-.134c1.09-.499 1.615-.748 1.83-.748 .097 0 .253.038.467.077l.759.172 .331-.69c4.067-8.627 5.06-10.775 5.43-11.963h.077c.117-.595.273-1.4.37-2.013l.098-.671 .583-4.218c.234-1.879.526-4.142.935-9.951 0-.019 0-.057 0-.076h.039l.116-2.339c.253-5.196.526-11.082.487-15.779 -.078-1.457-.156-2.991-.234-4.601 -.233-4.583-.486-9.759-.914-13.862l-.176-1.227 -.506-3.393v-.077l-.038-.058c-1.149-3.719-1.363-4.658-3.114-14.82l1.771 3.164 -2.628-8.628c-3.114-10.161-4.71-15.376-5.547-18.175l.623.69 -1.537-4.448c-2.297-6.652-3.329-8.876-6.423-15.452l-6.89-13.287 -.039-.077v-.038c-.798-1.246-1.615-2.607-2.491-4.0068 -2.063-3.3744-4.379-7.1896-6.384-10.1421 -12.125-16.3156-12.359-16.6223-19.871-24.5788l-7.98-7.9564 -.078-.0959 -.097-.0767c-.272-.2492-.545-.4985-.837-.7285l-2.277-1.8981c-1.966-2.2815-9.809-8.7616-14.869-11.7717 -.818-.4793-1.48-.8819-2.025-1.227l-2.024-1.6105c-.506-.4026-.798-.6135-1.926-1.2845l-.584-.3451 -.351.2876c-.35-.1726-.914-.4793-1.868-1.0928l-.039-.0959c-.701-1.6105-6.345-3.9303-6.384-3.9495l-1.44-.4218c-.487-.4026-1.051-.786-1.732-1.0353l-2.063-.7285v-.1342Zm35.558 51.9566l.272-.4985c.545-.9586.604-5.2531-.506-7.3046 -1.926-3.5276-1.654-3.7769-.817-4.5438l.292-.2684v-.4026c.078-1.5529-.448-2.1856-3.484-4.1604 -1.258-.818-2.783-2.6585-4.574-5.5215 -.311-.4985-.233-1.1504-.136-1.8981 .136-1.112.312-2.5116-.876-3.7194 -.603-.6327-1.128-1.1695-1.596-1.6296 .74.4984 1.421.9969 1.947 1.4187l.389.8819c3.99 8.7617 4.048 8.9151 7.96 12.5003 1.81 1.668 4.029 2.339 6.189 3.01 .39.1151.779.2493 1.168.3643 -.623-.1726-1.265-.3068-1.927-.3834l-2.238-.2876 1.324 1.8022c.895 1.227 1.965 2.3198 2.977 3.3743 .195.2109.39.4026.584.6135 -.058 0-.136 0-.194 0 -.078 0-.176 0-.273 0l-.486.0383 -.254.4218s-.136.2109-.194.3068l-.37.5368 .35.5368 .195.3451c2.277 4.1028 2.608 4.6013 2.744 4.7739 .604.7477 1.071 1.4379 1.382 1.9939 -.195 0-.311.0383-.448.0767l-.447.115 -.195.4218c-.117.2492-.194.5176-.272.7861 0 .0383-.02.0766-.039.115 -2.161-.1534-3.426-.2301-4.165-.2301 -.545 0-1.479 0-1.83.8052h-.019s-.175-.0766-.273-.115l-.7-.5176c-.526-.3835-1.927-1.4188-4.379-1.4188 -.137 0-.273 0-.429 0 -.077 0-.136 0-.214 0 -.214 0-.642-.3451-2.257-2.1856 -2.18-2.454-3.328-4.678-3.27-6.2501 0-.4602-.35-2.0515-.993-3.4894 2.355 2.4732 4.555 4.9273 5.294 6.1735 .954 1.5913 2.044 3.3934 4.185 3.4126h.584 .019Zm42.662 59.8169c.292-3.508-.739-6.787-1.752-9.95 -.875-2.742-1.712-5.349-1.712-8.072 .778.863 1.226 1.227 2.063 1.764 .156.71.117.921-.136 2.435l-.078.46 .311.345c.467.518.798 1.151 1.148 1.822 .292.537.584 1.112.974 1.649l.506.709 .759-.441c.389-.23.7-.46.953-.729 .857 1.783 1.927 3.451 2.978 5.081 2.18 3.394 4.262 6.634 4.418 10.66 -.584-.69-1.07-1.649-1.518-2.588 -1.012-2.09-2.16-4.448-4.944-4.448 -.447 0-.914.057-1.401.191l-.681.173 -.039.69c0 .211-.078.46-.195.69 -.447-.134-.934-.249-1.323-.345l-.35-.076 .019-.02Zm1.927-16.871c-.097-.288-.136-.556-.156-.805 .098 0 .136.019.136.019 .059.038.156.211.234.402l-.078.154 -.117.23h-.019Zm-3.328 18.443c.156 0 .292 0 .409-.019h.272c.078.211.175.46.311.69 -.214.039-.447.058-.72.058 -.194 0-.408.019-.623.058 .117-.25.253-.518.351-.767v-.02Zm11.249 49.369l.214-.173s.078-.076.137-.115c1.576 6.96 1.732 14.015 1.401 20.994 -.039-.633-.078-1.246-.136-1.879l-1.616-18.827Z"/><path d="M395.451 143.76c.37 1.112.74 2.281 1.149 3.527 2.277 8.072 2.841 10.066 4.359 19.748 -.525-2.588-1.051-5.177-1.401-7.803 .019.057.039.153.058.211l-1.012-4.41c-.058-.249-.136-.575-.194-.824 .155.651.311 1.303.447 1.955 -.992-4.179-1.07-4.505-3.425-12.404m.934-.288l-1.868.556c2.335 7.899 2.432 8.225 3.406 12.366l.681 2.972c.35 2.588.876 5.196 1.382 7.707l.038.153 1.908-.325c-1.538-9.702-2.141-11.83-4.36-19.729l-.039-.115 -1.167-3.566 .019-.019Z"/><path d="M391.773 132.659c.097.115.156.269.447 1.036v-.096l2.083 6.135c0-.039-.039-.077-.039-.134 .214.977.603 1.898.895 2.856 -.116-.249-.194-.498-.292-.747 .214.747.429 1.418.604 2.051 -1.616-4.889-2.745-8.359-3.698-11.101Zm2.53 7.094c.097.268.195.537.272.805l-.272-.805Zm-5.352-12.328l1.907 5.541c.973 2.818 2.18 6.538 3.679 11.082l1.868-.556c-.117-.403-.253-.844-.389-1.285h.058c-.097-.345-.214-.671-.331-.997 -.117-.307-.214-.613-.311-.901h.058c-.097-.307-.194-.575-.292-.863l-2.102-6.135c-.292-.748-.389-.997-.564-1.227l-3.601-4.659h.02Z"/><path d="M400.979 167.016c.545 2.818 1.09 5.636 1.401 8.474 -.058-.23-.117-.422-.195-.633 -.467-3.106-.876-5.675-1.206-7.86m.953-.173l-1.927.326c.292 1.917.643 4.122 1.032 6.749l.175 1.112v.057l.039.058 .039.115c.039.153.097.325.136.498l1.908-.345c-.312-2.953-.896-5.943-1.402-8.57Z"/><path d="M290.1 74.7401s.058 0 .117.0767c.078.0959.253.2684.759.4985 .7.3068 1.44.4793 2.141.7861 .253.115.584.2875.817.4601 .467.3067 1.051.8244 1.265 1.5913 .214.7669-.058 1.3804-.214 1.7446 -.389.8628-.35 1.1504.214 1.9748 .351.4793.662.9394.934 1.6871 .526 1.4571.662 2.4157.351 2.8183 -.526.7286-1.441.4794-2.122.8245 -.584.2875-1.09.6902-1.635 1.0353 -1.401.8819-3.153 1.342-4.379 1.342 -.681 0-1.187-.1342-1.42-.4026 -.37-.4601-.448-.9778-.253-2.0898 0-.0192.545-2.7991 1.304-4.237 .038-.0576.058-.1151.077-.1726 -.583-.1534-1.226-.0383-1.81-.3259 -.739-.3643-.895-.7669-1.012-1.0545 -.136-.8052.195-1.342.506-1.6296 .429-.441.876-.8819 2.745-1.783 .116-.0575.311-.1342.408-.2493 -.408-.0383-.506-.0958-.681-.1917 -2.841-1.5529 1.674-2.6649 1.868-2.7224 0 0 .001 0 .02 0m0-.9586h-.078 -.097 -.097c-1.519.3834-3.348 1.1119-3.523 2.4348 -.078.5177.117.997.525 1.4188 -1.07.5943-1.459.9969-1.81 1.342 -.642.6519-.934 1.5338-.778 2.4732v.0959l.058.0958c.156.3643.409 1.0353 1.479 1.553 .292.1342.565.2109.837.2492 -.584 1.5913-.954 3.4894-.954 3.5085 -.194 1.1312-.194 2.0131.468 2.8184 .428.4984 1.148.7477 2.179.7477 1.557 0 3.484-.5752 4.905-1.4955 .195-.1342.389-.2684.603-.4026 .331-.23.643-.4409.954-.5943 .117-.0575.331-.0959.545-.115 .545-.0767 1.362-.2109 1.927-.997 .525-.7285.447-1.8214-.234-3.7002 -.311-.8628-.7-1.3996-1.051-1.9173 -.246-.3451-.292-.6965-.136-1.0544 .175-.4218.564-1.2846.272-2.3774 -.291-1.0544-1.07-1.7446-1.654-2.1473 -.272-.1917-.662-.4026-.934-.5176 -.409-.1917-.818-.3259-1.207-.4601 -.311-.0959-.642-.2109-.934-.3451 -.253-.1151-.389-.2109-.428-.2685 -.136-.1342-.409-.4026-.857-.4026l.02.0576Z"/><path d="M100.553 30.4523c-3.8339 2.4924-4.0285 2.4924-4.2037 2.5116 .1752-.2301 3.7757-2.2815 4.2037-2.5116Zm4.632-3.336l-4.865 2.3774 -.214.115s0 0-.02 0c-.4475.2493-4.1259 2.2815-4.4957 2.7608l-1.2067 1.553h1.9852c.4866-.0192.6617-.0192 4.7292-2.6841l.214-.1342 .039-.0959 3.834-3.9111v.0191Z"/><path d="M378.168 162.97s.156.039 1.032.365c.545.191 1.129.191 1.693.326 .117.038.448.134.74.46 0 0 1.713 2.166 1.732 2.185 0 0 0 .058 0 .077 -.019 0-.058.038-.097.038 -.078.019-.175.039-.292.039 -1.324 0-4.613-1.745-5.138-2.646 -.273-.46-.137-.824.311-.844 0 0 0 0 .019 0Zm0-.958h-.077c-.526.038-.954.287-1.188.709 -.253.46-.214 1.035.098 1.572 .72 1.227 4.359 3.125 5.994 3.125 .214 0 .409-.038.604-.096h.077l.137-.076 .817-.403 -.272-.671V166l-.215-.288c-.038-.058-1.07-1.361-1.518-1.917v-.039l-.253-.268c-.33-.364-.72-.614-1.187-.748 -.311-.076-.584-.115-.837-.153 -.311-.038-.564-.077-.778-.153 -1.11-.422-1.129-.422-1.363-.422h-.039Z"/><path d="M349.734 134.787c.428.039.836.173 1.012 1.342 .116.729.058 1.477.155 2.224 .098.69.37 1.342.467 2.032 .02.192.059.441.039.614 -.039 1.553-1.868 2.224-2.452 2.224 -.039 0-.078 0-.097 0 -.156-.038-.506-.134-.643-.614 -.175-.613.078-1.227-.058-1.84 -.136-.671-.895-.479-1.246-.863 -.506-.537-.428-2.799-.077-3.412 .583-1.055 2.218-1.668 2.88-1.688m.039-.958h-.058c-.857.019-2.9.709-3.718 2.185 -.467.844-.662 3.586.214 4.525 .312.345.701.46.973.537 0 0 .039 0 .059 0 0 .134 0 .287 0 .46 -.02.364-.059.805.078 1.285 .136.479.486 1.092 1.362 1.303 .097.019.214.039.331.039 .954 0 3.367-.94 3.425-3.164 0-.211-.019-.517-.058-.728 -.058-.441-.175-.825-.273-1.189 -.077-.307-.155-.594-.214-.901 -.039-.326-.058-.652-.077-.978 0-.403-.039-.805-.098-1.227 -.194-1.361-.798-2.051-1.868-2.166h-.059l-.019.019Z"/><path d="M335.253 137.836c.195 0 .37 0 .545.019 1.032.115 1.635.402 1.557.728 0 .039-.837.978-.856.978 -.156.134-.253.23-.448.249 0 0-.019 0-.039 0 -.642 0-2.043-.594-2.433-1.035 -.603-.69.623-.958 1.694-.958m0-.959c-1.012 0-2.297.192-2.706 1.054 -.097.23-.292.825.273 1.477 .564.632 2.257 1.361 3.172 1.361h.098c.583-.038.895-.345 1.089-.518 .312-.307.974-.958 1.129-1.457 .078-.345 0-.69-.214-.978 -.35-.479-1.07-.786-2.199-.901 -.214-.019-.428-.038-.642-.038Z"/><path d="M347.534 126.467c.312.211.837 2.435.837 2.454 .312 1.476.662 4.314.292 4.486 -.117-.038-1.732-1.917-1.752-1.936 -.136-.173-.272-.441-.292-.556 -.058-.365.117-.499.273-.652 .253-.211.584-.499.584-1.285 0-.709-.253-1.399-.117-2.109 0-.038.02-.095.039-.134 .019-.153.078-.211.097-.23h.039m.156-1.035l-.37.096 -.35.038 -.253.307c-.156.192-.234.402-.292.652 0 0-.039.115-.039.191 -.097.537-.02 1.055.039 1.515 .039.23.078.479.078.709 0 .345-.078.403-.253.576 -.234.21-.74.671-.604 1.533 .059.403.351.825.506 1.016 0 0 1.635 2.014 2.122 2.224l.408.173 .39-.192c.331-.153 1.323-.613.253-5.541 0 0-.467-2.549-1.265-3.067l-.37-.249v.019Z"/><path d="M389.048 168.319s.097 0 .156.039c.272.115.447.383.681.536 .195.116.409.192.584.192 .272 0 .506-.172.778-.172 0 0 .117.038.117.268 0 .038 0 .096 0 .134 0 .019-.195 2.148-.35 2.301 0 0-.078.019-.136.019 -.292 0-.896-.115-.896-.115 -.097-.019-.292-.115-.486-.345 -.643-.748-.935-2.377-.662-2.722 .039-.039.097-.116.214-.116m0-.958c-.234 0-.662.057-.993.518 -.681.862-.039 3.048.721 3.911 .35.402.72.556.953.632 .253.058.818.154 1.168.154 .136 0 .525 0 .837-.307 .486-.479.603-2.473.623-2.876 0-.077 0-.153 0-.211 0-.824-.506-1.093-.798-1.169l-.137-.039h-.136c-.311 0-.564.077-.72.154 -.019 0-.058.019-.078.038 0 0-.019 0-.058-.038 -.059-.039-.097-.077-.136-.115 -.156-.154-.37-.345-.682-.48 -.194-.076-.369-.115-.545-.115l-.019-.057Z"/><path d="M91.2307 37.1435s.0389.0766.0584.115c-.4023.7413-.7591 1.227-1.0705 1.4571 -2.0436 1.4571-4.2623 2.6457-6.3254 4.0645 -1.1482.786-2.1408 1.7638-3.2891 2.5307 -.0584.0383-.1557.0767-.2336.0959 -.0195-.0192-.0584-.0576-.0778-.0767 -2.2966 1.7446-4.165 4.007-6.8509 5.2531 -.0195 0-.0778-.0383-.0973-.0383 .798-1.6488 1.5765-2.2815 2.5496-3.0675 7.4737-6.0585 12.0604-9.4328 13.7601-10.123 0 0 .1752-.0575.2335-.0766 .0195 0 .0584.0383.0779.0383 -.0519.2428-.253.5113-.6033.8052 .6228-.3259 1.1482-.8244 1.8684-.9777Zm.6422-.9778l-.8369.0383c-.253.0575-.4671.1342-.6812.2109l-.3503-.1917 -.3698.115c-.1167.0384-.253.0767-.3308.1151 -1.7906.7413-6.4616 4.1667-14.0131 10.2762 -1.0316.8436-1.9268 1.553-2.8221 3.3935l-.4282.8819 .9147.4027 .4088.1725 .506-.1534c1.9073-.8819 3.406-2.2239 4.8657-3.5277 .6228-.5559 1.2261-1.0928 1.8489-1.5912 .2141-.0384.4282-.1342.6033-.2493 .6034-.4218 1.1873-.8819 1.7517-1.342 .5255-.4218 1.012-.8244 1.5375-1.1887 .9148-.6327 1.9074-1.227 2.861-1.8214 1.1483-.7093 2.355-1.4379 3.4838-2.2623 .6618-.4793.7396-.6135 1.3624-1.783l.2141-.4026 -.1751-.4218 -.3114-.7285 -.039.0575Z"/><path d="M111.511 25.4483c-1.187 1.227-2.589 2.1665-3.815 3.3551 .973-.556 1.83-1.3037 2.803-1.8597 0 0 .467-.2492.895-.2492 .019 0 .039 0 .078 0 -.078.115-.117.1917-.74.6135 -.019.0192-3.231 2.224-4.087 2.6649 -1.07.556-2.238.8436-3.347 1.2654 0 0-1.791.7477-5.2554 2.6649 -.8369.4602-1.7127.9395-2.0241.9395 0 0 0 0-.0195 0 -.3308-.0384-.3114-.3643.2725-.6327 1.6543-.7285 4.5735-2.224 5.4695-2.8375 -.993.3451-1.48.6135-1.733.7477 -.9533.5177-.9922.5177-1.0896.5177 .5645-.441 1.2846-.6519 1.6936-1.3037 -3.562 1.9364-3.8928 2.1281-3.9512 2.1281 .0778-1.112 8.2712-5.0231 8.3492-5.0423 .584.6327-.837.9011-1.245 1.3612 0 .0192-.059.0575-.078.0767 -.078.0767-.175.1726-.234.2493 .02.0191.039.0383.059.0575 3.055-.7094 3.6-1.7255 3.698-2.1281 .116-.556 4.126-2.5691 4.165-2.6075 .038 0 .097 0 .136 0m2.725-1.4379l-2.881.4793h-.175l-.273.1151c-4.437 2.2623-4.554 2.7991-4.651 3.2209 0 0-.039.115-.273.3067 -.058-.115-.136-.2492-.253-.3834l-.369-.4026 -.545.0958s-9.0116 3.9112-9.1478 5.9242v.0384c-.8953.4985-.8758 1.1887-.8369 1.3996 .0778.5176.506.9011 1.0704.9586h.0584 .0779c.506 0 1.1093-.3068 2.4912-1.0737 2.9588-1.6488 4.6908-2.4157 5.1378-2.6266 .351-.1342.701-.2492 1.051-.3642 .779-.2684 1.596-.5369 2.375-.9395 .953-.4793 4.204-2.7224 4.223-2.7416 .623-.4218.798-.5943.993-.9011l.778-1.3229 -.584-.0383 1.733-1.783v.0383Z"/><path d="M97.0889 36.7985s.0584.1342.0779.2109c.2141.0767.4282.0959.6228.2109 .0973.4218-4.1455 5.5408-4.6321 6.1351 -.545.671-.1168 1.783.9147 2.3774 .1557.8052-.8369 1.7063-.8369 1.7063 -.1362.0958-.2335.1342-.4865.1342 -.0779 0-.1557 0-.253 0 -.0195 0-.0584 0-.0779 0 -1.304 0-3.1529 1.3804-3.3476 2.0131 1.5181-.8053 1.7711-.9395 1.9268-.9395 .039 0 .0584 0 .0973 0 0 0-.0194.0384-.0973.1151 -1.2845 1.4059-2.582 2.3262-3.8925 2.7608 0 0-2.102-.441-2.3744-.6902 .0259-.0639.1232-.2621.2919-.5944 0 0-.0778-.0575-.1168-.0767 -.5644.2109-.9731.5369-1.9852 1.3421 -3.114 2.4732-8.6219 4.8889-9.3226 4.8889 .3504-.6327 1.0316-1.0353 1.2846-1.7255 -.0195-.0383-.0584-.0767-.0779-.0959h-.0389c-.4671 0-.8758.3643-1.3624.3643 -.0778 0-.1362 0-.2141-.0192 -.9342-.23-.4282-2.5307 4.8462-4.0836 .798-.2301 2.6859-.8053 4.0872-1.8597 -.1752.0383-.3309.0575-.5061.0575 -.4476 0-.9147-.0959-1.3623-.0959 -.1752 0-.3309 0-.5061.0575 -1.1093.2493-2.0241.9778-3.1335 1.1887 -.0389 0-.0583 0-.0973 0 -.0973 0-.1946-.0192-.2724-.0575 0-.2876.0778-.5177 2.0825-1.7063 1.1872-.7094 1.2066-.7286 1.4013-1.0545 -.1168-.0767-.2725-.1534-.3893-.2109 -.2335-1.1887 9.8481-7.6114 10.6072-7.688 -.8564.9202-2.1215 1.3804-2.8805 2.4157 1.2261-.4602 2.1798-1.438 3.4643-1.8214 .0195.0192.0584.0575.0973.0959 -.2335.4601-.6811.7285-.9536 1.1503 .9731-.2109 1.7127-.8819 2.608-1.2079 .0584.0384.1167.0959.1751.1151 -.2724.671-1.265.9586-1.0315 1.898 2.2966-1.2845 3.6395-3.5852 5.6053-5.2148 0 0 .0389-.0192.0583-.0384m.4671-1.5337l-1.0509.7669 -.0973.0383c-.8175.7094-1.5376 1.4954-2.2188 2.2431 -.3503.3835-.6812.7669-1.0315 1.112l-.1168-.0767 -.1362-.0958 -.4282-.3259 -.506.1917c-.2336.0767-.4282.1725-.6423.2876h-.0195l1.1289-1.2079 -2.5691.2492c-1.2651.1343-9.6924 5.7134-11.0937 7.5922 -.1168.1534-.4671.6135-.3893 1.1695 -.1557.0959-.3503.2109-.5449.326 -2.0047 1.1886-2.5885 1.6679-2.5496 2.569v.5752l.1362.0575c-2.6274 1.1887-3.6006 2.6074-3.5811 3.6619 0 .6519.4087 1.1695.9926 1.3804 -.0195.0383-.0584.0767-.0779.1342l-.7785 1.3996h1.6154c1.0899.0191 6.812-2.5883 9.9454-5.0807 .292-.23.545-.4217.7396-.5751 .798.4601 2.7637.8052 2.8416.8052h.1557l.1557-.0575c2.2187-.7285 2.3355-.8628 4.3012-3.0292 .0973-.115.1557-.1917.2141-.2876l.3114-.556s.1168 0 .1557 0c.1557 0 .253 0 .3309 0 .4476 0 .7396-.0958 1.0704-.3259 .1168-.0575 1.4986-1.2846 1.2262-2.6649l-.0779-.4218 -.3892-.2109c-.4088-.2301-.6034-.556-.6618-.7669 0-.0384 0-.115 0-.1534l.0584-.0767c4.963-6.02 4.8851-6.3268 4.7684-6.8828l-.0973-.4218 -.3893-.2109c-.1168-.0575-.2335-.115-.3309-.1342l-.3503-.9394 -.0195-.0575Z"/><path d="M118.984 63.9078c.253 0 .448.0767.331.4026 -.214.556-1.79 2.2432-2.51 2.2432 -.078 0-.156-.0192-.214-.0767 -.234-.1917-.37-1.1312.175-1.8022 .389-.4601 1.907-.7477 1.926-.7477 .098 0 .215-.0192.312-.0192m0-.9586c-.156 0-.312 0-.448.0384h-.058l-.059.0191c-1.206.2301-2.043.5944-2.432 1.0545 -.876 1.0545-.74 2.5883-.039 3.1442 .214.1918.506.2876.837.2876 1.343 0 3.172-2.1856 3.425-2.8566 .214-.5752.02-.9778-.117-1.1695 -.175-.2301-.506-.5177-1.129-.5177h.02Z"/><path d="M110.946 54.6283s.059 0 .098.0192c.408.23.408.8052.817 1.0353 .642.3834 1.421.3067 2.063.7093 .097.0575.253.1534.331.2301 .642.4985.934 1.2845 1.479 1.8405 .312.326.759.4985 1.09.8244 .195.1726.467.7477.292 1.0928 -.078.1534-.292.2685-.35.2876 -.331.1151-.682.1534-1.012.1534 -.876 0-1.733-.2876-2.589-.2876 -.136 0-.253 0-.389.0192 -1.966.2109-3.659 1.6105-4.652 2.4349 -.7.5751-1.031.8435-1.206.8819h-.039c-.078 0-.098-.0959-.195-.7861 -.065-.4218-.525-.6646-1.382-.7285l2.141-3.4127c.234-.3642.545-.8435.798-1.2078 .078-.1151 2.044-2.8375 2.627-3.1059 .02 0 .059 0 .098 0m0-.9586h-.136l-.215.0383h-.077l-.078.0575c-.701.326-2.005 2.0323-2.997 3.4127 -.253.3643-.584.8627-.837 1.2462l-2.141 3.4318 -.837 1.3421 1.576.1342c.175 0 .37.0191.506.0383 .117.7861.273 1.4763 1.149 1.4763h.194c.448-.0959.779-.3643 1.694-1.112 .914-.7669 2.452-2.0323 4.126-2.224 .097 0 .194 0 .272 0 .35 0 .74.0575 1.129.1342 .467.0767.934.1534 1.46.1534 .486 0 .914-.0767 1.343-.2109 .077-.0192.622-.2301.895-.7477 .409-.8244-.02-1.8214-.487-2.2432 -.194-.1917-.428-.3451-.623-.4601 -.155-.0959-.311-.2109-.408-.3068 -.175-.1917-.331-.4217-.506-.671 -.273-.4218-.584-.8819-1.071-1.2653 -.136-.0959-.311-.2109-.447-.3068 -.448-.2684-.896-.3643-1.304-.4601 -.292-.0576-.545-.1151-.74-.2301 0 0-.019-.0767-.058-.1342 -.137-.2492-.331-.6519-.779-.9203l-.233-.1342h-.351l-.019-.0383Z"/><path d="M113.613 62.9491c.525 0 .467.2876.292.5368 -.584.8819-3.581 2.6841-4.555 2.6841 -.097 0-.175 0-.233-.0575 -.312-.2109-.214-1.3996.331-1.8214 .914-.7093 3.737-1.3037 3.775-1.3037 .156-.0191.292-.0383.39-.0383Zm0-.9586c-.156 0-.331 0-.545.0575 0 0-3.056.6135-4.204 1.4954 -.662.5177-.895 1.4188-.876 2.0515 0 .7477.311 1.1119.584 1.3037 .214.1533.486.2492.798.2492 1.362 0 4.632-2.0131 5.372-3.1059 .428-.6519.272-1.1503.136-1.3804 -.136-.2301-.467-.6327-1.246-.6327l-.019-.0383Z"/><path d="M106.353 219.49c1.343 0 2.958 1.285 2.997 1.898 .02.556-.642.729-1.362.729 -.72 0-1.596-.173-1.829-.25 -.662-.23-1.266-1.898-.195-2.32 .136-.019.253-.038.389-.038m0-.958c-.214 0-.409.019-.603.057h-.078l-.078.058c-.759.306-1.207.997-1.187 1.859 0 .863.564 1.956 1.421 2.263 .369.134 1.323.306 2.16.306 .895 0 1.518-.211 1.927-.613 .292-.307.428-.69.409-1.112 -.078-1.266-2.258-2.818-3.971-2.818Z"/><path d="M301.038 81.9487c.214 0 .506.0959 1.246.441l-1.363-.0959c-.058-.1917-.078-.3067.117-.3259m-.058-.9586h-.059c-.467.0575-.72.3259-.817.4793 -.292.4218-.175.8436-.117 1.0545l.175.6518 .681.0575 1.363.0959 5.43.4218 -4.963-2.2432c-.818-.3642-1.207-.5176-1.655-.5176h-.058 .02Z"/><path d="M171.475 92.7238s.136.0191.214.0383c.175.5177-.408 1.6296-1.693 3.2784 -.292.3643-.701.8053-.895 1.2079 -.156.2876-.156.3834.155.5368 .565.2876.935.5368 1.343 1.9939 .156.5749.312.8249.798.8249 .156 0 .331-.02.565-.077 1.401-.307 2.16-.46 2.666-.46 .584 0 .798.23 1.265.728 1.674 1.764 3.328 5.119 3.173 7.286 -.098 1.342-1.129 2.933-1.966 3.029 0 0-.039 0-.059 0 -.155 0-.369-.096-.408-.594 -.039-.518-.078-1.285-.487-1.726 -.292-.288-.564-.383-.856-.383 -.526 0-1.071.326-1.616.326 -.019 0-.058 0-.077 0 -.273-.02-.623-.135-.896-.211 -2.316-.633-4.515-.882-7.493-1.112 -3.477-.282-5.294-.46-5.449-.537 -.137-.077-.409-.211-.078-.671 .856-1.189 2.141-2.013 3.055-3.144 1.713-2.148 2.92-4.6593 4.671-6.7874 1.46-1.7638 3.329-3.3359 4.029-3.566 0 0 .02 0 .039 0m0-.9586h-.194l-.078.0192h-.078c-1.09.3834-3.173 2.3198-4.477 3.8919 -.953 1.1503-1.732 2.3965-2.491 3.5852 -.72 1.1307-1.401 2.2047-2.199 3.2017 -.37.479-.837.882-1.324 1.342 -.603.556-1.245 1.131-1.771 1.86 -.292.422-.408.824-.311 1.227 .136.556.584.767.74.843 .259.128 2.192.339 5.799.633 2.939.23 5.08.479 7.318 1.093l.214.057c.273.077.565.154.857.192h.039 .117c.408 0 .759-.115 1.089-.192 .195-.057.409-.115.526-.115 .039 0 .078 0 .156.096 .155.154.194.844.214 1.093 .058 1.055.739 1.515 1.382 1.515h.155c1.44-.173 2.706-2.243 2.822-3.911 .195-2.512-1.635-6.116-3.425-8.014 -.526-.5564-.973-1.0357-1.985-1.0357 -.604 0-1.363.1533-2.861.4793 -.078 0-.137.0191-.175.0383 0-.0383-.02-.0575-.039-.115 -.351-1.2654-.721-1.8597-1.285-2.2623 .097-.1151.195-.2493.292-.3643l.234-.2876c1.596-2.0706 2.14-3.2784 1.849-4.1603l-.156-.4794 -.487-.1533c-.117-.0384-.292-.0959-.486-.0959l.019.0192Z"/><path d="M295.258 63.7163c1.537.0959-.331 2.1281-.312 3.2018 0 .3067.136.4217.584.4217 .37 0 .973-.0766 1.907-.1917 .39-.0575.973-.1342 1.518-.1342 .078 0 .137 0 .215 0 3.328.1342 1.693 5.4833.467 6.5761 0 0 0 0 .019 0 .973.0383 2.9.3067 5.021 1.6488 1.227.7669 1.947 1.9939 2.939 2.9717 2.083 2.0322 4.944 2.895 7.221 4.6396 .506.4027.681.6327.778.7669 0 0 0 .0384 0 .0575 .02.0959-.058.1534-.194.1534 -.292 0-.876-.1917-1.324-.3643 -1.109-.2492-1.381-.3067-1.498-.3067 -.039 0-.059 0-.098 0 -.019.0383-.039.0767-.058.115 0 .0192 1.226 2.5308 3.056 2.5308 .039 0 .078 0 .097 0 .117 0 .214 0 .331 0 .759 0 1.654.2492 2.511 2.4923 .544 1.438-.798 2.7608-.273 4.1987 .234.0767.467.0959.701.0959 .467 0 .934-.0959 1.382-.0959 .467 0 .895.0959 1.304.4985 0 .0384 0 .1151-.059.1534l-4.846 1.6105s-.078 0-.097 0c-2.822.4026-5.683.1917-8.506.5368 -4.106.4985-5.196.6327-5.624.6327 -.156 0-.234 0-.351-.0384 0-.0767-.019-.1725-.038-.23 .7-.7286 1.634-1.1887 2.316-1.9556 .545-.6135.642-1.4763 1.284-2.0514 .331-.2876.584-.5177 1.401-.5177 .02 0 .039 0 .059 0 .136 0 .253 0 .37 0 .681 0 1.109-.0958 1.051-.7477 -.059-.6327-1.577-.7477-2.861-.7477 -.39 0-.759 0-1.032 0 -.175 0-.35 0-.506 0 -2.491 0-2.978-.556-3.056-.7286 -.175-.3642.312-.5943.643-.7477 1.226-.5751 2.082-1.0544 1.888-1.9555 -.351-1.668-2.122-2.4157-2.667-3.9687 .908.0767 1.518.1854 1.83.326 .661.3067 1.459.6902 1.946.6902 .331 0 .506-.1726.389-.6711 -.564-1.1886-1.713-1.9555-2.355-3.1059 -.214-.3642 0-.7477-.058-1.1311 -.448-.3068-.759-.3835-3.153-.997 -1.538-.4026-2.744-.7093-3.776-3.0484 -.506-1.1503 1.207-2.7224-.272-3.5276 -.078-.0384-.156-.0575-.234-.0575 -.311 0-.701.2875-1.109.5943 -1.149.8436-1.81 1.0736-2.2 1.0736 -.097 0-.194 0-.272-.0383 -.428-1.0737.389-2.0514.233-3.0867 -.214-1.2654-1.109-2.3007-1.304-3.5661 -.019-.1342-.097-.3451-.038-.4793 .603-1.4379 4.69-1.5146 4.729-1.5146m.039-.9586h-.039c-.487 0-4.768.0575-5.625 2.109 -.155.4026-.078.7668-.019.9586 .136.8052.447 1.4954.739 2.0897 .253.5177.487 1.0162.565 1.5146 .039.2685-.039.5944-.136.9778 -.176.6327-.37 1.4379-.02 2.3199l.156.4026 .409.1533c.194.0767.389.1151.603.1151 .739 0 1.615-.4026 2.783-1.2654 .117-.0958.273-.2109.409-.3067 0 .1725-.117.4793-.175.671 -.195.6327-.448 1.4379-.098 2.224 1.226 2.7416 2.842 3.1825 4.418 3.5852 1.421.3642 2.063.5368 2.414.6518 0 .2876 0 .6519.214 1.0353 .35.6135.798 1.112 1.226 1.5913 .078.0767.136.1534.214.2301 -.058-.0192-.097-.0384-.136-.0575 -.643-.3068-.798-.3068-2.18-.4218l-1.479-.1151 .486 1.3804c.312.9011.935 1.5721 1.499 2.1473 .545.5752 1.012 1.0737 1.148 1.7063 -.039.2109-.506.4985-1.362.9011 -.35.1726-.954.441-1.148 1.0545 -.117.3259-.098.671.077.9778 .429.8436 1.713 1.2653 3.932 1.2653 .175 0 .35 0 .525 0 .234 0 .487 0 .74 0 -.156.0959-.273.2109-.409.326 -.486.4409-.72.9586-.934 1.3995 -.136.2876-.253.5369-.409.7094 -.292.3259-.661.5943-1.051.9011 -.408.3068-.837.6327-1.226 1.0353l-.311.3259 .058.441v.1342l.039.0959 .078.671 .662.1534c.155.0383.311.0767.564.0767 .506 0 1.401-.1151 5.761-.6519 1.304-.1534 2.666-.1917 3.97-.2301 1.48-.0383 3.017-.0767 4.555-.3067 .058 0 .194-.0192.35-.0959l4.768-1.5913 .273-.0958 .175-.2109c.175-.2109.214-.4218.234-.5177l.175-.556 -.428-.3642c-.526-.5177-1.188-.7669-1.986-.7669 -.272 0-.525.0191-.798.0575 -.136 0-.292.0383-.428.0383 .02-.2684.117-.5751.234-.9586 .233-.7477.506-1.7063.117-2.7224 -.837-2.1473-1.888-3.1059-3.426-3.1059 -.136 0-.253 0-.389 0 -.175 0-.35-.0384-.526-.1151 .137.0192.273.0384.39.0384 .506 0 .798-.2493.914-.4026 .195-.2493.292-.5752.214-.882v-.0958l-.039-.0575v-.1151l-.136-.1533c-.194-.2684-.428-.556-.973-.9778 -1.051-.8053-2.18-1.4188-3.289-2.0131 -1.421-.7669-2.764-1.4954-3.854-2.5499 -.331-.3259-.622-.671-.934-1.0545 -.623-.7285-1.245-1.4762-2.16-2.0514 -1.44-.9011-2.822-1.3612-3.912-1.5913 .681-1.4571 1.109-3.4893.584-4.9081 -.429-1.1503-1.363-1.8213-2.667-1.8597h-.253c-.623 0-1.245.0767-1.654.1342 -.487.0576-.895.1151-1.207.1534 .078-.1534.156-.3259.214-.4601 .39-.8244.779-1.668.331-2.4157 -.175-.2876-.545-.6519-1.323-.7094h-.039 -.039Z"/><path d="M23.5396 115.155c.2725 0 .0778.594.0584.613 -.0389.077-.0584.192-.0973.288 -.2725.729-.6228 1.457-.9148 2.186 -.4865 1.227-.7785 2.511-1.304 3.719 -.0194.058-.0584.134-.1168.173 -.214-.346 1.0316-6.001 2.1409-6.902 .039-.02.1168-.077.1557-.077 0 0 .039 0 .0584 0m0-.959h-.1167l-.1557.039c-.1947.038-.3698.134-.4672.211h-.0389l-.0389.057c-1.2067.959-2.9972 7.132-2.355 8.148l.6034.978 .8563-.767c.2141-.192.3114-.403.3698-.537 .2919-.69.5255-1.399.7396-2.109 .1752-.556.3503-1.092.5644-1.629 .1168-.307.253-.614.3893-.921 .1751-.421.3697-.843.5254-1.284 .0195-.058.039-.134.0584-.192l.039-.096c.0778-.23.2724-.882-.0584-1.399 -.1947-.307-.545-.499-.9342-.499h.0194Z"/><path d="M256.994 38.9647c.934 0 1.538.7669 2.336 1.0928 1.167.4601 2.432.1726 3.62.4985 .136.0383.311.0958.447.1534 .798.3067 1.46 1.0736 1.694 1.4762 .019.0575 0 .1534 0 .2301 -.098 0-.156 0-.215 0 -.116 0-.155.0192-.233.115 .156.5177.642.8819.759 1.4188 .195.8244-3.776 3.681-6.403 4.3137 -2.881.6902-3.406.7094-3.757.7094 -.019 0-.038 0-.058 0 -.117 0-.253 0-.37 0 -1.031-.0575-2.004-.5177-3.055-.5944 -.098 0-.195 0-.312 0 -.408 0-.953.0576-2.063.1726 -.895.0959-1.44.1342-1.81.1342 -.545 0-.681-.0767-.837-.2109 0-.9586 0-1.3421-1.109-1.6488 -.156-.0384-.312-.0575-.467-.0575 -.506 0-1.032.1534-1.518.1534 -.428 0-.837-.1151-1.207-.556 2.005-1.6297-1.187-2.895-2.647-2.895 -.117 0-.214 0-.311.0191 -.448.0767-1.09.1726-1.596.1726 -.312 0-.565-.0384-.701-.1342 .623-.9011 2.16-.7094 2.472-1.9748 -.487-.6518-1.577-.4601-1.888-1.342 .272-.2109.701-.3068 1.226-.3068 1.616 0 4.068.9395 4.768 2.2624 .409.7668 2.9 2.7991 3.231 2.9141 1.071-.8436.195-1.9555.409-2.9141 .078-.0576.214-.1343.292-.1918 .136-.0767.272-.0958.389-.0958 .331 0 .662.1533.993.1533 .136 0 .272-.0191.389-.0958 .545-.3068.039-1.1503.74-1.3804 1.09-.3643 2.257-.3068 3.347-.556 1.129-.2684 2.219-.7285 3.348-.997 .039 0 .058 0 .097 0m0-.9586h-.136 -.097 -.098c-.603.1726-1.168.3451-1.712.5369 -.565.1917-1.09.3642-1.616.4793 -.409.0958-.856.1342-1.323.1917 -.682.0767-1.402.1534-2.122.3834 -.837.2876-1.012.997-1.07 1.3804 -.195-.0575-.448-.115-.72-.115 -.312 0-.623.0767-.876.2301l-.117.0766 -.214.1342 -.331.2109 -.078.3835c-.117.5368-.039 1.0161.039 1.4571 0 .0575 0 .0958.02.1342 -.74-.6135-1.713-1.4955-1.888-1.8214 -.973-1.8022-3.893-2.7799-5.644-2.7799 -.779 0-1.382.1725-1.83.5176l-.545.4218 .234.6327c.272.7477.837 1.0928 1.304 1.2845 -.059.0192-.137.0575-.214.0959 -.506.2109-1.129.4793-1.557 1.0928l-.526.786 .779.5369c.292.2109.7.3067 1.265.3067 .584 0 1.304-.0958 1.79-.1917 .039 0 .078 0 .136 0 .935 0 2.2.5943 2.317.9203 0 0-.098.115-.292.2875l-.74.6136 .603.7477c.506.6135 1.168.9202 1.966.9202 .331 0 .642-.0575.915-.0958 .214-.0384.409-.0767.603-.0767 .078 0 .156 0 .195.0192 .311.0958.409.1533.409.1533 0 .0384 0 .326 0 .5752v.441l.35.2875c.389.326.778.441 1.46.441 .428 0 1.012-.0383 1.926-.1342 1.051-.115 1.596-.1534 1.966-.1534 .078 0 .156 0 .234 0 .428.0192.875.1342 1.343.2684 .544.1342 1.109.2876 1.732.326 .136 0 .292 0 .428 0 .525 0 1.09-.0192 4.068-.7286 2.179-.5176 7.571-3.5277 7.103-5.4641 -.058-.2684-.175-.4984-.291-.6902v-.6135c0-.0958.019-.2875-.039-.4984l-.039-.0959 -.059-.0959c-.272-.4601-1.07-1.4571-2.18-1.898 -.175-.0575-.389-.1342-.544-.1917 -.643-.1726-1.246-.1918-1.849-.2301 -.604-.0192-1.188-.0575-1.674-.2492 -.195-.0767-.428-.2301-.642-.3835 -.526-.3451-1.168-.7669-2.064-.7669h-.058Z"/><path d="M102.577 203.347c3.426 0 5.372 1.323 6.112 1.84 .097.058 9.264 10.468 9.205 10.909 -.038.269-.797.384-1.848.384 -2.239 0-5.8-.556-6.559-1.553 .428-.46 1.401-.422 1.343-1.285 0-.268-.292-.613-.682-1.073 -.545-.671-.72-1.17-.973-1.975 -.545-1.61-.7-2.147-3.289-2.799 -1.401-.345-3.523-.882-3.639-2.128 .019-.019.058-.058.097-.077 .292.173.545.23.72.23 .35 0 .525-.211.623-.383 -.098-.269-.72-.652-1.732-.652 -.759 0-1.713.211-2.842.843 -1.3818.767-2.9777 1.151-3.8536 1.151 -.3114 0-.5255-.039-.6228-.134 0-.077 2.0825-2.033 5.0409-2.991 1.0895-.211 2.0635-.307 2.9585-.307m0-.959c-1.012 0-2.063.115-3.1532.326h-.0583l-.0584.039c-2.7053.881-5.508 2.952-5.6831 3.7l-.1168.517 .3892.365c.292.268.7007.402 1.304.402 .9926 0 2.7832-.402 4.3402-1.284 .6614-.384 1.2454-.575 1.6934-.652 .214 1.879 2.705 2.512 4.34 2.914 2.083.518 2.141.71 2.627 2.167 .292.901.507 1.495 1.149 2.281 .117.153.272.345.389.479 -.039 0-.078.039-.117.058 -.272.115-.623.287-.895.575l-.545.594 .487.633c1.226 1.572 5.819 1.936 7.337 1.936 .915 0 2.627 0 2.822-1.207 .195-1.266-9.517-11.791-9.614-11.868 -.798-.537-2.939-1.994-6.657-1.994l.02.019Z"/><path d="M120.522 217.534c1.985 0 13.896 1.15 13.273 3.585 -.214.825.468 1.496.409 2.301 0 .211-.175.268-.409.307 -.175 0-4.885-.134-7.648-.614 -.409-.076-.604-.096-.74-.096 -.058 0-.097 0-.136 0 -1.518.154-1.382 2.416-2.997 2.416 -.059 0-.117 0-.195 0 -1.051-.115-.467-1.457-1.207-1.86 -1.654-.92-3.659-.901-5.294-1.859 -.038-.019-.058-.115-.097-.154 .059 0 .117-.038.312-.038 .35 0 1.07.057 2.783.345 .992.153 1.79.288 2.296.288 .234 0 .409-.039.487-.096 .097-.096.739-2.186-1.226-3.95 -.13-.115-.195-.243-.195-.383 0 0 .117-.096.331-.153 .039 0 .117 0 .234 0m0-.959c-.195 0-.312 0-.39.019h-.058l-.059.019c-.311.096-.486.173-.72.384l-.311.268v.403c0 .537.156.786.487 1.093 .973.881 1.109 1.84 1.089 2.377 -.447-.038-1.128-.153-1.81-.249 -1.985-.307-2.627-.345-2.938-.345 -.292 0-.468.038-.604.076l-1.206.365 .681 1.054s.116.288.389.46c.973.575 2.005.825 2.978 1.074 .817.211 1.596.402 2.277.767 .019.076.039.191.058.287 .078.48.292 1.611 1.596 1.745 .098 0 .195 0 .292 0 1.382 0 2.005-1.016 2.414-1.668 .33-.556.467-.729.681-.748 0 0 0 0 .019 0 .136 0 .292.019.604.077 2.744.46 7.473.613 7.804.613h.234c.934-.191 1.128-.824 1.148-1.188 .039-.575-.136-1.036-.292-1.419 -.117-.326-.195-.556-.156-.709 .136-.537 0-1.074-.35-1.534 -2.083-2.646-13.741-3.24-13.857-3.24v.019Z"/><path d="M148.12 101.639c1.791 0 6.617.958 6.248 1.802 0 0-.565.824-2.025.824 -.681 0-1.537-.172-2.627-.671 -.545-.249-3.153-1.495-2.005-1.917 .098 0 .253-.019.409-.019m0-.959c-.234 0-.428 0-.564.039h-.098l-.097.038c-.817.307-.915.959-.915 1.131 -.019.594.292 1.361 2.842 2.55 1.09.498 2.121.767 3.036.767 2.082 0 2.861-1.285 2.861-1.304v-.038l.039-.039c.175-.383.136-.805-.097-1.169 -.935-1.438-6.19-1.975-7.026-1.975h.019Z"/><path d="M364.253 311.095s.097.038.116.057c-.564 1.687-4.106 6.404-5.274 7.842 -.311.383-.532.626-.662.728 .286-.473.435-.754.448-.843 -4.905 5.042-9.42 10.468-14.558 15.299 -5.975 5.618-6.287 5.924-7.707 5.924 -.078 0-.156 0-.253 0 .175-.632 6.364-8.397 10.918-11.925 1.499-1.169 2.063-1.591 3.581-3.758 3.056-4.371 3.679-5.272 5.703-5.981 2.472-.863 2.569-.901 6.345-5.694 .623-.78 1.064-1.317 1.323-1.611m-.272-1.131l-.448.498c-.409.461-.428.48-1.362 1.668 -2.401 3.042-4.366 4.838-5.898 5.388 -2.316.805-3.055 1.879-6.189 6.346 -1.42 2.051-1.926 2.435-3.386 3.547 -4.418 3.412-10.958 11.33-11.269 12.423l-.331 1.208h1.265 .253c1.81 0 2.18-.345 8.369-6.193 3.173-2.99 6.131-6.231 9.011-9.356 1.304-1.418 2.628-2.875 3.99-4.294l1.012-.71c.312-.21.37-.287.857-.901 .914-1.131 4.768-6.173 5.43-8.129l.253-.767 -.74-.383s-.156-.077-.214-.096l-.623-.249h.02Z"/><path d="M120.269 28.746c.156 0 .311 0 .564.0383 -6.267 3.6427-10.075 6.4866-11.424 8.5316 .155.1151.37.2684.525.3835 0 .4473-1.174 2.5371-3.522 6.2693 1.362.0511 2.082.0958 2.16.1342 0 0-2.355 3.01-1.946 4.1412 1.693-1.4571 2.608-3.7194 4.885-4.5822 2.004 2.0706-2.297 3.4318-2.608 5.5216 .661.5752 1.265.8244 1.849.8244 2.549 0 4.398-4.7739 6.792-6.1351 .662-2.8183 1.869-3.6427 3.075-3.6427 1.694 0 3.348 1.668 3.367 1.6871 -.272.5177-.331 1.112-.7 1.5722 -.662.6902-1.869.6135-2.375 1.5337 -.545 1.0162.448 2.109-.155 3.1251 -.215.3643-.604.7861-.935 1.0737 -.999.8563-3.393 1.9619-7.181 3.3167 -.37-.23-.74-.3259-1.071-.3259 -1.245 0-2.258 1.1887-2.258 1.2079 .312 0 .701.1533.954.3259 -2.472 3.7577-6.676 1.7255-9.926 2.895 1.616.9011 2.53 1.2462 3.698 1.2462 .818 0 1.752-.1534 3.153-.4026 -3.322 3.4893-7.9018 5.7452-13.7406 6.7677 .8564.6711 2.3745.0767 2.8805 1.4188 -4.4959 3.2976-15.0446 11.0048-14.2856 15.261 2.2317.179 3.4254.7286 3.5811 1.6489 .4542 2.6713.8564 4.1475 1.2067 4.4287 1.3819-.3834 2.5496-1.4762 4.0677-1.4762 .1752 0 .3503 0 .5255.0383 .3503.0575.798.1726 1.1483.2876 1.9463.671 2.9778 2.7033 5.0214 3.2401 .3114.0767.6228.115.9536.115 .9537 0 1.9464-.2684 2.9004-.2684 .778 0 1.557.1917 2.257.8628 .039 0 .078 0 .136 0 .331 0 .721.0383 1.013.0767 .038.1725 0 .4984.038.671 -.291.23-.817.6518-1.109.9011 .584 1.4187 1.032 2.5307-.019 5.5982 1.946 1.3804 4.457 1.994 5.877 4.1216 4.516-3.0863 1.908-7.956 2.959-11.8671 .798-.5944.895-.6902 1.09-.9203 -.409-1.4187 1.537-2.0322 2.393-2.224 3.932-.901 3.815-7.6305 3.815-7.688 -.058-1.668-1.849-2.6841-1.732-4.4288 .097-1.4954 1.771-1.9364 2.199-3.2017 -2.199-2.7225 1.051-5.0807.545-7.6881 2.783-1.1503 5.858-.5176 8.7-1.2845 .175 0 .331-.0383.448-.0383 .253 0 .467.0383.934.1917 3.114 1.0161 3.425 1.5337 3.562 1.7638 .389.6519.583.8628.875.9586 .39.1342.779.1726 1.188.1726 .525 0 1.051-.0767 1.576-.0767 .37 0 .74.0383 1.109.1534 -1.323 1.0353-2.16 5.4065-1.79 6.0775 1.829.4027 3.347 1.8789 5.274 1.8789 .351 0 .72-.0575 1.11-.1725 .272-.0767.882-.7541 1.829-2.0323 .623-.8436 1.81-.1534 2.472-.9011 .564-.6518-.312-1.3229.039-1.9747 .934-1.7639 1.479-2.7992 2.141-2.7992 .895 0 2.024 1.9556 4.671 6.6145 1.206 2.1217 1.537 3.566.992 4.3329 -.564.7668-.759 1.1119-.467 1.5146 .701.9394 2.122.7093 2.822 1.6296 .526.6902-.058 1.4954.195 2.2048 .195.0575.311.0959.448.0959 .175 0 .369-.0576.836-.1726 .604-.1534 1.168-.2301 1.733-.2301 2.919 0 5.001 1.8598 4.865 2.2432 -.117.1917-.408.3067-.603.4026 -9.031.7286-15.414 1.2845-22.752 2.0514 7.999-.786 15.259-1.3995 22.713-2.0322 -3.834 1.4571-4.34 1.6488-5.372 3.1059 .117.2492.273.5943.39.8436 3.406-2.1857 5.313-2.3774 5.936-2.4349 0 0 0 0 .078 0 .097 0 .311 0 .836 0 1.051.2109 2.083.4409 3.114.6518 .176.2684.409.6135.584.882 -.622 1.5209-.72 2.7927-.292 3.8152 -1.732 3.0867-11.794 8.3016-16.27 8.3016 -.662 0-1.188-.1151-1.557-.3643 -8.46 2.5303-16.81 8.0143-25.049 16.4493 13.429-8.282 16.816-10.353 18.198-10.353 .467 0 .72.231 1.031.556 -.545 2.493-2.355 2.972-4.865 3.643 .72.863.836.997 2.51 1.611 .701 2.128 1.012 3.029 2.803 3.853 -.526-1.054.039-2.492.136-2.646 0 0 .039-.019.059-.038 .038.019.077.038.058.345 -.058.748.078 1.285.993 1.726 .272.134.934.402 2.043.402 .37 0 .779-.019 1.246-.096 .155-.019.233-.038.292-.038 .039 0 .058 0 .097 0 0 0 0 .019.019.038 0 0 0 .039 0 .058 0 0-.798 1.112-1.829 1.323 1.031.307 2.277.652 3.815 1.074 1.187-1.764 1.265-4.161 3.23-5.465 2.55 6.346-11.658 14.514-16.387 14.514 -.02 0-.039 0-.059 0 .065-.933 2.394-3.01 6.988-6.231v-1.016s-.059 0-.078 0c-.643 0-1.479-.211-2.063-.422 .116-.249.272-.575.389-.824 -11.113 6.346-11.853 6.767-12.456 6.767 -.039 0-.078 0-.136 0 -2.738 2.518-4.36 6.18-4.866 10.986 -.681 0-8.953 4.41-8.992 4.467 -1.966 1.879-1.537 4.697-2.802 6.845 -.234-1.132-1.129-1.918-1.655-2.895 -.402 6.122-.824 9.324-1.265 9.605 0 0 0-6.289-.097-8.359l-1.421 13.957c.273.096.623.23.895.326 -.039.326-.077.767-.116 1.093 -.273.077-.623.192-.896.268 -.039.269-.078.633-.116.921 .194.21.447.498.642.709 0 0 .039 0 .097 0 -4.321 4.87-12.028 6.633-13.332 14.245 -1.2454 7.362 10.043 13.842 3.017 21.147 -5.9557-3.394-2.18-12.002-8.3885-15.261 -.4282 0-14.558 1.227-16.3681 2.243 -.0584.307-.1557.69-.2141.978 .798.613 1.8295.881 2.5107 1.629 -.2335.192-.5644.46-.8174.671 -.0389-.019-4.4764-1.016-7.9602-1.016 -1.5181 0-2.8805.192-3.5812.729 -1.3234.997-6.9287 6.633-7.8629 9.643 -.7201 2.32 2.0436 3.298 2.0825 5.33 .0779 3.164-2.7831 5.79-1.7711 9.145 .8175 2.704 3.2698 7.861 10.4515 11.925 .5838.326 1.1288.461 1.6154.461 2.0825 0 3.5811-2.263 5.6636-2.263 .0584 0 .1168 0 .1752 0 .9342-9.758 3.8146-12.04 6.3059-12.04 1.9268 0 3.62 1.361 3.9898 1.687 -.4931 2.812-1.4143 5.765-2.7637 8.858 .7526 1.559.6163 4.013-.4087 7.362 .2919.019.5839.019.8758.019 2.8221 0 5.6636-.824 8.4857-.824 1.557 0 3.0946.249 4.6318 1.016 .039 0 2.569 4.333 1.713 10.18 -.759 5.215 3.328 5.714 8.174 5.714 1.129 0 2.316-.02 3.484-.02 3.095 0 6.092.192 8.077 1.572 1.11-9.662 7.591-12.442 17.127-12.442 5.82 0 12.787 1.035 20.358 2.147 .662.096 1.518.364 2.122.652 4.126 1.955 6.714 5.847 10.548 8.148 4.866 2.895 10.899 1.956 15.804 4.716 3.756 2.109 6.423 5.848 10.023 8.149 2.102 2.243 2.414 6.115 5.82 7.362 5.877 1.438 11.872 2.454 17.672 4.218 3.892 1.188 6.559 4.658 10.626 5.54 .176.039.331.058.506.058 .759 0 1.499-.307 2.258-.307 .331 0 .662.058.993.23 1.771.882-.098 2.78.155 4.161 .176.92.935 1.591 1.11 2.511 0 .096 0 .23 0 .307 0 .077-2.783 8.397-10.568 11.196 .058.25.233.576.389.786 .856 1.151.408 1.822-.818 3.566 -1.051 1.534-.116 3.126-.194 4.698 -.137 2.799.116 5.598-.253 8.378 -.137.92-.214 1.169-.779 1.169 -.214 0-.486-.038-.876-.076 -.194-.019-.369-.039-.584-.039 -.661 0-1.401.173-2.199.901 -2.335 2.09-2.374 5.925-5.683 7.267 -1.44.594-4.963 2.281-6.306 5.1 -.039.23-3.99 22.431-13.312 22.68l1.206 1.668c.896 1.304.039 3.892-2.744 3.892 -.486 0-1.051-.077-1.674-.268 -.175.115-.408.249-.583.345 .116 1.073-.597 2.288-2.141 3.643 1.998 2.735 3.003 4.185 3.016 4.352 -1.012-.039-1.615-.058-2.004-.058 -.584 0-.701.038-1.032.134 2.31 6.263 4.074 10.034 5.294 11.312 -.83 3.668 3.153 7.733 11.95 12.193 0 0-.525.096-1.401.096 -3.854 0-15.064-1.553-26.586-17.523 -11.172-15.491-17.594-43.828-17.633-44.115 -1.188-5.963-3.64-10.526-6.929-12.865 -4.321-3.048-9.848-3.834-13.935-7.324 -.137-.115-16.874-16.43-20.962-22.393 -.233-.345-.506-.862-.72-1.227 -1.284-2.262 1.713-14.398 1.752-14.494 2.076-4.486 2.984-7.266 2.725-8.34 -.876-3.7-2.9-10.429-6.053-10.429 -1.207 0-2.569.977-4.107 3.508 -.194 0-.389 0-.584 0 -12.008 0-16.7375-13.44-27.9286-14.993 -.3697-.057-.8952-.115-1.265-.153 -1.6868-.179-4.9435-1.623-9.7703-4.333 -1.1093-.633-2.2771-.805-3.4254-.805 -1.4792 0-2.9973.287-4.4764.287 -.6228 0-1.2651-.057-1.8879-.191 -3.1529-.748-6.3643-1.246-9.4783-2.033 -.8953-.23-1.9852-.824-2.8415-1.169 -.4671-.192-1.1289-.403-1.5376-.69 -3.0362-2.109-2.3355-5.829-3.8147-8.609 -1.8295-3.451-5.5663-5.214-7.7461-8.359 -1.6933-2.415-3.6395-4.658-5.216-7.151 -.7396-1.169-1.1678-3.029-1.5375-4.678 -.5255-2.32-.9343-4.141-4.8268-6.94 3.114 12.404 4.9435 14.973 6.5589 17.236 3.5617 4.984 2.8416 6.039 2.1215 7.055 -.0779-.077-7.824-9.95-8.8945-12.136 .6228-.038 1.4597-.058 2.0825-.058 -5.8647-11.822-8.9722-17.766-9.3226-17.83 -4.0482-6.978-1.9268-44.307 4.1456-51.745 .506.249 1.1677.594 1.6543.862 .0778-1.476-.4087-2.856-.9147-4.237 0 .019 0 .058 0 .077 0 .23.0778.46.0583.69 0 .154-.0194.537-.1557.882 -.1557.384-.4087.633-.6812.71 0 0-.0583 0-.1362 0 -.2919 0-.9926-.116-1.304-1.228 -.506-1.706-.0584-3.796-.0584-3.815 .1946.039.4087.767.4671.997 .1168.441.1557.46.2141.518 .0779.077.1752.115.3893.134 .4476.038.7201.096.8952.153 -.4476-1.322-.7979-2.665-.506-4.102 .8175-4.052 1.6089-7.267 2.3745-9.644 -.1752-.268-.3893-.614-.545-.882 .2336-.709.545-1.649.7785-2.358 .2984-1.623 1.6479-5.413 4.0482-11.3693 -.0778.1151-.1751.2876-.2724.4027 5.3327-8.7234 5.6052-9.0685 17.7304-24.6171 2.8221-3.1059 6.5784-7.2663 9.381-10.3913 -.1946.2492-.4476.5943-.6033.8627 4.5543-4.4671 8.1938-7.1704 8.2132-7.1704 -1.6348 1.4954-3.367 2.8567-4.9824 4.3713 3.3995-2.8503 6.0269-5.119 7.8824-6.8062 -1.077 1.3165-1.7971 2.339-2.1604 3.0676 .6877-.6519 1.2391-1.1248 1.6543-1.4187 -.2141.2684-.4865.671-.6422.9969 .9147-.6135 1.5764-1.5913 2.7442-1.8405 .2335.2109.5255.5368.7201.786 .6228.0575 1.0315.0959 1.304.0959 .4671 0 .6228-.0959.9926-.2876 .1362.0767.3114.1726.4282.2301 -.3893 1.668-2.102 2.0514-3.153 3.0675 .2336.0384.4477.0575.6618.0575 2.1992 0 3.9509-1.5721 6.0529-1.898 .1362 1.1887-.9537 2.2048-.4866 3.4318 2.5496-4.8697 3.8147-7.3238 8.0964-8.4166 .3698.4793.3114 1.1312.6423 1.6297 .6228.0383 1.2067.0383 1.7322.0383 3.8731 0 5.0213-.7094 5.216-.8819 3.2502-2.5307 4.0482-3.1251 4.8072-3.1251 .2336 0 .4866.0575.798.1342 -1.531 1.6105-1.8879 2.8375-1.0704 3.6811 1.304-2.9909 4.8069-3.9111 6.4229-6.6336 -.136-.0383-.331-.0767-.487-.115v-.4026c.779-.7286 1.051-.8628 2.725-1.6872 -.039-.1534-.097-.3451-.117-.4793 -.798.0575-1.596.2109-2.394.2301 -.078-.1534-.175-.3643-.253-.5177 .078-.1342 10.257-14.034 17.77-15.7787 .642-.115.895-.1534 1.148-.1534M29.4952 98.6477c-.0001 0-.039.0576-.039.0767l.039-.0767Zm90.7738-70.8603c-.331 0-.623.0575-1.304.1725 -8.019 1.8405-18.373 16.1238-18.451 16.258l-.233.4218 .214.441 .175.3642 .078.1534 .272.5368h.078c-.097.0959-.214.1918-.311.2876l-.273.2684v.3835l-.039.4026v.5368c-.6224.671-1.3814 1.2462-2.1794 1.8597 -.0584.0384-.0973.0767-.1557.115l-1.304-.3259c-.3698-.0958-.6812-.1725-1.051-.1725 -1.1093 0-1.8489.5751-5.4106 3.3359 0 0-.9536.671-4.6321.671 -.3309 0-.7006 0-1.0704 0 0-.0383 0-.0575-.0195-.0958 -.0778-.3451-.1946-.7669-.506-1.1695l-.3893-.5177 -.6422.1534c-3.2308.8244-4.9241 2.3774-6.5006 4.8889v-.0958l-1.012.1533c-1.051.1726-1.9852.5944-2.9.997 .1947-.3068.3309-.6519.4282-1.0545l.1752-.7094 -.6423-.3451 -.1168-.0575 -.3308-.1725 -.4671-.2493 -.4671.2493c-.2076.1022-.3828.1534-.5255.1534 -.1947 0-.4671-.0192-.798-.0576 -.1946-.23-.3892-.4409-.5839-.5943l-.1557-.1342 2.4912-3.1251 -2.7053 1.9364 -1.9657 1.0545 -.5644-.5177c-.9926.9011-1.6154 1.4763-2.2577 2.0323l-.4476.2492c-.1363.0767-3.5033 2.5691-7.7072 6.6528l-.1557-.1342 -1.9852 2.1856 -7.4153 8.1865C34.283 89.0233 34.0494 89.3301 28.6777 98.1109l-.0584.115 .0779.0576c-3.4449 8.5695-3.4838 8.6655-3.9315 11.1005 -.2335.71-.5254 1.611-.759 2.282l-.1362.421 .2335.384 .3309.518c-1.0315 3.201-1.0705 3.431-2.2771 9.336 -.1168.556-.1558 1.093-.1168 1.611 -.0584-.019-.1363-.039-.1947-.058l-.506-.115 -.1946.173 -.3114.077 -.1557.556s-.5255 2.358.0584 4.332c.3114 1.036.8758 1.515 1.3818 1.726 -6.1891 8.608-8.1354 45.227-3.9509 52.455l.2336.403 .2919.057c.545.767 2.4912 4.678 8.0965 15.99 -.2141 0-.4088 0-.6034.019l-1.4597.077 .6228 1.284c1.1289 2.32 8.9528 12.27 9.0112 12.347l.8175.978 .7201-1.035c1.0315-1.477 1.5375-3.03-2.1409-8.149 -1.4402-2.013-3.0556-4.256-5.6636-13.995 1.518 1.572 1.81 2.856 2.1798 4.467 .3892 1.725.8174 3.681 1.6543 4.985 .9537 1.495 2.0241 2.895 3.0556 4.256 .7396.958 1.4792 1.936 2.1799 2.933 1.0509 1.515 2.4133 2.703 3.7173 3.854 1.557 1.361 3.0362 2.665 3.9704 4.409 .4866.901.7201 1.975.9537 3.087 .4281 2.032.9342 4.314 3.1724 5.867 .4476.306 1.051.537 1.5375.728l.1946.077c.3115.115.6423.268.9926.422 .6423.287 1.3235.594 1.9658.767 1.7127.441 3.4643.786 5.1576 1.112 1.4207.287 2.8999.575 4.3401.92 .6423.153 1.3235.23 2.102.23s1.5765-.077 2.3355-.153c.7396-.077 1.4597-.135 2.1409-.135 1.2067 0 2.1214.211 2.9583.671 7.2596 4.084 7.3958 4.161 10.1401 4.448 .3698.039.8758.096 1.2456.154 4.963.69 8.5636 3.834 12.3977 7.189 4.3794 3.835 8.9134 7.803 15.6674 7.803 .195 0 .409 0 .603 0h.526l.272-.46c1.188-1.955 2.355-3.029 3.27-3.029 1.732 0 3.678 3.719 5.099 9.682 .208.869-.681 3.445-2.666 7.726v.058l-.039.057c-.039.115-3.231 12.558-1.674 15.261l.117.211c.195.365.428.786.642 1.093 4.107 6.02 20.981 22.451 21.117 22.566 2.336 1.994 5.099 3.125 7.766 4.237 2.238.92 4.359 1.802 6.247 3.144 3.075 2.186 5.411 6.538 6.54 12.27 .058.288 6.598 28.931 17.808 44.48 11.658 16.181 23.024 17.926 27.384 17.926 .837 0 1.499-.077 1.713-.134l2.218-.71 -2.082-1.054c-8.356-4.244-12.171-7.957-11.444-11.139l.117-.499 -.351-.364c-1.615-1.706-1.693-1.783-4.671-9.835 .37 0 .896.019 1.655.038l1.09.038 -.098-1.073c-.039-.499-.039-.518-2.686-4.142 1.48-1.322 1.888-1.821 1.869-3.048 .428.077.837.134 1.226.134 1.615 0 2.939-.728 3.62-2.013 .603-1.112.564-2.454-.078-3.393l-.311-.422c8.602-2.416 12.183-21.109 12.534-23.083 1.226-2.454 4.418-3.969 5.741-4.525 2.277-.939 3.231-2.857 4.087-4.563 .545-1.112 1.071-2.147 1.888-2.895 .642-.575 1.168-.652 1.557-.652 .156 0 .312 0 .448.039 .428.057.759.095.992.095 1.46 0 1.635-1.207 1.752-1.994 .253-1.783.234-3.566.234-5.291 0-1.035 0-2.109.039-3.163 .039-.633-.078-1.227-.156-1.803 -.175-1.054-.273-1.744.195-2.396 1.167-1.687 1.965-2.838.973-4.41 7.61-3.336 10.179-11.465 10.179-11.541 .019-.23.019-.441 0-.633 -.117-.614-.409-1.112-.662-1.553 -.214-.345-.389-.652-.428-.939 -.059-.269.116-.767.253-1.208 .311-.94.914-2.704-.934-3.643 -.448-.23-.915-.326-1.441-.326 -.467 0-.934.096-1.323.173 -.331.076-.662.134-.934.134 -.098 0-.195 0-.292-.019 -1.986-.422-3.62-1.534-5.353-2.723 -1.596-1.074-3.23-2.205-5.196-2.799 -3.717-1.131-7.552-1.956-11.25-2.761 -2.101-.46-4.281-.939-6.422-1.457 -1.752-.652-2.55-2.243-3.387-3.911 -.564-1.112-1.129-2.243-2.004-3.183l-.078-.095 -.097-.058c-1.596-1.016-2.998-2.339-4.477-3.719 -1.713-1.611-3.484-3.26-5.586-4.448 -2.549-1.438-5.352-1.918-8.077-2.378 -2.763-.479-5.391-.939-7.707-2.319 -1.654-.978-3.056-2.282-4.535-3.643 -1.829-1.687-3.698-3.413-6.111-4.563 -.701-.326-1.654-.614-2.394-.729 -7.512-1.112-14.597-2.166-20.494-2.166 -7.396 0-16.018 1.38-17.906 11.887 -1.926-.825-4.359-1.017-7.318-1.017 -.583 0-1.187 0-1.771 0 -.584 0-1.148 0-1.712 0 -2.589 0-5.45-.115-6.618-1.457 -.603-.69-.798-1.725-.584-3.163 .876-5.982-1.576-10.928-2.316-11.216 -1.4204-.709-3.0748-1.073-4.9821-1.073 -1.4791 0-2.9583.21-4.3791.421 -1.2651.192-2.4717.365-3.6784.403 1.1288-3.7 1.1677-4.333.1751-6.442 1.8685-4.314 1.9268-4.525 2.647-8.685l.0973-.537 -.4087-.345c-.5255-.46-2.4134-1.936-4.6322-1.936 -3.873 0-6.3059 4.064-7.2011 12.097 -1.0121.192-1.8684.729-2.647 1.227 -.7979.499-1.557.978-2.316.978 -.3698 0-.7396-.115-1.1483-.345 -6.8898-3.892-9.2253-8.781-10.0038-11.369 -.4866-1.591.0973-2.991.759-4.62 .545-1.342 1.1094-2.704 1.0705-4.276 -.0195-1.208-.7007-2.07-1.304-2.818 -.7007-.901-1.0705-1.4-.8174-2.186 .8563-2.761 6.3059-8.225 7.532-9.164 .2141-.153.9342-.537 2.9972-.537 2.9973 0 6.8898.786 7.6099.959l.4672.23 .4865-.384c.253-.191.5839-.46.8174-.671l.7785-.632 -.6811-.748c-.5255-.556-1.1483-.882-1.6933-1.189 -.0973-.057-.1946-.096-.2919-.153 2.7247-.767 13.0399-1.783 15.1224-1.917 2.5302 1.476 3.0557 4.102 3.5812 6.902 .5644 2.952 1.2067 6.326 4.5352 8.224l.661.384 .526-.556c4.632-4.812 2.063-9.452-.214-13.555 -1.538-2.78-2.998-5.406-2.55-8.11 .779-4.582 4.107-6.863 7.629-9.298 1.927-1.323 3.893-2.684 5.469-4.467l1.227-1.381 -1.577-.172 .156-.039 .642-.172 .058-.652 .059-.556 .058-.537 .078-.728 -.701-.25 -.175-.057 .39-3.758 .642-.402c.934-.595 1.07-.671 1.498-7.037l.448 2.167 1.285-2.167c.603-1.016.856-2.109 1.109-3.182 .292-1.285.584-2.493 1.46-3.394 .953-.536 7.434-3.949 8.485-4.275h.779l.097-.863c.72-6.672.74-6.844 4.301-10.123 .701-.057 1.752-.652 11.269-6.058l.195.077c.175.057.603.21 1.109.325 -6.344 4.429-6.461 4.583-6.578 6.385l-.058.997h1.012c3.756 0 12.631-4.391 16.231-9.605 1.519-2.186 1.908-4.333 1.149-6.193l-.448-1.112 -.992.652c-1.499.997-2.083 2.473-2.589 3.796 -.175.46-.35.92-.564 1.342 -.37-.096-.74-.211-1.071-.307 .253-.287.428-.517.448-.613l.039-.077 .039-.134 .097-.499 -.273-.268 -.097-.115 -.194-.192 -.273-.057s-.195-.039-.331-.039c-.078 0-.194 0-.447.058 -.37.057-.74.096-1.09.096 -.915 0-1.421-.211-1.596-.288 -.487-.249-.506-.345-.467-.805 0-.249.058-.844-.468-1.208l-.525-.364 -.545.326 -.195.115 -.175.23c-.078.115-.253.517-.389 1.054 -.272-.46-.487-1.093-.798-2.07l-.136-.441 -.448-.154c-.35-.115-.603-.211-.817-.306 1.79-.614 3.289-1.534 3.795-3.854l.117-.518 -.37-.364c-.389-.364-.856-.824-1.713-.824 -1.362 0-3.347 1.073-11.93 6.326 6.928-6.863 8.816-7.477 18.664-10.4293 .467.1917 1.012.2873 1.674.2873 4.788 0 15.2-5.3487 17.127-8.7997l.234-.4026 -.175-.4218c-.325-.7925-.227-1.8278.292-3.1059l.194-.4602 -.272-.4217 -.234-.3451c-.117-.1918-.253-.3835-.35-.5369l-.214-.3259 -.39-.0767 -.72-.1534c-.798-.1725-1.596-.3451-2.413-.4984h-.097 -.098 -.642l5.489-2.0898 -5.255.441s-.059-.1151-.098-.1726c-.661-.9586-2.9-2.3773-5.566-2.3773 -.662 0-1.323.0766-1.966.2492 -.019 0-.058 0-.078.0192 .059-.4985.098-1.1695-.389-1.8022 -.545-.7094-1.284-.9395-1.888-1.1503 -.37-.1343-.642-.2109-.817-.3643 .097-.1726.292-.4218.35-.5177 1.187-1.6296.915-2.1281-.934-5.3682 -3.095-5.464-4.048-7.1129-5.508-7.1129 -1.246 0-1.868 1.1695-2.997 3.2977 -.351.6518-.156 1.2845-.039 1.6488 0 .0575.039.115.058.1725 -.097.0384-.311.0384-.467.0575 -.564.0384-1.401.0767-1.985.8628 -.74.9969-1.187 1.5913-1.323 1.7063 -.292.0767-.565.115-.837.115 -.876 0-1.733-.4218-2.628-.8819 -.564-.2876-1.148-.5752-1.771-.786 .039-1.1887.759-3.9687 1.518-4.5822l1.382-1.0928 -1.693-.556c-.428-.1342-.876-.2109-1.421-.2109 -.273 0-.564 0-.856.0383 -.234 0-.487.0384-.721.0384 -.35 0-.622-.0383-.856-.115 0 0-.117-.1151-.37-.556 -.331-.5369-.914-1.1504-4.106-2.1857 -.467-.1533-.818-.2492-1.226-.2492 -.156 0-.331 0-.545.0383h-.078l-.078.0192c-1.148.3068-2.355.3643-3.62.441 -1.713.0958-3.484.1725-5.197.8819l-.72.3068 .156.7668c.156.7861-.214 1.6488-.584 2.5691 -.584 1.4188-1.304 3.1634-.156 5.0039 -.155.1918-.35.3835-.584.5944 -.622.556-1.381 1.2654-1.459 2.4924 -.078 1.227.506 2.1089 1.012 2.9141 .37.5752.7 1.0737.72 1.6105 0 .0575.039 6.0201-3.056 6.7294 -.992.2301-2.316.7094-2.919 1.7064 -.214.3451-.311.7285-.292 1.1311 -.117.0959-.311.2493-.642.4985l-.273.1917 -.078.326c-.389 1.457-.33 2.9908-.253 4.4863 .117 2.454.214 4.6013-1.596 6.2692 -1.012-1.0928-2.257-1.7638-3.483-2.3965 -.487-.2492-.954-.4985-1.402-.7669 .72-2.4348.467-3.7385.039-4.8889 0 0 .039-.0191.059-.0383 .175-.1534.369-.2876.506-.4026l.506-.4026 -.175-.6136s0-.0383 0-.0766c0-.1726 0-.3835-.059-.5944l-.175-.5943 -.623-.0959c-.272-.0383-.603-.0575-.915-.0767 -.739-.5751-1.596-.8627-2.627-.8627 -.545 0-1.07.0767-1.5765.1534 -.4671.0575-.8953.1342-1.304.1342 -.2725 0-.4866-.0192-.7007-.0767 -.8369-.2301-1.5375-.8244-2.2576-1.4571 -.7785-.6902-1.5765-1.3804-2.6859-1.7639 -.4087-.1342-.9147-.2684-1.304-.3259 -.2335-.0383-.4671-.0575-.6812-.0575 -1.1677 0-2.1214.4793-2.9583.9203 -.253.1342-.4866.2492-.7396.3642 -.1362-.5176-.3308-1.6679-.6228-3.4318 -.3308-1.9364-.9537-2.1664-3.5811-2.3773 .6617-3.9112 10.5098-11.1199 13.8963-13.5931l.5839-.4218 -.253-.6902c-.1168-.2876-.253-.5176-.4087-.7285 5.9162-1.112 6.6172-1.8022 11.0742-6.4802l1.985-2.0898 -.72.115c.701-.4218 1.343-1.0353 1.907-1.898l.506-.7861 -.389-.2684c.117-.0383.234-.0575.37-.0575 .195 0 .37.0575.564.1725l.409.2493 .448-.1534c5.741-2.0514 5.858-2.0898 7.493-3.4893 .428-.3643.856-.8628 1.109-1.2846 .506-.8435.331-1.6679.214-2.2623 -.097-.4409-.136-.7094-.039-.9011 .117-.2109.37-.3259.818-.4985 .428-.1725.973-.3834 1.401-.8435 .389-.4793.545-.9203.662-1.2846 .058-.1725.117-.3451.195-.4984l.33-.6519 -.545-.4985c-.467-.4409-2.14-1.9555-4.028-1.9555 -1.304 0-3.037.7093-3.912 4.007 -1.032.7093-1.908 1.8405-2.764 2.9525 -1.032 1.3228-2.199 2.8375-3.192 2.8375 -.214 0-.428-.0767-.681-.2109 .253-.4027.72-.8436 1.148-1.2271 .876-.8052 1.771-1.6488 1.791-2.7991 0-.6327-.253-1.2462-.798-1.8214l-.448-.4601 -.603.2301c-.526.1917-.993.4601-1.421.7669l-.817-.326c-.176-.0575-.234-.0958-.798-.115 2.802-4.4479 2.802-4.5246 2.802-5.3874v-.4793l-.194-.1342c1.479-2.1664 2.277-2.6266 10.587-7.458l2.492-1.4379 -2.861-.3259c-.312-.0384-.487-.0575-.682-.0575l-.058-.1917Z"/><path d="M139.05 224.494c.429 0 1.149.134 2.745.614 2.199.671 2.432 1.035 2.355 1.188 -.098.25-2.278.595-3.504.595 -.214 0-.389 0-.545-.039 -1.304-.211-2.685-1.572-1.615-2.281 .175-.039.331-.077.564-.077Zm0-.958c-.35 0-.603.057-.798.115l-.175.038 -.136.096c-.642.422-.915 1.093-.759 1.802 .253 1.15 1.615 2.032 2.783 2.224 .175.038.428.038.701.038 .155 0 3.912 0 4.398-1.188 .117-.25.117-.576 0-.863 -.233-.518-.798-.94-2.958-1.611 -1.81-.556-2.511-.671-3.017-.671l-.039.02Z"/></g></g></g></svg>