<?xml version="1.0" encoding="utf-8"?>
<!-- Generator: Adobe Illustrator 26.0.1, SVG Export Plug-In . SVG Version: 6.00 Build 0)  -->
<svg version="1.1" id="Layer_1" xmlns="http://www.w3.org/2000/svg" xmlns:xlink="http://www.w3.org/1999/xlink" x="0px" y="0px"
	 viewBox="0 0 500 500" style="enable-background:new 0 0 500 500;" xml:space="preserve">
<style type="text/css">
	.st0{display:none;opacity:0.48;}
	.st1{display:inline;fill:none;stroke:#4C4C5E;stroke-width:0.25;stroke-miterlimit:10;}
	.st2{fill:url(#SVGID_1_);}
	.st3{fill:url(#SVGID_00000160889046253052757740000008365168724998490781_);}
	.st4{fill:url(#SVGID_00000150789519555082170070000005362690132822046865_);}
	.st5{fill:url(#SVGID_00000179608062840215743950000008060481284661358739_);}
	.st6{display:none;fill:url(#SVGID_00000007398784159552106060000009827379014965742225_);}
	.st7{display:none;fill:url(#SVGID_00000031915806544904448380000018249427750331771790_);}
	.st8{display:none;}
	.st9{display:inline;fill:url(#SVGID_00000057858531065458546190000018230242479214126497_);}
	.st10{display:inline;fill:url(#SVGID_00000101073882053015391440000015340792952418622347_);}
	.st11{display:inline;fill:url(#SVGID_00000151505287712232185320000003955826479998679715_);}
	.st12{display:inline;fill:#FFFFFF;}
	.st13{font-family:'SinkinSans-700Bold';}
	.st14{font-size:27.1096px;}
	.st15{display:inline;fill:#B1AFC9;}
	.st16{font-family:'SinkinSans-400Regular';}
	.st17{font-size:7.7809px;}
	.st18{display:inline;}
	.st19{fill:url(#SVGID_00000074399640214561787040000013108898589864777901_);}
	.st20{fill:url(#SVGID_00000069396795554931972890000016990881335702788230_);}
	.st21{fill:url(#SVGID_00000155831668577558153230000013412091533996308377_);}
	.st22{opacity:0.54;fill:url(#SVGID_00000063615758753040206360000016226342111147024032_);enable-background:new    ;}
	.st23{fill:url(#SVGID_00000168081970969241701580000006098559453213376691_);}
	.st24{fill:url(#SVGID_00000098908052527772730610000015884360422009268364_);}
	.st25{fill:#FFFFFF;}
	.st26{fill:#B1AFC9;}
	.st27{fill:url(#SVGID_00000158016686162878637840000001600004680223355324_);}
	.st28{fill:url(#SVGID_00000011747312298284999640000004317560559985455276_);}
	.st29{fill:url(#SVGID_00000176756449515146666770000003867250869350545284_);}
	.st30{fill:url(#SVGID_00000093881027142011195510000008880578859259338919_);}
	.st31{fill:url(#SVGID_00000048473677530705295260000004969846587404316574_);}
	.st32{fill:url(#SVGID_00000085965751695477505800000008462091552222477698_);}
	.st33{opacity:0.45;fill:url(#SVGID_00000068645205242019054500000015034044656126024876_);enable-background:new    ;}
	.st34{fill:url(#SVGID_00000159462457515473343000000014080740829113378186_);}
	.st35{fill:url(#SVGID_00000030453728153632669550000008071629828478347406_);}
	.st36{fill:url(#SVGID_00000165919776652197201190000010167766569210741931_);}
	.st37{fill:url(#SVGID_00000070085682054992928030000014474639361556544909_);}
	.st38{fill:url(#SVGID_00000136375725687630032180000009097392584367855778_);}
	.st39{fill:url(#SVGID_00000150792531899954723110000013117697932652781209_);}
	.st40{fill:url(#SVGID_00000029762850657047884760000003397876737270504635_);}
	.st41{fill:url(#SVGID_00000048488892658769129910000006793096498456894607_);}
	.st42{fill:url(#SVGID_00000166640739974991619070000003945435191166070148_);}
	.st43{fill:url(#SVGID_00000118379765359639125700000000183764646137344432_);}
</style>
<g id="BACKGROUND">
</g>
<g id="OBJECTS">
	<g class="st0">
		<line class="st1" x1="250" y1="50.6" x2="250" y2="454.9"/>
		<line class="st1" x1="452.1" y1="252.8" x2="47.9" y2="252.8"/>
	</g>
	<g>
		<g>
			<g>
				
					<linearGradient id="SVGID_1_" gradientUnits="userSpaceOnUse" x1="-1134.1865" y1="405.0553" x2="-1342.7761" y2="136.0841" gradientTransform="matrix(-1 0 0 -1 -918 502)">
					<stop  offset="9.750000e-04" style="stop-color:#23324F"/>
					<stop  offset="0.2313" style="stop-color:#295061"/>
					<stop  offset="0.5645" style="stop-color:#317678"/>
					<stop  offset="0.8325" style="stop-color:#368D86"/>
					<stop  offset="1" style="stop-color:#38968B"/>
				</linearGradient>
				<path class="st2" d="M233.2-4.2l250,500L213.8,216.1c-34.8-36.2-43-95.5-19.6-142.4L233.2-4.2z"/>
				
					<linearGradient id="SVGID_00000095317781985981861120000008902861560639091378_" gradientUnits="userSpaceOnUse" x1="-1143.1848" y1="355.7495" x2="-1356.1727" y2="68.5591" gradientTransform="matrix(-1 0 0 -1 -918 502)">
					<stop  offset="9.750000e-04" style="stop-color:#23324F"/>
					<stop  offset="0.2911" style="stop-color:#284B5E"/>
					<stop  offset="0.9059" style="stop-color:#368C85"/>
					<stop  offset="1" style="stop-color:#38968B"/>
				</linearGradient>
				<path style="fill:url(#SVGID_00000095317781985981861120000008902861560639091378_);" d="M194.3,73.7l16.6-33.3l179.5,359
					L213.8,216.1C179,179.9,170.8,120.5,194.3,73.7z"/>
				
					<linearGradient id="SVGID_00000106115768244381294300000000585978939941653164_" gradientUnits="userSpaceOnUse" x1="50.9188" y1="733.1418" x2="148.3286" y2="497.8144" gradientTransform="matrix(1.1478 0.3772 0.4593 -1.3975 -273.8527 988.4456)">
					<stop  offset="9.750000e-04" style="stop-color:#235372"/>
					<stop  offset="0.12" style="stop-color:#2A6078"/>
					<stop  offset="0.5015" style="stop-color:#3F868A"/>
					<stop  offset="0.8082" style="stop-color:#4C9D95"/>
					<stop  offset="1" style="stop-color:#51A699"/>
				</linearGradient>
				<path style="fill:url(#SVGID_00000106115768244381294300000000585978939941653164_);" d="M250,229.6L233.1-4.4l-52.4,61.3
					c15.5,173-116.2,374-180.7,431.2l188.7-124.7C228.2,337.3,253.8,281.5,250,229.6z"/>
				
					<linearGradient id="SVGID_00000070806415739416124180000018104786351719605413_" gradientUnits="userSpaceOnUse" x1="97.2284" y1="749.3473" x2="181.5437" y2="545.6545" gradientTransform="matrix(1.1478 0.3772 0.4593 -1.3975 -273.8527 988.4456)">
					<stop  offset="9.746900e-04" style="stop-color:#92D4D2"/>
					<stop  offset="1" style="stop-color:#51BBAC"/>
				</linearGradient>
				<path style="fill:url(#SVGID_00000070806415739416124180000018104786351719605413_);" d="M250,229.6L233.1-4.4l0,0l-3.8,235.3
					C222,336,146,379.2,120.5,408.5l68.2-45C228.2,337.3,253.8,281.5,250,229.6z"/>
				
					<linearGradient id="SVGID_00000150802844168081316270000008653387274290858661_" gradientUnits="userSpaceOnUse" x1="-1224.371" y1="322.3202" x2="-1269.1693" y2="61.32" gradientTransform="matrix(-0.9578 -0.2874 0.2874 -0.9578 -1004.6768 344.0203)">
					<stop  offset="9.750000e-04" style="stop-color:#23324F"/>
					<stop  offset="0.2313" style="stop-color:#295061"/>
					<stop  offset="0.5645" style="stop-color:#317678"/>
					<stop  offset="0.8325" style="stop-color:#368D86"/>
					<stop  offset="1" style="stop-color:#38968B"/>
				</linearGradient>
				<path style="display:none;fill:url(#SVGID_00000150802844168081316270000008653387274290858661_);" d="M340.2,390.6
					c-24.1-46.9-82.3-53.4-120.1-13.3L101.8,503c58.5-62.1,257.6-75.2,290.7-10.7l0,0L340.2,390.6z"/>
				
					<linearGradient id="SVGID_00000114048927743777523170000015603450832397200288_" gradientUnits="userSpaceOnUse" x1="-1354.3346" y1="352.6242" x2="-1216.6805" y2="249.3835" gradientTransform="matrix(-0.9578 -0.2874 0.2874 -0.9578 -1004.6768 344.0203)">
					<stop  offset="9.750000e-04" style="stop-color:#235372"/>
					<stop  offset="0.12" style="stop-color:#2A6078"/>
					<stop  offset="0.5015" style="stop-color:#3F868A"/>
					<stop  offset="0.8082" style="stop-color:#4C9D95"/>
					<stop  offset="1" style="stop-color:#51A699"/>
				</linearGradient>
				<path style="display:none;fill:url(#SVGID_00000114048927743777523170000015603450832397200288_);" d="M101.8,503
					c130.1-138.2,234.6-119.9,290.7-10.7L335.3,381c-21.6-42-73.7-47.7-107.4-11.9L101.8,503z"/>
				<g class="st8">
					
						<linearGradient id="SVGID_00000165201230277428586800000013347051551511782532_" gradientUnits="userSpaceOnUse" x1="-1176.1857" y1="178.3427" x2="-1325.0896" y2="343.2003" gradientTransform="matrix(-0.9578 -0.2874 0.2874 -0.9578 -1004.6768 344.0203)">
						<stop  offset="9.746900e-04" style="stop-color:#92D4D2"/>
						<stop  offset="1" style="stop-color:#51BBAC;stop-opacity:0"/>
					</linearGradient>
					<path style="display:inline;fill:url(#SVGID_00000165201230277428586800000013347051551511782532_);" d="M216.6,387.8L116,488
						l111.9-118.9c33.7-35.9,85.8-30.1,107.4,11.9l56.6,110.2c-5.1-9.9-10.6-18.9-16.2-27.2l-37.2-62.6
						C314,353.6,254.9,347.1,216.6,387.8z"/>
					
						<linearGradient id="SVGID_00000171710331319618913700000002150420637539983496_" gradientUnits="userSpaceOnUse" x1="-1380.8612" y1="259.7916" x2="-1380.3729" y2="259.7916" gradientTransform="matrix(-0.9578 -0.2874 0.2874 -0.9578 -1004.6768 344.0203)">
						<stop  offset="0" style="stop-color:#7F2BFF"/>
						<stop  offset="0.999" style="stop-color:#FD71FF"/>
					</linearGradient>
					<path style="display:inline;fill:url(#SVGID_00000171710331319618913700000002150420637539983496_);" d="M392.3,491.9l0.2,0.4
						c-0.1-0.2-0.2-0.4-0.3-0.6L392.3,491.9z"/>
					
						<linearGradient id="SVGID_00000023985826712086201480000016678190464039391396_" gradientUnits="userSpaceOnUse" x1="-1120.3379" y1="179.5278" x2="-1105.5245" y2="179.5278" gradientTransform="matrix(-0.9578 -0.2874 0.2874 -0.9578 -1004.6768 344.0203)">
						<stop  offset="0" style="stop-color:#7F2BFF"/>
						<stop  offset="0.999" style="stop-color:#FD71FF"/>
					</linearGradient>
					<path style="display:inline;fill:url(#SVGID_00000023985826712086201480000016678190464039391396_);" d="M123.9,480.8
						c-7.3,6.9-14.7,14.3-22.1,22.2l13.7-14.6C118.4,485.8,121.2,483.3,123.9,480.8z"/>
				</g>
			</g>
		</g>
		<g class="st8">
			<text transform="matrix(1 0 0 1 73.3897 186.8535)" class="st12 st13 st14">Alstorm</text>
			<text transform="matrix(1 0 0 1 -38.456 389.3291)" class="st15 st16 st17">powerful tagline</text>
		</g>
	</g>
	<g class="st8">
		<g class="st18">
			<g>
				
					<linearGradient id="SVGID_00000129177815030313499220000008110846892626781599_" gradientUnits="userSpaceOnUse" x1="334.265" y1="411.6598" x2="405.5668" y2="352.4148" gradientTransform="matrix(1 0 0 -1 0 502)">
					<stop  offset="9.750000e-04" style="stop-color:#23324F"/>
					<stop  offset="0.2313" style="stop-color:#295061"/>
					<stop  offset="0.5645" style="stop-color:#317678"/>
					<stop  offset="0.8325" style="stop-color:#368D86"/>
					<stop  offset="1" style="stop-color:#38968B"/>
				</linearGradient>
				<path style="fill:url(#SVGID_00000129177815030313499220000008110846892626781599_);" d="M320.9,134.8h22.6
					c27.9-17.5,54.9-6.1,70.1,10.5L389,102.5l-24.7-42.8l-24.7,42.8L320.9,134.8z"/>
				
					<linearGradient id="SVGID_00000083050650340586517020000006940299538387502476_" gradientUnits="userSpaceOnUse" x1="334.2629" y1="411.6573" x2="405.5647" y2="352.4123" gradientTransform="matrix(1 0 0 -1 0 502)">
					<stop  offset="9.750000e-04" style="stop-color:#23324F"/>
					<stop  offset="0.1826" style="stop-color:#295061"/>
					<stop  offset="0.4452" style="stop-color:#317678"/>
					<stop  offset="0.6565" style="stop-color:#368D86"/>
					<stop  offset="0.7885" style="stop-color:#38968B"/>
				</linearGradient>
				<path style="fill:url(#SVGID_00000083050650340586517020000006940299538387502476_);" d="M320.9,134.8l34.2-20.1
					c29.8-5.7,46.9,10.5,58.5,30.6L389,102.5l-24.7-42.8l-24.7,42.8L320.9,134.8z"/>
				
					<linearGradient id="SVGID_00000165952077443156867830000016609487207858622852_" gradientUnits="userSpaceOnUse" x1="334.7797" y1="411.2321" x2="392.523" y2="363.2529" gradientTransform="matrix(1 0 0 -1 0 502)">
					<stop  offset="9.750000e-04" style="stop-color:#23324F"/>
					<stop  offset="0.1696" style="stop-color:#295061"/>
					<stop  offset="0.4133" style="stop-color:#317678"/>
					<stop  offset="0.6095" style="stop-color:#368D86"/>
					<stop  offset="0.732" style="stop-color:#38968B"/>
				</linearGradient>
				<path style="fill:url(#SVGID_00000165952077443156867830000016609487207858622852_);" d="M320.9,134.8l43.8-36.7
					c20.6-1.9,27.8,11.1,39.4,31.1L389,102.5l-24.7-42.8l-24.7,42.8L320.9,134.8z"/>
				
					<linearGradient id="SVGID_00000004525038270240780280000009216439399977966758_" gradientUnits="userSpaceOnUse" x1="334.265" y1="411.6598" x2="405.5668" y2="352.4148" gradientTransform="matrix(1 0 0 -1 0 502)">
					<stop  offset="0" style="stop-color:#23324F"/>
					<stop  offset="0.3459" style="stop-color:#2A5162;stop-opacity:0.6541"/>
					<stop  offset="1" style="stop-color:#38968B;stop-opacity:0"/>
				</linearGradient>
				
					<path style="opacity:0.54;fill:url(#SVGID_00000004525038270240780280000009216439399977966758_);enable-background:new    ;" d="
					M320.9,134.8h22.6c27.9-17.5,54.9-6.1,70.1,10.5L389,102.5l-24.7-42.8l-24.7,42.8L320.9,134.8z"/>
				
					<linearGradient id="SVGID_00000118358801719203925090000017937344600980021149_" gradientUnits="userSpaceOnUse" x1="323.9897" y1="348.4211" x2="349.1723" y2="397.3263" gradientTransform="matrix(1 0 0 -1 0 502)">
					<stop  offset="9.750000e-04" style="stop-color:#235372"/>
					<stop  offset="0.12" style="stop-color:#2A6078"/>
					<stop  offset="0.5015" style="stop-color:#3F868A"/>
					<stop  offset="0.8082" style="stop-color:#4C9D95"/>
					<stop  offset="1" style="stop-color:#51A699"/>
				</linearGradient>
				<polygon style="fill:url(#SVGID_00000118358801719203925090000017937344600980021149_);" points="375.6,79.3 364.3,59.7 
					339.6,102.5 314.9,145.3 337.5,145.3 362.2,102.5 				"/>
				
					<linearGradient id="SVGID_00000036233820207947824520000011399033549382372281_" gradientUnits="userSpaceOnUse" x1="328.623" y1="349.1971" x2="370.9389" y2="425.0739" gradientTransform="matrix(1 0 0 -1 0 502)">
					<stop  offset="9.750000e-04" style="stop-color:#235372"/>
					<stop  offset="0.12" style="stop-color:#2A6078"/>
					<stop  offset="0.5015" style="stop-color:#3F868A"/>
					<stop  offset="0.8082" style="stop-color:#4C9D95"/>
					<stop  offset="1" style="stop-color:#51A699"/>
				</linearGradient>
				<polygon style="fill:url(#SVGID_00000036233820207947824520000011399033549382372281_);" points="370.2,70.1 351.5,102.5 
					326.8,145.3 337.5,145.3 362.2,102.5 375.6,79.3 				"/>
			</g>
		</g>
		<g class="st18">
			<text transform="matrix(1 0 0 1 310.4639 186.8535)" class="st25 st13 st14">Antes</text>
			<text transform="matrix(1 0 0 1 315.3271 204.6875)" class="st26 st16 st17">creative stuff</text>
		</g>
	</g>
	<g class="st8">
		<g class="st18">
			<g>
				
					<linearGradient id="SVGID_00000036247250121353323570000002817255469584134801_" gradientUnits="userSpaceOnUse" x1="402.9435" y1="128.0296" x2="343.4465" y2="257.7131" gradientTransform="matrix(1 0 0 -1 0 502)">
					<stop  offset="9.750000e-04" style="stop-color:#235372"/>
					<stop  offset="9.610000e-02" style="stop-color:#2A6078"/>
					<stop  offset="0.401" style="stop-color:#3F868A"/>
					<stop  offset="0.6462" style="stop-color:#4C9D95"/>
					<stop  offset="0.7994" style="stop-color:#51A699"/>
				</linearGradient>
				<polygon style="fill:url(#SVGID_00000036247250121353323570000002817255469584134801_);" points="356.6,305.1 393.7,369.2 
					415.5,369.2 367.5,286.2 				"/>
				
					<linearGradient id="SVGID_00000022542942358369362250000003887637725968176318_" gradientUnits="userSpaceOnUse" x1="376.1191" y1="165.4023" x2="348.6897" y2="148.864" gradientTransform="matrix(1 0 0 -1 0 502)">
					<stop  offset="9.750000e-04" style="stop-color:#23324F"/>
					<stop  offset="0.1295" style="stop-color:#295061"/>
					<stop  offset="0.3154" style="stop-color:#317678"/>
					<stop  offset="0.4649" style="stop-color:#368D86"/>
					<stop  offset="0.5584" style="stop-color:#38968B"/>
				</linearGradient>
				<polygon style="fill:url(#SVGID_00000022542942358369362250000003887637725968176318_);" points="393.7,369.2 339.7,334.5 
					356.6,305.1 				"/>
				
					<linearGradient id="SVGID_00000151504359332377423640000007956994227410840460_" gradientUnits="userSpaceOnUse" x1="356.6224" y1="162.7571" x2="327.1763" y2="121.6132" gradientTransform="matrix(1 0 0 -1 0 502)">
					<stop  offset="9.750000e-04" style="stop-color:#23324F"/>
					<stop  offset="0.2313" style="stop-color:#295061"/>
					<stop  offset="0.5645" style="stop-color:#317678"/>
					<stop  offset="0.8325" style="stop-color:#368D86"/>
					<stop  offset="1" style="stop-color:#38968B"/>
				</linearGradient>
				<polygon style="fill:url(#SVGID_00000151504359332377423640000007956994227410840460_);" points="319.6,369.2 341.4,369.2 
					367.5,352.4 339.7,334.5 				"/>
				
					<linearGradient id="SVGID_00000065043060628394596330000018234753832317914768_" gradientUnits="userSpaceOnUse" x1="357.3924" y1="150.8634" x2="323.6967" y2="103.7819" gradientTransform="matrix(1 0 0 -1 0 502)">
					<stop  offset="9.750000e-04" style="stop-color:#23324F"/>
					<stop  offset="0.2313" style="stop-color:#295061"/>
					<stop  offset="0.5645" style="stop-color:#317678"/>
					<stop  offset="0.8325" style="stop-color:#368D86"/>
					<stop  offset="1" style="stop-color:#38968B"/>
				</linearGradient>
				<polygon style="fill:url(#SVGID_00000065043060628394596330000018234753832317914768_);" points="337,369.2 341.4,369.2 
					367.5,352.4 352.4,342.7 				"/>
			</g>
		</g>
		<g class="st18">
			<text transform="matrix(1 0 0 1 281.8926 418.3398)" class="st25 st13 st14">Aesthetic</text>
			<text transform="matrix(1 0 0 1 313.211 436.1738)" class="st26 st16 st17">company tagline</text>
		</g>
	</g>
	<g class="st8">
		<g class="st18">
			<g>
				
					<linearGradient id="SVGID_00000114054810788322250330000015528748229692723095_" gradientUnits="userSpaceOnUse" x1="135.4831" y1="176.3327" x2="166.39" y2="132.1801" gradientTransform="matrix(1 0 0 -1 0 502)">
					<stop  offset="9.750000e-04" style="stop-color:#23324F"/>
					<stop  offset="0.2313" style="stop-color:#295061"/>
					<stop  offset="0.5645" style="stop-color:#317678"/>
					<stop  offset="0.8325" style="stop-color:#368D86"/>
					<stop  offset="1" style="stop-color:#38968B"/>
				</linearGradient>
				<path style="fill:url(#SVGID_00000114054810788322250330000015528748229692723095_);" d="M163.2,326.6c-7-2.1-29.4,4-41.7,17.8
					c41.7-6.5,38.3,31,66.8,24.3C179.3,366,168,345.5,163.2,326.6z"/>
				
					<linearGradient id="SVGID_00000082329570196737553140000003558453532313631412_" gradientUnits="userSpaceOnUse" x1="162.0556" y1="176.7962" x2="169.6373" y2="159.7375" gradientTransform="matrix(1 0 0 -1 0 502)">
					<stop  offset="9.750000e-04" style="stop-color:#23324F"/>
					<stop  offset="0.2313" style="stop-color:#295061"/>
					<stop  offset="0.5645" style="stop-color:#317678"/>
					<stop  offset="0.8325" style="stop-color:#368D86"/>
					<stop  offset="1" style="stop-color:#38968B"/>
				</linearGradient>
				<path style="fill:url(#SVGID_00000082329570196737553140000003558453532313631412_);" d="M159.9,326.3c3.8-0.4,5.6,0.7,6.7,3
					s-3.4,3.3-3.4,3.3L159.9,326.3z"/>
				
					<linearGradient id="SVGID_00000039096274124275433500000005297236240901350581_" gradientUnits="userSpaceOnUse" x1="162.0556" y1="176.7962" x2="169.6373" y2="159.7375" gradientTransform="matrix(1 0 0 -1 0 502)">
					<stop  offset="9.750000e-04" style="stop-color:#23324F"/>
					<stop  offset="0.2313" style="stop-color:#295061"/>
					<stop  offset="0.5645" style="stop-color:#317678"/>
					<stop  offset="0.8325" style="stop-color:#368D86"/>
					<stop  offset="1" style="stop-color:#38968B"/>
				</linearGradient>
				
					<path style="opacity:0.45;fill:url(#SVGID_00000039096274124275433500000005297236240901350581_);enable-background:new    ;" d="
					M159.9,326.3c3.8-0.4,5.6,0.7,6.7,3s-3.4,3.3-3.4,3.3L159.9,326.3z"/>
				
					<linearGradient id="SVGID_00000131361068562187575140000013020914409888431506_" gradientUnits="userSpaceOnUse" x1="94.0711" y1="170.3022" x2="166.56" y2="170.3022" gradientTransform="matrix(1 0 0 -1 0 502)">
					<stop  offset="9.750000e-04" style="stop-color:#235372"/>
					<stop  offset="0.12" style="stop-color:#2A6078"/>
					<stop  offset="0.5015" style="stop-color:#3F868A"/>
					<stop  offset="0.8082" style="stop-color:#4C9D95"/>
					<stop  offset="1" style="stop-color:#51A699"/>
				</linearGradient>
				<path style="fill:url(#SVGID_00000131361068562187575140000013020914409888431506_);" d="M149.7,290.8c-2.2-5-8.9-6.1-12.6-2
					c-43.9,49.3-45.5,78-41.8,83.9c11,17.4,43.9-22.4,58.3-12.3c-6.6-8.1-10-14.6-39.3-11.2c18.2-12.5,46.9-30.1,52.2-20
					L149.7,290.8z"/>
				
					<linearGradient id="SVGID_00000010312649294683904760000002004758818145134775_" gradientUnits="userSpaceOnUse" x1="94.0711" y1="170.3022" x2="166.56" y2="170.3022" gradientTransform="matrix(1 0 0 -1 0 502)">
					<stop  offset="9.750000e-04" style="stop-color:#235372"/>
					<stop  offset="0.12" style="stop-color:#2A6078"/>
					<stop  offset="0.5015" style="stop-color:#3F868A"/>
					<stop  offset="0.8082" style="stop-color:#4C9D95"/>
					<stop  offset="1" style="stop-color:#51A699"/>
				</linearGradient>
				<path style="fill:url(#SVGID_00000010312649294683904760000002004758818145134775_);" d="M149.7,290.8c-2.2-5-8.9-6.1-12.6-2
					c-43.9,49.3-45.5,78-41.8,83.9c11,17.4,43.9-22.4,58.3-12.3c-6.3-7.9-10-14.6-39.3-11.2c18.2-12.5,46.9-30.1,52.2-20
					L149.7,290.8z"/>
				
					<linearGradient id="SVGID_00000156547482077004986240000004804108514797603464_" gradientUnits="userSpaceOnUse" x1="142.8634" y1="172.6158" x2="172.9751" y2="129.5991" gradientTransform="matrix(1 0 0 -1 0 502)">
					<stop  offset="9.750000e-04" style="stop-color:#23324F"/>
					<stop  offset="0.2313" style="stop-color:#295061"/>
					<stop  offset="0.5645" style="stop-color:#317678"/>
					<stop  offset="0.8325" style="stop-color:#368D86"/>
					<stop  offset="1" style="stop-color:#38968B"/>
				</linearGradient>
				<path style="fill:url(#SVGID_00000156547482077004986240000004804108514797603464_);" d="M163.2,326.6
					c-7-2.1-21.6,5.2-35.1,13.5c36.9-4.3,35.1,29.3,60.2,28.5C179.3,366,168,345.5,163.2,326.6z"/>
				
					<linearGradient id="SVGID_00000057865304221667504950000009088743646486154922_" gradientUnits="userSpaceOnUse" x1="96.9133" y1="139.1049" x2="151.1144" y2="139.5351" gradientTransform="matrix(1 0 0 -1 0 502)">
					<stop  offset="9.750000e-04" style="stop-color:#23324F"/>
					<stop  offset="0.322" style="stop-color:#2A5262"/>
					<stop  offset="0.9181" style="stop-color:#38968B"/>
				</linearGradient>
				<path style="fill:url(#SVGID_00000057865304221667504950000009088743646486154922_);" d="M114.4,349.2
					C96.2,363,91.8,374.4,102,377.1c14.2,1.8,39.5-25.2,51.7-16.6C146.1,352.8,143.6,345.8,114.4,349.2z"/>
				
					<linearGradient id="SVGID_00000036236854232384913460000005800539643406423712_" gradientUnits="userSpaceOnUse" x1="96.9132" y1="139.1163" x2="151.1143" y2="139.5464" gradientTransform="matrix(1 0 0 -1 0 502)">
					<stop  offset="9.750000e-04" style="stop-color:#23324F"/>
					<stop  offset="0.322" style="stop-color:#2A5262"/>
					<stop  offset="0.9181" style="stop-color:#38968B"/>
				</linearGradient>
				<path style="fill:url(#SVGID_00000036236854232384913460000005800539643406423712_);" d="M114.4,349.2
					C96.2,363,91.8,374.4,102,377.1c14.2,1.8,39.5-25.2,51.7-16.6C146.2,352.5,143.6,345.8,114.4,349.2z"/>
				
					<linearGradient id="SVGID_00000073720828411811783520000009329569676976661888_" gradientUnits="userSpaceOnUse" x1="102.8041" y1="143.0302" x2="175.3871" y2="143.6062" gradientTransform="matrix(1 0 0 -1 0 502)">
					<stop  offset="9.750000e-04" style="stop-color:#23324F"/>
					<stop  offset="0.2313" style="stop-color:#295061"/>
					<stop  offset="0.5645" style="stop-color:#317678"/>
					<stop  offset="0.8325" style="stop-color:#368D86"/>
					<stop  offset="1" style="stop-color:#38968B"/>
				</linearGradient>
				<path style="fill:url(#SVGID_00000073720828411811783520000009329569676976661888_);" d="M114.4,349.2
					c-8.9,6.7-14.5,12.8-16.7,17.7c0.9,1.1,2.3,1.9,4.2,2.5c11.5,1.5,30-15.3,43.2-17.5C139.7,348.4,131,347.3,114.4,349.2z"/>
				
					<linearGradient id="SVGID_00000003079482780806015720000008214445042176903603_" gradientUnits="userSpaceOnUse" x1="99.05" y1="186.2234" x2="199.9683" y2="186.2234" gradientTransform="matrix(1 0 0 -1 0 502)">
					<stop  offset="0" style="stop-color:#51BBAC;stop-opacity:0"/>
					<stop  offset="1" style="stop-color:#51BBAC"/>
				</linearGradient>
				<path style="fill:url(#SVGID_00000003079482780806015720000008214445042176903603_);" d="M166.6,329.3l-16.9-38.5
					c-2.2-5-8.9-6.1-12.6-2c-21.1,23.7-32.4,42.6-38.1,56.6C123.4,328.9,160.3,314.9,166.6,329.3z"/>
				
					<linearGradient id="SVGID_00000138544763109857025930000003708879571071754624_" gradientUnits="userSpaceOnUse" x1="95.6749" y1="194.1681" x2="174.1303" y2="194.1681" gradientTransform="matrix(1 0 0 -1 0 502)">
					<stop  offset="0" style="stop-color:#51BBAC;stop-opacity:0"/>
					<stop  offset="1" style="stop-color:#51BBAC"/>
				</linearGradient>
				<path style="fill:url(#SVGID_00000138544763109857025930000003708879571071754624_);" d="M137.1,288.8
					c-13.9,15.6-23.6,29.2-30.2,40.7c18.4-10.9,40.8-19.3,52.5-16.5l-9.7-22.1C147.5,285.7,140.8,284.6,137.1,288.8z"/>
			</g>
		</g>
		<g class="st18">
			<text transform="matrix(1 0 0 1 58.045 418.3398)" class="st25 st13 st14">Alternate</text>
			<text transform="matrix(1 0 0 1 73.958 436.1738)" class="st26 st16 st17">make thigs different</text>
		</g>
	</g>
	
		<linearGradient id="SVGID_00000181064024803885983760000017540930274058113947_" gradientUnits="userSpaceOnUse" x1="-126.6721" y1="1293.5436" x2="-29.2623" y2="1058.2162" gradientTransform="matrix(1.1674 -1.2877 1.1014 0.9986 -927.3227 -852.5735)">
		<stop  offset="9.750000e-04" style="stop-color:#235372"/>
		<stop  offset="0.12" style="stop-color:#2A6078"/>
		<stop  offset="0.5015" style="stop-color:#3F868A"/>
		<stop  offset="0.8082" style="stop-color:#4C9D95"/>
		<stop  offset="1" style="stop-color:#51A699"/>
	</linearGradient>
	<path style="fill:url(#SVGID_00000181064024803885983760000017540930274058113947_);" d="M367.7,270.8
		c51.8,90.2,92.5,176.7,114.4,225l-85.5-18c-6.2-18.5-16.2-44.3-32.7-72C320.5,332.6,263.7,298,221,272.8
		c-43-25.4-111.7-57.6-209.1-72c73.7-7.6,147.4-15.3,221.2-22.9c12.5-0.1,31.2,1.3,51.6,9.4C329.2,205,351.9,243.2,367.7,270.8z"/>
	
		<linearGradient id="SVGID_00000114767681651105328550000011975852407802009743_" gradientUnits="userSpaceOnUse" x1="-87.2737" y1="1307.7" x2="-1.0021" y2="1099.281" gradientTransform="matrix(1.1674 -1.2877 1.1014 0.9986 -927.3227 -852.5735)">
		<stop  offset="9.746900e-04" style="stop-color:#92D4D2"/>
		<stop  offset="1" style="stop-color:#51BBAC"/>
	</linearGradient>
	<path style="fill:url(#SVGID_00000114767681651105328550000011975852407802009743_);" d="M367.3,265.1
		c27.1,51.3,54.1,104.1,80.8,158.2c12,24.3,23.6,48.4,35.1,72.4c-9.2-14.1-87.6-133.9-144.5-203.2c-10.3-12.5-26.1-31-50.3-50.2
		c-31.1-24.7-58.1-36.3-64.3-38.9c-25.8-10.8-49.2-15.6-66.8-17.8c23.1-2.4,46.3-4.8,69.4-7.2c10.2-0.8,25.9-0.8,43.9,4.1
		c3.3,0.9,19.1,5.3,37.5,17.1C340,219.9,358.2,248.1,367.3,265.1z"/>
</g>
</svg>
