<?xml version="1.0" encoding="UTF-8"?><svg version="1.1" viewBox="-.35461 0 238.849 213.76" xmlns="http://www.w3.org/2000/svg"><defs><clipPath id="a"><path d="M0 0h238.14v213.76H0Z"/></clipPath></defs><path clip-path="url(#a)" opacity=".5" fill="#5CAAFF" d="M119.39 2.28c64.14 0 116.33 52.19 116.33 116.33s-52.19 116.33-116.33 116.33 -116.32-52.2-116.32-116.34C3.07 54.46 55.25 2.28 119.39 2.28v0ZM12.81 160.92c1.75 2.81 3.91 5.46 6.5 7.92 -7.43-16.24-9.92-23.79-12.15-42.57 -.77 2.26-1.36 3.97-1.67 5.64 1.18 10.13 3.68 19.84 7.33 29v0Zm65.02 64.57c.29.08.57.18.86.26 1.36.36 2.75.7 4.16 1.01 -15.76-6.93-22.05-10.78-35.36-21.71 .27 1.46.48 2.57.91 3.55 8.85 7 18.76 12.73 29.44 16.89v0Zm14.68 4.62c-2.72-.82-5.72-1.83-9.11-3.13 .12.25.22.45.31.63 2.89.95 5.82 1.78 8.8 2.5Zm129.67-60.64c.05-2.06-1.06-3.75-4.27-6.78 -5.6 14.13-8.7 20.83-19.23 35.3 2.53-1.94 4.93-3.95 7.2-6.03 2.84-2.61 5.37-5.24 7.62-7.87 3.23-4.63 6.14-9.52 8.68-14.62ZM13.12 75.49c-.63 2.74-.95 5.43-.9 8.05 5.59-14.79 8.79-21.03 19.21-33.86 -2.5 1.41-4.79 2.72-6.63 4.14 -4.63 6.74-8.55 14-11.68 21.68v0Zm215.83 9.08c-2.41-4-5.08-6.24-12.49-10.46 5.96 16.13 7.86 23.78 8.91 43.42 4.35-8.32 6.28-16.46 5.93-24.08 -.67-3-1.44-5.97-2.34-8.89v0ZM207.04 44.7c-2.93-2.09-6.32-3.48-14.24-5.63 11.22 11.82 15.65 17.77 23.41 34.42 1.16-7.02.37-13.7-2.28-19.76 -2.15-3.13-4.46-6.13-6.89-9.02v0Zm-23.39-21.07c4.66 4.4 7.67 9.55 8.97 15.18v0c7.39 2.02 10.92 3.31 14.12 5.55 -6.73-7.9-14.48-14.89-23.08-20.74v0Zm-7.94-4.9c-4.15-1-7.96-1.15-16.54-.87 14.16 5.86 20.23 9.3 33.18 20.78 -1.3-5.67-4.36-10.85-9.09-15.28 -2.45-1.65-4.97-3.18-7.54-4.63v0ZM86.64 52.59c-1.41-11.14-1.06-15.89 3.97-25.89 -6.1 9.46-10 14.67-18.98 25.42 4.59.97 9.73 1.09 15.01.49v0Zm-15.17-.19v0c-2.92 12.04-3.29 17.76-.17 32.48 7.78-13.74 10.94-20.32 15.32-31.99 -5.33.61-10.52.49-15.15-.49Zm15.32-27.28c-.66-.14-1.3-.27-1.95-.39 -.49-.1-.97-.2-1.45-.28 -.67-.12-1.33-.21-1.99-.31 -.44-.07-.9-.15-1.34-.2 -.72-.1-1.42-.17-2.13-.24 -.37-.04-.75-.09-1.12-.12 -.92-.08-1.83-.14-2.74-.19 -.13 0-.27-.02-.42-.03 -1.04-.04-2.06-.06-3.07-.06 -.3 0-.59.02-.9.03 -.7 0-1.39.03-2.07.06 -.38.02-.75.06-1.13.09 -.55.04-1.1.08-1.64.13 -1.79 1.66-3.28 3.33-4.47 5 11.91-3.99 17.55-4.89 29.49-2.74 -.51-.13-1.02-.25-1.53-.37s-1.04-.26-1.55-.36v0Zm-21.95-1.6c-.32.04-.62.09-.93.13 .43-.05.84-.12 1.28-.16 -.12 0-.23.03-.35.04v0Zm-15.82 4.61c.23-.12.46-.24.69-.35 -.2.1-.41.19-.61.29 -.03.02-.05.04-.08.06Zm4.99 157.12c14.42 3.03 30.59 3.41 47.18 1.52 -14.67-12.2-20.2-17.72-31.14-31.06 -8.09 14.53-13.44 24.38-16.05 29.54v0Zm16.38-29.71v0c11.03 13.35 17.15 19.43 31.16 31.01 8.01-17.01 10.53-22.79 15.85-36.43 -15.84 3.92-31.94 5.84-47.01 5.42l-.42-.54c8.77-16 11.97-22.3 18.01-35.5 -13.43 1.53-26.53 1.22-38.2-1.23v0l-.19-.58 .19.58c5.62 14.76 8.94 21.37 20.2 36.73l.42.54v0Zm78.89 73.82c8.48-2.29 16.57-5.52 24.16-9.59 -2.4.06-5.42-.42-10.93-1.66 -5.47 5.64-8.58 8.6-13.23 11.24v0Zm9.51-211.47c-10.13.66-15.25 1.18-30.46 3.07 14.27 2.52 20.48 4.55 34.1 13.18 .98-5.95-.26-11.52-3.64-16.25v0Zm3.97 16.38v0l-.52-.05 .52.05c15.1 1.7 20.34 2.49 29.49 4.47 -11.87-10.47-17.66-14.46-33.15-20.79 3.28 5.3 4.52 8.74 3.66 16.32Zm-74.14 85.18h-.02c9.97 12.63 15.66 18.53 29.02 30.08 6.01-16.81 8.31-25.05 11.21-40.1 -13 5-26.77 8.43-40.21 10.02Zm40.08-10.35c-13.56-11.01-18.46-15.8-27.59-26.96 -3.56 14.37-5.9 21.28-12.52 36.95 13.42-1.59 27.14-5.02 40.12-10v0Zm-58.35 46.12c15.06.42 31.13-1.51 46.96-5.41 -13.5-11.74-19.46-17.94-28.99-30.13 -6.35 13.9-9.21 19.55-17.96 35.54v0Zm31.64 31.49c16.61-1.97 33.61-6.21 49.67-12.38 -15.26-9.73-21.59-14.23-33.85-24.09 -5.54 14.2-7.9 19.65-15.82 36.47v0Zm16.05-37.09c15.83-3.98 31.38-9.95 45.39-17.57 -15.39-9.07-22.11-13.49-34.23-22.56 -3.07 15.84-5.15 23.34-11.16 40.13Zm11.39-40.42c12.79 9.5 18.87 13.5 34.26 22.5 2.45-17.34 2.92-24.95 1.27-42 -10.33 7.86-22.54 14.45-35.52 19.5v0Zm70.82-5.41c8.94-10.07 14.2-20.25 15.89-29.81 -8.78-4.14-13.17-5.76-27.6-10.17 6.95 14.39 9.32 21.39 11.72 39.99v0ZM188.3 63.88c-3.44 6.43-8.63 12.98-15.63 19.4 -2.29 2.09-4.7 4.11-7.23 6.05v0c11.43 5.02 23.02 9.66 34.52 14.54 -2.22-17-4.02-24.31-11.65-39.99Zm-35.52-10.39c6.71 11.53 9.33 17.2 12.44 35.56 2.53-1.94 4.94-3.95 7.21-6.04 6.98-6.4 12.17-12.93 15.6-19.34 -11.74-3.43-23.52-6.71-35.25-10.17v0Zm12.52 36.18c1.52 16.23 1.29 24.48-1.21 42.03 10.53-5.79 20.17-12.51 28.37-20.03 2.68-2.45 5.13-4.93 7.36-7.4 -11.5-4.88-23.1-9.54-34.52-14.6Zm-.56-.25c-15.61-7.29-22.43-10.92-34.72-18.46 1.71 14.23 1.57 21.68-.72 37.92 12.96-5.03 25.12-11.61 35.44-19.45v0ZM130.12 70.7c12.82 7.8 19.32 11.23 34.75 18.38 -2.9-16.83-5.1-23.15-12.37-35.55 -1.4 1.55-2.93 3.1-4.62 4.63 -5.14 4.71-11.17 8.91-17.77 12.54v0Zm17.5-12.76c1.67-1.53 3.2-3.07 4.59-4.62 -17.91-5.5-23.52-7.55-34.83-12.21 6.97 9.54 9.47 14.55 12.55 29.31 6.57-3.61 12.57-7.8 17.69-12.49v0Zm5.14-4.71c11.72 3.43 23.5 6.69 35.23 10.1 -8.07-13.37-12.37-18.77-25.28-28.77 -1.05 5.99-4.34 12.36-9.95 18.67v0Zm35.48 10.02c4.45-8.5 5.81-16.78 4.19-24.25 -9.69-2.08-14.38-2.8-29.53-4.53 11.79 9.22 16.55 14.12 25.34 28.77Zm-25.86-28.82c-11.91-1.25-23.84-2.39-35.75-3.63 11.94 6.27 16.77 9.95 25.85 22.22 5.57-6.27 8.85-12.62 9.91-18.58v0Zm26.12 29.05v0c14.38 4.4 19.28 6.19 27.57 10.12 -7.14-15.21-11.08-21.57-23.36-34.42 1.62 7.47.26 15.77-4.2 24.3v0Zm11.92 40.59v0c13.37 6 17.78 8.41 24.78 13.56 -1.01-17.95-2.3-25.83-8.86-43.41 -1.69 9.58-6.95 19.77-15.91 29.85v0Zm-.12.39c.83 16.07.75 23.6-3.43 45.03 3.13-2.4 6.11-4.89 8.93-7.48 8.65-7.91 15.06-16.01 19.31-23.95 -7.36-5.35-11.53-7.64-24.81-13.58v0Zm-.3.08c-2.23 2.48-4.69 4.95-7.37 7.42 -8.21 7.52-17.86 14.25-28.4 20.04v0c3.73 2.1 14.5 7.94 32.31 17.54 3.8-19.67 4.41-27.67 3.47-45v0Zm-36.04 27.81c-3.26 16.82-5.42 24.61-11.56 41.68 16.04-6.23 31.11-14.37 43.87-24.09 -17.43-9.41-28.21-15.27-32.32-17.59v0Zm-.4 0c-14.03 7.63-29.6 13.61-45.44 17.59v0c12.77 10.21 18.78 14.48 33.86 24.05 6.13-17.1 8.52-25.66 11.59-41.65v0Zm-27.61 75.54c15.82-3.98 31.37-9.94 45.37-17.56 -12.55-6.03-17.72-8.82-29.16-15.69 -5.84 14.46-8.87 20.67-16.22 33.26v0Zm.08.21v0c11.67 5.26 16.62 7.09 26.45 9.77 8.37-9.76 11.73-14.6 18.88-27.32 -13.99 7.61-29.53 13.58-45.33 17.55v0Zm-.33.2c-5.71 9.12-8.12 12.62-13.61 19.74 13.4-1.59 27.13-5.02 40.09-10 -9.91-2.7-15.35-4.71-26.48-9.75Zm16.05-33.69c-16.07 6.17-33.06 10.41-49.68 12.38h-.02c13.3 9.98 19.57 13.88 33.49 20.87 7.43-12.8 10.61-19.32 16.21-33.26v0Zm-50.03 12.59c-2.42 4.96-6.9 13.72-13.44 26.28 15.05.42 31.11-1.5 46.93-5.41 -13.97-7.04-20.85-11.33-33.5-20.87v0ZM71.05 85.06c-2.76-13.48-3.07-19.38.22-32.52 -8.54 9.73-12.32 13.79-25.24 27.15 2.48 1.17 5.25 2.18 8.31 3 5.18 1.4 10.81 2.17 16.7 2.36v0Zm-16.83-2.03c-3.07-.82-5.85-1.84-8.35-3.02v0c-1.45 14.56-1.15 20.9 3.7 37.68C59.63 103.6 63.63 97.57 70.99 85.4c-5.92-.19-11.57-.97-16.77-2.37Zm2.14-44.13c-12.81 5.04-17.41 7.04-24.65 10.65 -2.1 6.12-1.96 11.96.35 17.09 7.66-12.85 11.78-18.04 24.3-27.74Zm-24.4 28.24v0c-6.46 13.8-8.55 20.4-9.96 37.52 7.29-8.06 8.84-9.69 23.57-24.79 -6.66-3.21-11.22-7.6-13.61-12.73v0Zm-9.87 37.83c5.47 5.1 13.17 9.18 23.05 11.85 1.36.37 2.75.7 4.16 1.01 -4.39-15.47-5.33-21.91-3.64-37.72 -14.83 15.26-16.58 17.12-23.55 24.87v0Zm23.64-25.42c3.04-13.97 5.32-19.89 14.52-32.22 -15.93 10.86-19.34 13.24-28.07 19.55 2.37 5.1 6.92 9.47 13.55 12.67v0Zm25.47 6.03c-7.65 12.67-11.44 18.41-21.37 32.35 11.64 2.45 24.71 2.76 38.11 1.23C78.92 106 75.63 100 71.19 85.58v0ZM49.49 118.4c-9.94 13.65-16.6 23.04-19.97 28.17 3.99 1.88 8.43 3.5 13.33 4.82 8.31 2.24 17.34 3.47 26.8 3.78 -10.23-14.09-14.12-20.63-20.16-36.78v0Zm-.24-.24c-1.41-.3-2.8-.65-4.16-1.01 -9.9-2.68-17.62-6.77-23.09-11.87v0c.13 16.14 1.11 23.47 7.29 40.99 3.52-5.33 10.17-14.7 19.97-28.11v0ZM21.79 105.3c-8.32 9.78-11.03 13.65-14.49 20.7 3.81 8.18 11.09 15.2 21.74 20.33 -5.57-16.06-7.2-23.39-7.24-41.02v0Zm10.02-38.17c-10.49 7.9-14.15 11.02-19.57 16.77 .21 7.82 3.44 14.94 9.57 20.78 1.37-15.67 2.85-22.5 10-37.54v0Zm.06-.26c-2.32-5.15-2.46-11.01-.35-17.16v0c-9.49 11.79-13.16 17.66-19.2 33.85 5.68-5.95 9.15-8.91 19.56-16.69v0Zm28.07-38.1c-8.54.77-11.29 1.06-13.62 1.5 -2.37 1.96-4.64 4.03-6.84 6.18 -3.61 4.3-6.16 8.61-7.65 12.8 10.13-10.47 15.05-14.43 28.11-20.47Zm-13.4 1.3c2.28-.41 4.59-.65 13.59-1.42 1.2-1.69 2.7-3.39 4.52-5.05 -5.93.65-11.23 2.24-15.84 4.68 -.76.59-1.53 1.18-2.28 1.79Zm15.15-6.14c-.43.07-.84.16-1.26.24 .42-.08.83-.17 1.26-.24Zm-3.2.66c-.43.11-.85.22-1.28.34 .43-.12.84-.23 1.28-.34Zm-3.06.85c-.43.13-.83.27-1.25.43 .42-.14.82-.29 1.25-.43Zm-2.92 1.05c-.4.16-.8.33-1.19.5 .39-.18.79-.34 1.19-.5Zm7.51 2.31c-11.95 5.6-17.09 8.97-28.13 20.47 7.58-3.73 11.95-5.61 24.64-10.56 -.04-3.11 1.1-6.5 3.48-9.91v0Zm-3.18 9.75c12.28-7.66 18.13-10.21 33.25-12.36 -11.5.97-26 2.22-29.8 2.55 -2.37 3.38-3.5 6.73-3.45 9.81v0Zm-.3.31c-11.42 8.93-16 13.65-24.29 27.73 9.13-6.57 12.28-8.75 28.09-19.47 -2.44-2.32-3.72-5.16-3.8-8.26v0Zm4.07 8.02c9.71-10.37 14.76-14.31 29.48-20.45 -14.94 5.35-21.77 7.88-33.25 12.26 .09 3.07 1.36 5.88 3.77 8.18v0Zm-.15.35C52.11 58.55 49.2 64.15 45.99 79.42 58.4 66.63 62.67 62.11 71.28 52.34c-.56-.12-1.11-.26-1.66-.4 -3.93-1.06-6.99-2.69-9.16-4.71v0Zm9.34 4.42c.54.14 1.08.27 1.64.4 4.62-11.68 7.65-16.43 18.85-25.44 -10.67 7.49-13.98 9.77-29.56 20.38 2.15 2 5.18 3.62 9.07 4.66Zm16.94 1.36c-4.57 12.16-7.57 18.45-15.24 32.03 9.38.26 19.41-.94 29.27-3.38C92.66 70.21 89.84 65.06 86.74 53Zm-15.3 32.38v0c4.16 13.19 6.87 19.18 16.8 33.51 6.64-15.69 9.22-23.27 12.6-36.91 -9.91 2.45-19.97 3.65-29.39 3.39v0Zm29.85-3.51c8.91 10.76 13.61 15.6 27.64 26.89 2.23-16.03 2.61-22.95.79-37.89 -8.77 4.78-18.51 8.51-28.42 11v0Zm28.23-11.28c-13.24-8.87-17.95-12.72-26.51-21.65 1.3 11.84.95 18.24-1.78 32.6 9.86-2.48 19.57-6.2 28.3-10.95v0Zm-26.46-21.83c8.37 8.6 12.87 12.48 26.56 21.57 -2.84-13.46-4.82-18.94-12.47-29.3 -4.1 3.12-8.94 5.73-14.09 7.74v0Zm13.83-7.92c-12.1-5.52-16.92-8.07-25.47-14.37 6.57 6.42 8.87 10.1 11.51 22.04 5.1-1.98 9.9-4.57 13.96-7.67Zm.44.04c11.82 4.81 17.16 6.74 34.85 12.12 -8.33-11.17-12.73-15.45-25.78-22.22 -1.36 2.55-3.42 5.15-6.2 7.69 -.9.83-1.86 1.63-2.87 2.4v0Zm2.59-2.56c2.75-2.52 4.79-5.1 6.14-7.62 -15.78-1.75-22.53-2.62-34.33-4.47 11.61 2.86 16.34 5.1 25.34 14.47 .99-.76 1.94-1.56 2.84-2.38Zm6.57-7.68c11.91 1.21 23.82 2.31 35.73 3.54 -12.49-7.83-18.48-10.51-34.06-13.18 .65 2.97.11 6.26-1.67 9.64v0Zm1.31-9.64c-12.92 1.69-19.97 2.67-35.92 4.97 14.16-1.19 20.37-.73 34.28 4.57 1.75-3.35 2.29-6.61 1.65-9.54v0Zm.33-.13c15.34-1.95 20.74-2.51 30.41-3.15 -14.26-4.39-20.71-5.5-35.97-4.48 2.67 2.03 4.37 3.55 5.56 7.63v0Zm30.49-3.23c-3.46-4.71-9.06-8.58-16.72-11.17 -5.28 1.4-8.52 2.52-19.24 6.67 13.97-.87 20.39-.38 35.97 4.48v0Zm-36.36-4.33c-10.44 4.15-16.7 6.71-30.44 12.44 13.67-4.79 20.05-6.02 35.94-4.88 -.67-2.92-2.53-5.53-5.5-7.56ZM91.59 25.6c10.36-7.37 15.62-9.89 30.54-12.38 -1.9-1.27-4.24-2.3-7.03-3.06 -1.64-.44-3.37-.77-5.16-.98 -5.76 5.65-9.54 9.02-18.34 16.41v0Zm23.75-15.53c2.81.76 5.18 1.81 7.09 3.08v0c10.78-4.21 14.18-5.41 19.16-6.73 -14.07-1.34-20.54-.8-31.47 2.66 1.81.21 3.55.54 5.21.99v0Zm43.6 7.64v0c8.41-.27 12.45-.12 16.42.81 -7.76-4.36-16.07-7.82-24.81-10.3 -2.53-.58-5.27-1.15-8.41-1.72 7.7 2.6 13.33 6.48 16.79 11.21v0Zm57.47 56.04v0c7.03 4.04 9.92 6.28 12.37 10.26 -3.41-10.77-8.37-20.84-14.62-29.99 2.62 6.05 3.4 12.72 2.25 19.72v0Zm9.07 44.09v0c5.12 4.64 7.22 7.07 8.15 11.19 .31-3.44.5-6.9.5-10.42 0-8.49-.96-16.75-2.71-24.71 .33 7.58-1.6 15.67-5.94 23.94v0Zm8.11 11.68c-.82-3.83-2.56-6.24-8.2-11.27 -.41 17.56-1.41 25.44-7.25 43.82 6.9-7.77 11.58-15.61 14.14-23.17 .55-3.08 1-6.2 1.3-9.37v0Zm-8.37-11.19c-4.24 7.95-10.66 16.04-19.31 23.96 -2.82 2.59-5.8 5.08-8.93 7.48v0c10.74 5.83 17.73 9.96 20.97 12.39 5.63-17.88 6.92-25.66 7.28-43.83v0Zm-28.49 31.82c-3.93 15.38-6.22 22.8-14.74 39.8 10.53-5.79 20.16-12.5 28.37-20.02 2.68-2.45 5.13-4.93 7.36-7.4 -3.34-2.46-10.34-6.58-20.99-12.38Zm-.35.07c-12.77 9.71-27.84 17.86-43.88 24.09v0c12 7.19 16.63 9.69 29.15 15.69 7.82-15.73 10.44-22.79 14.74-39.79v0Zm-33.59 67.58c12.94-5.02 25.1-11.6 35.41-19.44 -1.68-.93-7.18-3.55-16.5-7.88 -6.51 11.48-9.83 16.82-18.91 27.32v0Zm0 .13v0c5.69 1.28 8.6 1.75 10.9 1.7 3.6-1.94 7.08-4.08 10.44-6.38 4.48-3.68 8.21-7.71 14-14.72 -10.28 7.82-22.42 14.38-35.33 19.4v0Zm-13.89 11.52c4.25-2.41 7.23-5 13.28-11.29 -12.93 4.97-26.63 8.38-39.99 9.97h-.02c8.86 2.05 13.89 2.99 20.98 2.69 1.94-.41 3.85-.87 5.75-1.38v0ZM121.7 228c5.57-7.28 8.12-10.97 13.58-19.74 -15.81 3.91-31.86 5.82-46.89 5.41v0c12.37 6.9 18.45 9.92 33.32 14.33v0Zm-33.59-14.23c-4 8.02-4.75 10.1-4.75 13.1 11.64 2.45 24.69 2.76 38.08 1.22 -13.76-4.12-19.68-6.66-33.34-14.33v0Zm13.17-26.7c-16.6 1.9-32.77 1.51-47.19-1.52v0c11.27 11.77 17.1 17.21 33.76 27.8 6.61-12.71 11.09-21.47 13.43-26.27v0Zm-47.47-1.44c-4.54 9.63-6.03 13.25-6.34 19.2 3.98 1.88 8.43 3.5 13.33 4.82 8.3 2.24 17.34 3.47 26.79 3.78 -15.37-9.84-21.37-14.77-33.76-27.82v0Zm15.87-30.12c-9.46-.31-18.51-1.54-26.83-3.79 -4.9-1.32-9.36-2.95-13.35-4.83v0l-.25-.62 .25.62c7.08 15.86 10.88 22.39 24.11 38.11 2.69-5.32 8.05-15.15 16.07-29.49Zm-40.43-8.57c-6.62 11.01-8.14 14.54-9.6 22.23 6.76 6.3 16.31 11.36 28.53 14.67 1.68.45 3.4.87 5.15 1.25 -12.12-14.52-16.48-20.9-24.08-38.15v0Zm-.25-.29c-10.65-5.14-17.94-12.16-21.76-20.35v0c2.12 17.16 3.98 24.84 12.18 42.54 1.4-7.12 2.45-10.41 9.59-22.2v0Zm-7.33-41.66c-6.14-5.85-9.38-12.99-9.59-20.82v0c-4.46 15.79-5.64 23.15-4.89 41.46 3.65-7.33 6.22-10.99 14.48-20.64Zm-8.73-29.07c-1.63 4.06-3.04 8.22-4.21 12.49 .75-1.3 1.77-2.76 3.34-4.61 -.04-2.56.26-5.2.87-7.89v0Zm18.64-26.49c1.46-4.14 3.98-8.4 7.51-12.65 -5.19 5.1-9.91 10.7-14.06 16.7 1.38-1.1 3.37-2.37 6.56-4.05Zm17.71-21.55c4.44-2.3 9.53-3.81 15.2-4.42 -3.68-.64-5.79-1.08-6.89-1.44 -2.86 1.83-5.64 3.79-8.32 5.87v0Zm8.53-6.01c1.06.37 3.17.82 7.02 1.52 3.7-3.36 8.25-6.25 13.22-8.55v0c-3.81-.06-6.69.16-9.96 1.19 -3.54 1.77-6.97 3.73-10.29 5.85v0Zm7.25 1.49c11.48-2.18 16.23-1.72 25.34 2.44 -7.65-4.71-10.18-6.72-12.24-10.91 -4.92 2.28-9.43 5.14-13.1 8.47Zm13.06-8.61c-.11-1.15-.2-2.33.56-3.39 -3.53 1.35-6.97 2.86-10.33 4.53 3-.92 5.94-1.24 9.77-1.14v0Zm.84-3.5c-.75.82-1.12 1.91-.67 3.48 4.98-2.29 10.37-3.98 15.74-4.96v0c-.7-.99-1.43-1.98-2.85-2.37 -4.16 1.05-8.24 2.36-12.21 3.85v0Zm-.57 3.54c6.63 1.64 9.06 3.25 12.39 10.84 -1.67-7.32-1.45-10.27 3.21-15.76 -5.32.98-10.66 2.66-15.59 4.92v0Zm15.78-5.1c2.73-2.05 4.97-3.49 8.18-4.54 -3.71.56-7.37 1.29-10.96 2.2 1.31.24 1.87 1.03 2.78 2.34v0Zm.1.03c5.37-.97 10.71-1.23 15.6-.67l-.18.19c-10.47 4.88-13.8 7.87-18.71 16.78 3.35-8.32 4.16-11.45 3.09-16.11 -4.55 5.49-5.08 8.2-3.17 16.12 -3.31-7.54-5.42-9.41-12.58-11.15 2.06 4.15 4.28 6.13 12.51 11.18 -8.99-4.13-13.45-4.97-25.75-2.62l.13.03h-.06c7.11-.69 15.12 0 23.87 2.18 .31.08.62.14.93.22 -.04 0-.06 0-.1-.02 .21.05.42.1.63.15 .14.04.28.07.43.12 -11.9-2.28-17.6-1.81-30.48 2.51 10.11-.83 20.21-1.66 30.32-2.49 -14.8 2.07-20.8 4.27-33.82 12.41 12.09-4.58 18.72-7.01 33.82-12.37 -14.41 5.96-19.74 9.63-30.01 20.64 15.69-10.63 19.62-13.32 30.04-20.6 -10.95 8.77-14.37 13.34-19.22 25.72 9.27-11.04 13.24-16.32 19.28-25.7 -4.94 9.75-5.66 14.4-4.12 26.19l.09.44v0c2.93 11.03 5.14 16.12 14.09 28.6 2.69-14.17 3.26-20.16 1.87-32.58 -5.16 1.98-10.62 3.34-15.95 3.98l-.09-.44c3.91-12.49 4.65-17.15 4.19-26.19 1.86 8.78 3.95 12.73 11.78 22.22 -2.6-11.61-4.68-15.56-11.7-22.25 8.36 6.12 12.94 8.69 25.8 14.51 -8.92-9.18-13.26-11.63-25.74-14.55 12.49 1.92 18.66 2.71 34.82 4.45 -13.59-5.1-19.78-5.9-34.79-4.49 16.6-2.45 23.41-3.4 36.47-5.15 -15.53-1.03-22.01-.12-36.47 5.11 13.99-5.88 20.63-8.62 30.91-12.74 -14.55 2.51-20.05 4.77-30.95 12.72 9.22-7.78 12.88-11.08 18.64-16.79l.18-.19v0c2.53-2.69 3.63-3.87 4.36-5.03 -3.95.18-7.85.55-11.7 1.12 -2.83.92-5.34 2.3-8.27 4.59h.02Zm-.04.11c.9 4.16.61 6.73-3.04 15.73 4.73-8.31 7.74-11.48 18.49-16.39 -4.84-.55-10.14-.29-15.45.67v0Zm8.45 38.79c-7.34-8.99-9.76-12.96-11.67-21.98 .38 8.63-.12 13.07-4.13 25.92 5.28-.63 10.7-1.98 15.8-3.93v0Zm16.72-44.74c-1.64-.0001-3.26.05-4.87.12 -.71 1.06-1.6 2.08-4.41 5 10.97-3.39 16.42-4.14 31.43-2.64 -.85-.28-1.74-.54-2.63-.79 -6.34-1.09-12.86-1.69-19.5-1.69v0Zm22.38 2.49v0c.31-.05.57-.1.82-.13 -1.05-.22-2.13-.39-3.19-.58 .81.23 1.6.46 2.37.71Zm1.02-.09c-.2.04-.43.09-.72.15 2.88.54 5.44 1.05 7.82 1.6 -2.34-.65-4.71-1.24-7.11-1.75Zm89.4 133.07c-2.58 7.5-7.23 15.25-14.07 22.95v0c2.98 2.9 4.26 4.59 4.21 6.86 4.59-9.3 7.93-19.31 9.86-29.81Zm-14.49 23.41c-2.22 2.47-4.68 4.94-7.36 7.4 -8.2 7.51-17.82 14.21-28.34 19.99v0c9.26 4.32 14.75 6.95 16.46 7.9 9.69-13.41 13.1-19.68 19.23-35.3v0Zm-19.38 35.66c-5.51 6.62-9.15 10.66-13.58 14.37 5.49-3.82 10.64-8.1 15.38-12.8 -.39-.66-.6-.82-1.8-1.58v0Zm-78.93 34.88c8.05 0 15.9-.84 23.48-2.43 -6.4.27-11.21-.4-20.95-2.68 -2.3 2.88-3.46 4.33-4.04 5.06 .51 0 1.01.04 1.52.04v0Zm2.17-5.11c-13.36 1.52-26.39 1.21-38-1.22v0c3.51 1.25 6.75 2.39 10.1 3.39 7.7 1.77 15.69 2.76 23.89 2.9 .56-.72 1.69-2.14 4.01-5.07v0Zm-38.53-1.34c-1.4-.3-2.78-.64-4.15-1.01 -.18-.05-.35-.11-.52-.16 1.59.61 3.19 1.18 4.81 1.72 -.05-.15-.09-.33-.14-.56v0Zm-35.4-21.82c12.91 10.51 19.12 14.63 35.38 21.7 .03-3.17.73-5.14 4.71-13.11 -9.44-.31-18.47-1.54-26.76-3.78 -4.89-1.32-9.33-2.94-13.31-4.82v0Zm5.8-19.65c-1.75-.38-3.46-.8-5.15-1.25 -12.23-3.31-21.76-8.37-28.53-14.67v0c8.68 15.37 13.32 21.84 27.37 35.12 .36-6.08 1.52-9.07 6.31-19.2Zm-33.81-15.92c-.07 2.49-.11 4.27.2 5.97 4.94 8.63 10.96 16.56 17.89 23.6 2.74 2.03 5.81 3.89 9.25 5.55 -12.81-12.2-17.95-18.29-27.35-35.12v0Zm-.22-.33c-2.55-2.43-4.69-5.04-6.42-7.81 1.91 4.73 4.12 9.3 6.62 13.7 -.33-1.52-.41-3.27-.19-5.89v0ZM12.04 84.1c-1.33 1.69-2.46 3.15-3.39 4.66 -2.5 9.27-3.86 18.99-3.93 29.03 .48 2.69 1.28 5.3 2.4 7.79 -.6-16.77-.04-24.25 4.92-41.48v0Zm201.17 100.4c-3.51 4.12-7.91 8.27-14.59 13.64v0c.85.62 1.51 1.11 1.81 1.58 4.69-4.68 8.95-9.78 12.78-15.22v0ZM48.04 208.28c-.47-.9-.76-1.95-.88-3.49 -3.39-1.64-6.43-3.47-9.14-5.47 3.15 3.18 6.51 6.17 10.02 8.96v0Zm-42.59-76.8c.23-1.54.7-3.23 1.66-5.57 -1.12-2.47-1.91-5.05-2.38-7.72 0 .13 0 .27 0 .4 0 4.36.27 8.66.74 12.89v0Z"/></svg>