<?xml version="1.0" encoding="UTF-8"?><svg version="1.1" viewBox="0 0 432 921" xmlns="http://www.w3.org/2000/svg"><g opacity=".3"><g fill="#43517A"><path d="M152.2 594.8L280 668.5v147.4l-127.8 73.7 -127.8-73.7V668.5l127.8-73.7v0Zm117.9 215.4v-136l-117.9-68 -117.9 68v136l117.9 68 117.9-68v0Z"/><path d="M152.2 34.2L280 107.9v147.4L152.2 329 24.4 255.3V107.9l127.8-73.7Zm117.9 215.4v-136l-117.9-68 -117.9 68v136l117.9 68 117.9-68v0Z"/><path d="M397.8 174.2l127.8 73.7v147.4L397.8 469 270 395.3V247.9l127.8-73.7v0Zm117.9 79.4l-117.9-68 -117.9 68v136l117.9 68 117.9-68s0-136 0-136Z"/></g><g fill="#7AC0EE"><path d="M152.2 314.5L280 388.2v147.4l-127.8 73.7 -127.8-73.7V388.2l127.8-73.7Zm117.9 215.4v-136l-117.9-68 -117.9 68v136l117.9 68 117.9-68v0Z"/><path d="M397.8 457.6l127.8 73.7v147.4l-127.8 73.7L270 678.7V531.3l127.8-73.7ZM515.7 537l-117.9-68 -117.9 68v136l117.9 68 117.9-68V537Z"/></g></g></svg>