<?xml version="1.0" encoding="UTF-8"?><svg version="1.1" viewBox="0 0 432 798" xmlns="http://www.w3.org/2000/svg"><g opacity=".3"><g fill="#43517A"><path d="M284.1 471.8l127.8 73.7v147.4l-127.8 73.7 -127.8-73.7V545.5l127.8-73.7v0ZM166.2 687.2l117.9 68 117.9-68v-136l-117.9-68 -117.9 68v136Z"/><path d="M411.9-15.1v147.4L284.1 206l-127.8-73.7V-15.1l127.8-73.7 127.8 73.7ZM166.2 126.6l117.9 68 117.9-68v-136l-117.9-68 -117.9 68v136Z"/><path d="M38.5 51.2l127.8 73.7v147.4L38.5 346l-127.8-73.7V124.9L38.5 51.2v0ZM-79.4 266.6l117.9 68 117.9-68v-136l-117.9-68 -117.9 68v136Z"/></g><g fill="#7AC0EE"><path d="M411.9 265.2v147.4l-127.8 73.7 -127.8-73.7V265.2l127.8-73.7 127.8 73.7ZM166.2 406.9l117.9 68 117.9-68v-136l-117.9-68 -117.9 68v136Z"/><path d="M166.3 408.3v147.4L38.5 629.4l-127.8-73.7V408.3l127.8-73.7 127.8 73.7ZM-79.4 550l117.9 68 117.9-68V414L38.5 346l-117.9 68v136Z"/></g></g></svg>