<?xml version="1.0" encoding="utf-8"?>
<!-- Generator: Adobe Illustrator 28.0.0, SVG Export Plug-In . SVG Version: 6.00 Build 0)  -->
<svg version="1.0" id="Layer_1" xmlns="http://www.w3.org/2000/svg" xmlns:xlink="http://www.w3.org/1999/xlink" x="0px" y="0px"
	 viewBox="0 0 432 798" style="enable-background:new 0 0 432 798;" xml:space="preserve">
<style type="text/css">
	.st0{opacity:0.3;clip-path:url(#SVGID_00000023961807996051877660000016934495327644771761_);}
	.st1{fill:#FFFFFF;filter:url(#Adobe_OpacityMaskFilter);}
	.st2{mask:url(#mask0_65_397_00000049904017084278927580000017037724902424596644_);}
	.st3{opacity:0.3;}
	.st4{fill:#43517A;}
	.st5{fill:#7AC0EE;}
</style>
<g>
	<defs>
		<rect id="SVGID_1_" width="432" height="798"/>
	</defs>
	<clipPath id="SVGID_00000032624623756129522010000014601885801632911758_">
		<use xlink:href="#SVGID_1_"  style="overflow:visible;"/>
	</clipPath>
	<g style="opacity:0.3;clip-path:url(#SVGID_00000032624623756129522010000014601885801632911758_);">
		<defs>
			<filter id="Adobe_OpacityMaskFilter" filterUnits="userSpaceOnUse" x="-99.9" y="31.4" width="501.2" height="855.5">
				<feColorMatrix  type="matrix" values="1 0 0 0 0  0 1 0 0 0  0 0 1 0 0  0 0 0 1 0"/>
			</filter>
		</defs>
		
			<mask maskUnits="userSpaceOnUse" x="-99.9" y="31.4" width="501.2" height="855.5" id="mask0_65_397_00000049904017084278927580000017037724902424596644_">
			<path class="st1" d="M432,798V0H0v798H432z"/>
		</mask>
		<g class="st2">
			<g class="st3">
				<path class="st4" d="M273.5,326.2l-127.8-73.7V105.1l127.8-73.7l127.8,73.7v147.4L273.5,326.2L273.5,326.2z M155.6,246.8
					l117.9,68l117.9-68v-136l-117.9-68l-117.9,68V246.8z"/>
				<path class="st4" d="M273.5,886.8l-127.8-73.7V665.7L273.5,592l127.8,73.7v147.4L273.5,886.8z M155.6,807.4l117.9,68l117.9-68
					v-136l-117.9-68l-117.9,68V807.4z"/>
				<path class="st4" d="M27.9,746.8l-127.8-73.7V525.7L27.9,452l127.8,73.7v147.4L27.9,746.8L27.9,746.8z M-90,667.4l117.9,68
					l117.9-68v-136l-117.9-68l-117.9,68V667.4z"/>
				<path class="st5" d="M273.5,606.5l-127.8-73.7V385.4l127.8-73.7l127.8,73.7v147.4L273.5,606.5z M155.6,527.1l117.9,68l117.9-68
					v-136l-117.9-68l-117.9,68V527.1z"/>
				<path class="st5" d="M27.9,463.4l-127.8-73.7V242.3l127.8-73.7l127.8,73.7v147.4L27.9,463.4z M-90,384l117.9,68l117.9-68V248
					L27.9,180L-90,248V384z"/>
			</g>
		</g>
	</g>
</g>
</svg>
