<?xml version="1.0" encoding="utf-8"?>
<!-- Generator: Adobe Illustrator 28.0.0, SVG Export Plug-In . SVG Version: 6.00 Build 0)  -->
<svg version="1.0" id="Layer_1" xmlns="http://www.w3.org/2000/svg" xmlns:xlink="http://www.w3.org/1999/xlink" x="0px" y="0px"
	 viewBox="0 0 432 798" style="enable-background:new 0 0 432 798;" xml:space="preserve">
<style type="text/css">
	.st0{opacity:0.3;}
	.st1{fill:#FFFFFF;filter:url(#Adobe_OpacityMaskFilter);}
	.st2{mask:url(#mask0_65_385_00000031919682175425698330000009963941085657835138_);}
	.st3{fill:#43517A;}
	.st4{fill:#7AC0EE;}
</style>
<g class="st0">
	<defs>
		<filter id="Adobe_OpacityMaskFilter" filterUnits="userSpaceOnUse" x="30.7" y="-88.8" width="501.2" height="855.5">
			<feColorMatrix  type="matrix" values="1 0 0 0 0  0 1 0 0 0  0 0 1 0 0  0 0 0 1 0"/>
		</filter>
	</defs>
	
		<mask maskUnits="userSpaceOnUse" x="30.7" y="-88.8" width="501.2" height="855.5" id="mask0_65_385_00000031919682175425698330000009963941085657835138_">
		<path class="st1" d="M0,0l0,798h432V0L0,0z"/>
	</mask>
	<g class="st2">
		<g class="st0">
			<path class="st3" d="M158.5,471.8l127.8,73.7v147.4l-127.8,73.7L30.7,692.9V545.5L158.5,471.8L158.5,471.8z M276.4,551.2
				l-117.9-68l-117.9,68v136l117.9,68l117.9-68V551.2z"/>
			<path class="st3" d="M158.5-88.8l127.8,73.7v147.4L158.5,206L30.7,132.3l0-147.4L158.5-88.8z M276.4-9.4l-117.9-68L40.6-9.4v136
				l117.9,68l117.9-68V-9.4z"/>
			<path class="st3" d="M404.1,51.2l127.8,73.7v147.4L404.1,346l-127.8-73.7V124.9L404.1,51.2L404.1,51.2z M522,130.6l-117.9-68
				l-117.9,68v136l117.9,68l117.9-68V130.6z"/>
			<path class="st4" d="M158.5,191.5l127.8,73.7v147.4l-127.8,73.7L30.7,412.6l0-147.4L158.5,191.5z M276.4,270.9l-117.9-68
				l-117.9,68v136l117.9,68l117.9-68V270.9z"/>
			<path class="st4" d="M404.1,334.6l127.8,73.7v147.4l-127.8,73.7l-127.8-73.7V408.3L404.1,334.6z M522,414l-117.9-68l-117.9,68
				v136l117.9,68L522,550V414z"/>
		</g>
	</g>
</g>
</svg>
