<?xml version="1.0" encoding="UTF-8"?><svg version="1.1" viewBox="0 0 432 921" xmlns="http://www.w3.org/2000/svg"><g opacity=".3"><g fill="#43517A"><path d="M284.1 594.8l127.8 73.7v147.4l-127.8 73.7 -127.8-73.7V668.5l127.8-73.7v0ZM166.2 810.2l117.9 68 117.9-68v-136l-117.9-68 -117.9 68 -.0001 136v0Z"/><path d="M411.9 107.9v147.4L284.1 329l-127.8-73.7V107.9l127.8-73.7 127.8 73.7ZM166.2 249.6l117.9 68 117.9-68v-136l-117.9-68 -117.9 68 -.0001 136v0Z"/><path d="M38.5 174.2l127.8 73.7v147.4L38.5 469l-127.8-73.7V247.9l127.8-73.7v0ZM-79.4 389.6l117.9 68 117.9-68v-136l-117.9-68 -117.9 68c0-.0001 0 136 0 136Z"/></g><g fill="#7AC0EE"><path d="M411.9 388.2v147.4l-127.8 73.7 -127.8-73.7V388.2l127.8-73.7 127.8 73.7ZM166.2 529.9l117.9 68 117.9-68v-136l-117.9-68 -117.9 68 -.0001 136v0Z"/><path d="M166.3 531.3v147.4L38.5 752.4l-127.8-73.7V531.3l127.8-73.7 127.8 73.7ZM-79.4 673l117.9 68 117.9-68V537L38.5 469l-117.9 68v136Z"/></g></g></svg>